<?xml version="1.0" encoding="utf-8"?>
<!-- Generator: Adobe Illustrator 18.0.0, SVG Export Plug-In . SVG Version: 6.00 Build 0)  -->
<!DOCTYPE svg PUBLIC "-//W3C//DTD SVG 1.1//EN" "http://www.w3.org/Graphics/SVG/1.1/DTD/svg11.dtd">
<svg version="1.1" id="Layer_1" xmlns="http://www.w3.org/2000/svg" xmlns:xlink="http://www.w3.org/1999/xlink" x="0px" y="0px"
	 viewBox="0 0 100 100" enable-background="new 0 0 100 100" xml:space="preserve">
<g>
	<polygon fill="#FFFFFF" points="68.2,36.1 33.5,36.1 50.3,48.9 	"/>
	<path fill="#FFFFFF" d="M28.9,38.8v24.3c0,0.8,0.7,1.5,1.5,1.5h39.2c0.8,0,1.5-0.6,1.5-1.5V40L50.2,54.9L28.9,38.8z"/>
	<path fill="#FFFFFF" d="M50,0.3c-27.6,0-50,22.4-50,50s22.4,50,50,50c27.6,0,50-22.4,50-50S77.6,0.3,50,0.3z M75.9,63.1
		c0,3.5-2.8,6.3-6.3,6.3H30.4c-3.5,0-6.3-2.8-6.3-6.3V37.6c0-3.5,2.8-6.3,6.3-6.3h39.2c3.5,0,6.3,2.8,6.3,6.3V63.1z"/>
</g>
</svg>
