<?xml version="1.0" encoding="utf-8"?>
<!-- Generator: Adobe Illustrator 18.0.0, SVG Export Plug-In . SVG Version: 6.00 Build 0)  -->
<!DOCTYPE svg PUBLIC "-//W3C//DTD SVG 1.1//EN" "http://www.w3.org/Graphics/SVG/1.1/DTD/svg11.dtd">
<svg version="1.1" id="Layer_1" xmlns="http://www.w3.org/2000/svg" xmlns:xlink="http://www.w3.org/1999/xlink" x="0px" y="0px"
	 viewBox="0 0 200 200" enable-background="new 0 0 200 200" xml:space="preserve">
<g>
	<g>
		<path fill="#666666" d="M100,200C44.9,200,0,155.1,0,100C0,44.9,44.9,0,100,0c55.1,0,100,44.9,100,100
			C200,155.1,155.1,200,100,200z M100,2.1C46,2.1,2.1,46,2.1,100S46,197.9,100,197.9c54,0,97.9-43.9,97.9-97.9S154,2.1,100,2.1z"/>
	</g>
	<g>
		<g>
			<path fill="#808080" d="M100.2,147l-0.6-38.2l11.1-6.9l10.2,6.4l0.2-12.9l10.6-6.1l-2.4,36.5l-9.2,6.7l-8.9-4.3l-0.4,10.7
				l-0.1,0.1L100.2,147z M100.3,109.1l0.5,36.5l9.3-7l0.4-11.5l9.5,4.6l8.6-6.2l2.3-34.9l-9.2,5.3l-0.2,13.7l-10.8-6.8L100.3,109.1z
				"/>
		</g>
		<g>
			<path fill="#808080" d="M100.2,147l-0.6-38.2l11.1-6.9l10.2,6.4l0.2-12.9l10.6-6.1l-2.4,36.5l-9.2,6.7l-8.9-4.3l-0.4,10.7
				l-0.1,0.1L100.2,147z M100.3,109.1l0.5,36.5l9.3-7l0.4-11.5l9.5,4.6l8.6-6.2l2.3-34.9l-9.2,5.3l-0.2,13.7l-10.8-6.8L100.3,109.1z
				"/>
		</g>
		<g>
			<path fill="#808080" d="M96,147l-29.7-19.9L62.6,91l32.7,17.7l0.3,13.8l-21.1-12.2l1,11.8l20.4,12.5L96,147z M66.9,126.7l28.4,19
				L95.2,135l-20.4-12.5L73.7,109l21.1,12.3l-0.3-12.1L63.4,92.2L66.9,126.7z"/>
		</g>
		<g>
			<path fill="#808080" d="M97.5,105.5l-0.2-0.1L64.4,87.7l32.4-15.5l0.1,0.1l32.9,14.4l-10.5,6.1l-12.1-5.6l3.4-2l-10.3-4.5
				l-16.7,8.7l13.6,6.9l3.1-1.8l-7.5-3.7l4.3-1.9l15.6,7.5L97.5,105.5z M65.9,87.7l31.6,17l13.8-8.3l-14.1-6.8l-2.7,1.2l7.4,3.6
				L97.2,97l-15.1-7.7l18.1-9.5l11.9,5.2l-3.4,2l10.6,4.9l9.1-5.2L96.8,73L65.9,87.7z"/>
		</g>
		<g>
			<path fill="#808080" d="M121.4,96l-2.8-1.4l10.5-6.1l2.9,1.4L121.4,96z M120.1,94.6l1.3,0.7l9.2-5.3l-1.4-0.7L120.1,94.6z"/>
		</g>
		<g>
			<path fill="#808080" d="M119,95.2l-0.1-3l10.5-6l0.1,3L119,95.2z M119.7,92.6l0,1.4l9.1-5.3l0-1.4L119.7,92.6z"/>
		</g>
		<g>
			<path fill="#808080" d="M119.7,95.1l-12-5.4l-0.1-3.2l12,5.6L119.7,95.1z M108.4,89.3L119,94l0-1.5l-10.6-5L108.4,89.3z"/>
		</g>
		<g>
			<path fill="#808080" d="M98.3,96.4l-4.9-2.7l-0.1-3.5l8.5,4.2L98.3,96.4z M94,93.3l4.2,2.3l2.1-1.2L94,91.3L94,93.3z"/>
		</g>
		<g>
			<path fill="#808080" d="M108.9,87l-8.8-4.1l-0.1-3.2l12.2,5.3L108.9,87z M100.7,82.5l8.1,3.7l1.8-1.1l-10-4.3L100.7,82.5z"/>
		</g>
		<g>
			<path fill="#808080" d="M85.7,91.1l-3.5-1.8l18.5-9.6l0.1,3.2L85.7,91.1z M83.7,89.3l2,1l14.3-7.8l0-1.7L83.7,89.3z"/>
		</g>
		<g>
			<path fill="#808080" d="M97.2,108.3l-0.1-3.5l15.2-9.1l0.1,3.4L97.2,108.3z M97.8,105.3l0,1.9l13.8-8.3l0-1.8L97.8,105.3z"/>
		</g>
		<g>
			<path fill="#808080" d="M100,109.3l-3.2-1.6l11.6-7l3.1,1.5L100,109.3z M98.2,107.7l1.7,0.9l10.1-6.2l-1.6-0.8L98.2,107.7z"/>
		</g>
		<g>
			<path fill="#808080" d="M100.9,146.9l-2.9-2l0-0.2l-0.8-37.6l3.1,1.6l0,0.2L100.9,146.9z M98.6,144.6l1.5,1l-0.5-36.5l-1.7-0.9
				L98.6,144.6z"/>
		</g>
		<g>
			<path fill="#808080" d="M121.6,109.5l-2.8-1.8L119,94l2.7,1.4L121.6,109.5z M119.4,107.4l1.4,0.9l0.2-12.5l-1.4-0.7L119.4,107.4z
				"/>
		</g>
		<g>
			<path fill="#808080" d="M97.9,108.3l-33-17.9l-0.1-3.3l33,17.7L97.9,108.3z M65.5,90l31.6,17.1l0-1.9l-31.6-17L65.5,90z"/>
		</g>
		<g>
			<path fill="#808080" d="M94.9,122.4l-0.3-13.8l3.3-1.5l0.3,13.4L94.9,122.4z M95.3,109.1l0.3,12.2l1.9-1.1l-0.2-12L95.3,109.1z"
				/>
		</g>
		<g>
			<path fill="#808080" d="M94.9,109.3L62.3,91.6l2.8-1.8l0.2,0.1l33,17.8L94.9,109.3z M63.7,91.6l31.2,16.9l1.8-0.8L65.2,90.6
				L63.7,91.6z"/>
		</g>
		<g>
			<path fill="#808080" d="M95.3,147l-0.1-12.4l3.2-1.7l0.2,12.1L95.3,147z M95.9,135l0.1,10.8l1.9-1.2L97.7,134L95.9,135z"/>
		</g>
		<g>
			<path fill="#808080" d="M74.8,122.8L73.7,109l3.1,1.8l0.8,10.5L74.8,122.8z M74.5,110.2l0.9,11.5l1.5-0.8l-0.7-9.7L74.5,110.2z"
				/>
		</g>
		<g>
			<path fill="#808080" d="M95.6,135.2l-21.1-12.9l2.8-1.6l21.5,12.8L95.6,135.2z M75.8,122.3l19.8,12.1l1.8-1l-20.1-11.9
				L75.8,122.3z"/>
		</g>
	</g>
	<g>
		<g>
			<g>
				<path fill="#666666" d="M24.2,132.4c-0.8,0-3.2,0-3.6-1.6c-0.5-1.7,1.9-2.9,2.6-3.4c1.6-0.9,3.8-1.7,6.1-2.4
					c2.6-0.7,5-1.1,6.9-1.1c0.8,0,3.2,0,3.6,1.6c0.8,3-7.2,5.3-8.8,5.7C28.5,132,26,132.4,24.2,132.4z M22.8,130.2
					c0.3,0.1,0.7,0.1,1.4,0.1c1.7,0,4-0.4,6.3-1c4-1.1,6.3-2.4,7.1-3.1c-0.3-0.1-0.7-0.1-1.4-0.1c-1.7,0-4,0.4-6.3,1
					C25.9,128.2,23.5,129.5,22.8,130.2z"/>
			</g>
			<g>
				<polygon fill="#666666" points="31.7,147.4 30.8,144.4 24.2,142.9 20.6,130.8 22.5,130.2 25.8,141.1 32.5,142.6 33.1,144.9 
					36,144.1 35.4,141.9 40.4,137.2 37.9,126 39.9,125.5 42.7,137.8 37.7,142.5 38.5,145.5 				"/>
			</g>
			<g>
				<path fill="#666666" d="M26.5,139.5c-0.9,0-1.8-0.1-2.8-0.2l0.3-2c8.7,1.1,16-4.2,16.1-4.2l1.2,1.7
					C41,135,34.7,139.5,26.5,139.5z"/>
			</g>
			<g>
				<path fill="#666666" d="M25.3,135.2c-0.9,0-1.8-0.1-2.7-0.2l0.3-2c8.7,1.1,16.2-4.2,16.3-4.3l1.2,1.7
					C40,130.6,33.5,135.2,25.3,135.2z"/>
			</g>
		</g>
		<g>
			<g>
				<path fill="#666666" d="M35.9,108.8c-1.7,0-2.6-0.4-2.8-1.2c-0.6-2.4,6.4-4.3,7.2-4.5c2.1-0.6,4.1-0.9,5.6-0.9
					c1.7,0,2.6,0.4,2.8,1.2c0.6,2.3-6.4,4.3-7.2,4.5C39.4,108.4,37.4,108.8,35.9,108.8z M34.4,107.2c0.2,0.1,0.6,0.2,1.4,0.2
					c1.4,0,3.3-0.3,5.3-0.8c3.6-1,5.7-2.3,6.1-2.8c-0.2-0.1-0.6-0.2-1.4-0.2c-1.4,0-3.3,0.3-5.3,0.8
					C36.9,105.3,34.8,106.6,34.4,107.2z"/>
			</g>
			<g>
				<polygon fill="#666666" points="42.2,121.1 41.5,118.7 36,117.5 33,107.6 34.3,107.2 37.1,116.3 42.6,117.6 43.2,119.5 
					45.9,118.7 45.4,116.9 49.5,112.9 47.4,103.6 48.7,103.3 51.1,113.4 46.9,117.3 47.6,119.7 				"/>
			</g>
			<g>
				<path fill="#666666" d="M37.8,114.6c-0.7,0-1.5,0-2.3-0.1l0.2-1.4c7.2,0.9,13.4-3.5,13.5-3.5l0.8,1.1
					C49.7,110.9,44.5,114.6,37.8,114.6z"/>
			</g>
			<g>
				<path fill="#666666" d="M36.8,111.1c-0.7,0-1.5,0-2.3-0.1l0.2-1.4c7.2,0.9,13.6-3.5,13.6-3.6l0.8,1.1
					C48.9,107.3,43.6,111.1,36.8,111.1z"/>
			</g>
		</g>
		<g>
			<g>
				<path fill="#666666" d="M47.2,90.1c-1.2,0-1.8-0.2-1.9-0.8c-0.1-0.5,0.3-1.1,1.5-1.7c1-0.5,2.3-1,3.7-1.4
					c1.5-0.4,3.1-0.7,4.2-0.7c1.2,0,1.8,0.2,1.9,0.8c0.1,0.5-0.3,1.1-1.5,1.7c-1,0.5-2.3,1-3.7,1.4C49.8,89.8,48.3,90.1,47.2,90.1z
					 M54.6,86.2c-1.1,0-2.5,0.2-4,0.6c-3.2,0.9-4.8,2-4.7,2.3c0,0.1,0.3,0.3,1.3,0.3c1.1,0,2.5-0.2,4-0.6c3.2-0.9,4.8-2,4.7-2.3
					C55.9,86.4,55.6,86.2,54.6,86.2z"/>
			</g>
			<g>
				<polygon fill="#666666" points="52.1,99.3 51.6,97.6 47.4,96.6 45.2,89.3 45.9,89.1 48,96.1 52.1,97 52.5,98.5 54.9,97.8 
					54.5,96.4 57.6,93.4 56,86.4 56.6,86.2 58.3,93.7 55.3,96.6 55.7,98.3 				"/>
			</g>
			<g>
				<path fill="#666666" d="M48.6,94.5c-0.5,0-1.1,0-1.7-0.1l0.1-0.7c5.5,0.7,10.1-2.6,10.2-2.7l0.4,0.6
					C57.4,91.7,53.6,94.5,48.6,94.5z"/>
			</g>
			<g>
				<path fill="#666666" d="M47.9,91.8c-0.5,0-1.1,0-1.7-0.1l0.1-0.7c5.5,0.7,10.3-2.7,10.3-2.7l0.4,0.6
					C56.8,89.1,52.9,91.8,47.9,91.8z"/>
			</g>
		</g>
	</g>
	<g>
		<g>
			<g>
				<path fill="#666666" d="M174.9,128C174.9,128,174.9,128,174.9,128c-1.9,0-4.3,0.1-6.9-0.6c-1.6-0.4-9.6-2.5-8.8-5.5
					c0.4-1.6,2.8-1.5,3.6-1.5c1.9,0,4.3,0.4,6.9,1.1c2.4,0.6,4.6,1.5,6.1,2.4c0.8,0.4,3.1,1.2,2.6,2.9
					C178.1,128.5,175.7,128,174.9,128z M161.5,122.8c0.7,0.7,3.1,2,7.1,3.1c2.3,0.6,4.6,1,6.3,1h0c0.7,0,1.1-0.1,1.4-0.1
					c-0.7-0.7-3.1-2-7.1-3.1c-2.3-0.6-4.6-1-6.3-1C162.2,122.7,161.8,122.7,161.5,122.8z"/>
			</g>
			<g>
				<polygon fill="#666666" points="167.4,143.9 160.6,142.1 161.4,139.1 156.4,134.4 159.2,122.1 161.2,122.6 158.7,133.7 
					163.7,138.5 163.1,140.6 166,141.4 166.6,139.2 173.3,137.7 176.6,126.8 178.5,127.4 174.9,139.5 168.3,140.9 				"/>
			</g>
			<g>
				<path fill="#666666" d="M172.6,136.1c-8.2,0-14.5-4.5-14.8-4.8l1.2-1.7c0.1,0.1,7.5,5.3,16.1,4.2l0.3,2
					C174.4,136,173.5,136.1,172.6,136.1z"/>
			</g>
			<g>
				<path fill="#666666" d="M173.8,131.8c-8.2,0-14.7-4.6-15-4.8l1.2-1.7c0.1,0.1,7.7,5.4,16.3,4.3l0.3,2
					C175.6,131.7,174.7,131.8,173.8,131.8z"/>
			</g>
		</g>
		<g>
			<g>
				<path fill="#666666" d="M163.2,105.3C163.2,105.3,163.2,105.3,163.2,105.3c-1.5,0-3.5-0.3-5.6-0.9c-0.8-0.2-7.8-2.2-7.2-4.5
					c0.2-0.8,1.1-1.2,2.8-1.2c1.5,0,3.6,0.3,5.6,0.9c0.8,0.2,7.8,2.2,7.2,4.5C165.9,104.9,164.9,105.3,163.2,105.3z M151.8,100.3
					c0.4,0.6,2.5,1.9,6.1,2.8c2,0.5,3.9,0.8,5.3,0.8c0.8,0,1.3-0.1,1.4-0.2c-0.4-0.6-2.5-1.9-6.1-2.8c-2-0.5-3.9-0.8-5.3-0.8
					C152.5,100.1,152,100.2,151.8,100.3z"/>
			</g>
			<g>
				<polygon fill="#666666" points="156.9,117.7 151.5,116.3 152.2,113.8 148,109.9 150.4,99.8 151.7,100.1 149.6,109.5 
					153.7,113.4 153.2,115.3 155.9,116 156.5,114.1 162,112.9 164.8,103.7 166.1,104.1 163.1,114 157.6,115.3 				"/>
			</g>
			<g>
				<path fill="#666666" d="M161.3,111.2c-6.7,0-11.9-3.7-12.2-3.9l0.8-1.1c0.1,0,6.2,4.5,13.5,3.5l0.2,1.4
					C162.8,111.2,162.1,111.2,161.3,111.2z"/>
			</g>
			<g>
				<path fill="#666666" d="M162.3,107.7c-6.8,0-12.1-3.8-12.4-4l0.8-1.1c0.1,0,6.4,4.5,13.6,3.6l0.2,1.4
					C163.8,107.6,163,107.7,162.3,107.7z"/>
			</g>
		</g>
		<g>
			<g>
				<path fill="#666666" d="M151.9,86.7c-1.1,0-2.6-0.2-4.2-0.7c-2-0.5-5.6-1.9-5.2-3.2c0.1-0.5,0.8-0.8,1.9-0.8
					c1.1,0,2.6,0.2,4.2,0.7c2,0.5,5.6,1.9,5.2,3.2C153.7,86.4,153.1,86.7,151.9,86.7z M144.5,82.7c-1,0-1.3,0.2-1.3,0.3
					c-0.1,0.3,1.5,1.5,4.7,2.3c1.5,0.4,2.9,0.6,4,0.6c1,0,1.3-0.2,1.3-0.3c0.1-0.3-1.5-1.5-4.7-2.3C147,83,145.5,82.7,144.5,82.7z"
					/>
			</g>
			<g>
				<polygon fill="#666666" points="147,95.9 143.4,94.9 143.8,93.1 140.7,90.2 142.5,82.8 143.1,82.9 141.5,90 144.6,92.9 
					144.2,94.4 146.6,95 147,93.5 151.1,92.6 153.2,85.7 153.9,85.9 151.7,93.2 147.5,94.1 				"/>
			</g>
			<g>
				<path fill="#666666" d="M150.5,91c-5,0-8.8-2.8-9-2.9l0.4-0.6c0,0,4.7,3.4,10.2,2.7l0.1,0.7C151.6,91,151,91,150.5,91z"/>
			</g>
			<g>
				<path fill="#666666" d="M151.2,88.4c-5,0-8.9-2.8-9.1-2.9l0.4-0.6c0,0,4.8,3.4,10.3,2.7l0.1,0.7
					C152.3,88.4,151.7,88.4,151.2,88.4z"/>
			</g>
		</g>
	</g>
	<g>
		
			<rect x="-7.9" y="114.8" transform="matrix(0.5385 0.8426 -0.8426 0.5385 102.2833 43.511)" fill="#666666" width="38.6" height="0.7"/>
	</g>
	<g>
		
			<rect x="-13.9" y="78.1" transform="matrix(9.632549e-002 0.9953 -0.9953 9.632549e-002 108.9173 36.8468)" fill="#666666" width="96.2" height="0.7"/>
	</g>
	<g>
		
			<rect x="-5.5" y="83.1" transform="matrix(0.4336 0.9011 -0.9011 0.4336 87.5538 27.5917)" fill="#666666" width="54.6" height="0.7"/>
	</g>
	<g>
		
			<rect x="2.3" y="62.3" transform="matrix(8.498570e-002 0.9964 -0.9964 8.498570e-002 103.0606 13.0577)" fill="#666666" width="84.3" height="0.7"/>
	</g>
	<g>
		
			<rect x="5.7" y="64.8" transform="matrix(0.4469 0.8946 -0.8946 0.4469 76.6308 6.2571)" fill="#666666" width="55.1" height="0.7"/>
	</g>
	<g>
		
			<rect x="17.2" y="50" transform="matrix(6.701719e-002 0.9978 -0.9978 6.701719e-002 100.6616 -6.8931)" fill="#666666" width="73.6" height="0.7"/>
	</g>
	<g>
		
			<rect x="187.5" y="91" transform="matrix(0.8496 0.5274 -0.5274 0.8496 87.2316 -82.2181)" fill="#666666" width="0.7" height="41.7"/>
	</g>
	<g>
		
			<rect x="168.1" y="37.6" transform="matrix(0.9779 0.2089 -0.2089 0.9779 20.6764 -33.3954)" fill="#666666" width="0.7" height="87.3"/>
	</g>
	<g>
		
			<rect x="178.9" y="62.3" transform="matrix(0.803 0.5959 -0.5959 0.803 86.5566 -89.8455)" fill="#666666" width="0.7" height="47.4"/>
	</g>
	<g>
		
			<rect x="155.2" y="21.2" transform="matrix(0.9929 0.1192 -0.1192 0.9929 8.424 -18.105)" fill="#666666" width="0.7" height="80.2"/>
	</g>
	<g>
		
			<rect x="163.7" y="33.1" transform="matrix(0.9221 0.3868 -0.3868 0.9221 36.342 -58.7299)" fill="#666666" width="0.7" height="55.7"/>
	</g>
	<g>
		
			<rect x="146.4" y="15" transform="matrix(0.9922 0.125 -0.125 0.9922 7.3747 -17.9558)" fill="#666666" width="0.7" height="69.7"/>
	</g>
	<g>
		<path fill="#666666" d="M196.4,122c-31.2-48.7-64.2-72.8-98.1-71.7c-28.8,0.9-53,20.4-68.2,36.5c-16.5,17.5-26.3,35-26.3,35.2
			l-0.6-0.3c0.1-0.2,9.9-17.7,26.4-35.3c15.3-16.2,39.6-35.8,68.7-36.7c34.1-1.1,67.4,23.1,98.7,72L196.4,122z"/>
	</g>
</g>
</svg>
