<?xml version="1.0" encoding="utf-8"?>
<!-- Generator: Adobe Illustrator 18.0.0, SVG Export Plug-In . SVG Version: 6.00 Build 0)  -->
<!DOCTYPE svg PUBLIC "-//W3C//DTD SVG 1.1//EN" "http://www.w3.org/Graphics/SVG/1.1/DTD/svg11.dtd">
<svg version="1.1" id="Layer_1" xmlns="http://www.w3.org/2000/svg" xmlns:xlink="http://www.w3.org/1999/xlink" x="0px" y="0px"
	 viewBox="0 0 100 100" enable-background="new 0 0 100 100" xml:space="preserve">
<path fill="#FFFFFF" d="M50.3,0.3c-27.6,0-50,22.4-50,50c0,27.6,22.4,50,50,50s50-22.4,50-50C100.3,22.7,77.9,0.3,50.3,0.3z
	 M69.4,54.5v23.4l-12.2,0V67.2c0,0,0.2-7.4-7.3-7.4C42.7,59.7,43,67,43,67l0,10.9H30.4V54.8l-7.1,0l25.5-32l10.9,12.8V24.8h9
	l-0.2,18.5l8.9,11.1H69.4z"/>
</svg>
