<?xml version="1.0" encoding="utf-8"?>
<!-- Generator: Adobe Illustrator 18.0.0, SVG Export Plug-In . SVG Version: 6.00 Build 0)  -->
<!DOCTYPE svg PUBLIC "-//W3C//DTD SVG 1.1//EN" "http://www.w3.org/Graphics/SVG/1.1/DTD/svg11.dtd">
<svg version="1.1" id="Layer_1" xmlns="http://www.w3.org/2000/svg" xmlns:xlink="http://www.w3.org/1999/xlink" x="0px" y="0px"
	 viewBox="0 0 200 200" enable-background="new 0 0 200 200" xml:space="preserve">
<g>
	<g>
		<path fill="#666666" d="M100.1,200c-55.1,0-99.9-44.8-99.9-99.9c0-55.1,44.8-99.9,99.9-99.9c55.1,0,99.9,44.8,99.9,99.9
			C200,155.2,155.2,200,100.1,200z M100.1,2.3c-53.9,0-97.8,43.9-97.8,97.8s43.9,97.8,97.8,97.8c53.9,0,97.8-43.9,97.8-97.8
			S154.1,2.3,100.1,2.3z"/>
	</g>
	<g>
		
			<rect x="117.7" y="75.2" transform="matrix(0.9438 0.3306 -0.3306 0.9438 50.5069 -31.8146)" fill="#666666" width="2.1" height="114.7"/>
	</g>
	<g>
		<polygon fill="#666666" points="100.6,187.3 99,186 136.4,140 123.7,126.7 150.4,116.3 136.8,78.8 138.7,78.1 153.1,117.5 
			127.3,127.5 139.1,139.9 		"/>
	</g>
	<g>
		
			<rect x="23.5" y="131.5" transform="matrix(0.3308 0.9437 -0.9437 0.3308 179.1917 12.4224)" fill="#666666" width="114.7" height="2.1"/>
	</g>
	<g>
		<polygon fill="#666666" points="99,187.3 60.5,139.9 72.3,127.5 46.5,117.5 60.9,78.1 62.8,78.8 49.2,116.3 75.9,126.7 63.2,140 
			100.6,186 		"/>
	</g>
	<g>
		<polygon fill="#666666" points="99.8,124.7 90.4,111.4 92.1,110.2 99.8,121 107.3,109.7 109,110.9 		"/>
	</g>
	<g>
		<path fill="none" stroke="#666666" stroke-width="3" stroke-miterlimit="10" d="M99.8,86.8"/>
	</g>
	<g>
		<path fill="#666666" d="M109.2,116.3L98.5,86.2l0.8-0.4c14.1-7.3,26-29.2,26.1-29.4l0.9-1.7l12.4,23.5l0,0.3
			c-0.6,5.8-25.6,33.4-28.4,36.5L109.2,116.3z M101.1,87.2l8.9,25.2c10.7-11.8,25.7-29.5,26.7-33.8l-10.3-19.5
			C123.3,64.3,113.2,80.5,101.1,87.2z"/>
	</g>
	<g>
		<path fill="#666666" d="M90.4,116.3l-1.2-1.3c-2.8-3.1-27.8-30.7-28.4-36.5l0-0.3l12.4-23.5l0.9,1.7c0.1,0.2,12,22.1,26.1,29.4
			l0.8,0.4L90.4,116.3z M62.9,78.6c1,4.3,16,22,26.7,33.8l8.9-25.2c-12.2-6.8-22.2-22.9-25.3-28.1L62.9,78.6z"/>
	</g>
	<g>
		<polygon fill="#666666" points="99.8,189.8 87.7,155.2 95.9,118.5 97.9,118.9 89.8,155.1 99.8,183.6 110,154.5 101.6,118.9 
			103.6,118.5 112.1,154.6 112,154.9 		"/>
	</g>
	<g>
		
			<rect x="132.7" y="79.6" transform="matrix(0.9608 0.2772 -0.2772 0.9608 28.8707 -42.9156)" fill="#666666" width="67.1" height="2.1"/>
	</g>
	<g>
		
			<rect x="32" y="49.9" transform="matrix(0.3164 0.9486 -0.9486 0.3164 101.6922 25.622)" fill="#666666" width="2.1" height="67"/>
	</g>
	<g>
		<polygon fill="#666666" points="74.3,57 72.2,57 72.9,35.1 96.2,55 105.9,55 126.7,32.3 127.4,56.9 125.3,57 124.8,37.4 106.8,57 
			95.5,57 74.8,39.4 		"/>
	</g>
	<g>
		<path fill="#666666" d="M73.1,37.9c-0.3-0.3-7.8-8.3-9.2-11.8c-1.7-4.2-1.6-17.2-1.6-17.8l2.1,0c0,0.1-0.1,13.2,1.4,17
			c1,2.6,6.7,8.9,8.8,11.1L73.1,37.9z"/>
	</g>
	<g>
		<path fill="#666666" d="M126.6,35.4l-1.7-1.1c0.1-0.1,5.6-8.7,6.7-11.9c1.2-3.4,2.7-14.7,2.7-14.8l2,0.3
			c-0.1,0.5-1.5,11.6-2.8,15.3C132.3,26.4,126.9,35,126.6,35.4z"/>
	</g>
</g>
</svg>
