<?xml version="1.0" encoding="utf-8"?>
<!-- Generator: Adobe Illustrator 18.0.0, SVG Export Plug-In . SVG Version: 6.00 Build 0)  -->
<!DOCTYPE svg PUBLIC "-//W3C//DTD SVG 1.1//EN" "http://www.w3.org/Graphics/SVG/1.1/DTD/svg11.dtd">
<svg version="1.1" xmlns="http://www.w3.org/2000/svg" xmlns:xlink="http://www.w3.org/1999/xlink" x="0px" y="0px"
	 viewBox="0 0 150 200" enable-background="new 0 0 150 200" xml:space="preserve">
<pattern  x="-311.1" y="-985.9" width="159.2" height="92.7" patternUnits="userSpaceOnUse" id="HEXAGON" viewBox="18.3 -124.1 159.2 92.7" overflow="visible">
	<g>
		<polygon fill="none" points="18.3,-124.1 177.5,-124.1 177.5,-31.5 18.3,-31.5 		"/>
		<g>
			<polygon fill="none" stroke="#187765" stroke-miterlimit="10" points="89,-124.4 80.2,-139.8 89,-155.1 106.8,-155.1 
				115.7,-139.8 106.8,-124.4 			"/>
		</g>
		<g>
			<polygon fill="none" stroke="#187765" stroke-miterlimit="10" points="9.4,-78.1 0.6,-93.4 9.4,-108.8 27.2,-108.8 36.1,-93.4 
				27.2,-78.1 			"/>
			<polygon fill="none" stroke="#187765" stroke-miterlimit="10" points="9.4,-108.8 0.6,-124.1 9.4,-139.5 27.2,-139.5 
				36.1,-124.1 27.2,-108.8 			"/>
			<polygon fill="none" stroke="#187765" stroke-miterlimit="10" points="36.1,-93.4 27.2,-108.8 36.1,-124.1 53.8,-124.1 
				62.7,-108.8 53.8,-93.4 			"/>
			<polygon fill="none" stroke="#187765" stroke-miterlimit="10" points="36.1,-124.1 27.2,-139.5 36.1,-154.9 53.8,-154.9 
				62.7,-139.5 53.8,-124.1 			"/>
		</g>
		<g>
			<polygon fill="none" stroke="#187765" stroke-miterlimit="10" points="62.4,-77.8 53.5,-93.2 62.4,-108.5 80.1,-108.5 89,-93.2 
				80.1,-77.8 			"/>
			<polygon fill="none" stroke="#187765" stroke-miterlimit="10" points="89,-93.2 80.2,-108.5 89,-123.9 106.8,-123.9 
				115.7,-108.5 106.8,-93.2 			"/>
			<polygon fill="none" stroke="#187765" stroke-miterlimit="10" points="89,-31.7 80.2,-47.1 89,-62.4 106.8,-62.4 115.7,-47.1 
				106.8,-31.7 			"/>
			<polygon fill="none" stroke="#187765" stroke-miterlimit="10" points="89,-62.4 80.2,-77.8 89,-93.2 106.8,-93.2 115.7,-77.8 
				106.8,-62.4 			"/>
			<polygon fill="none" stroke="#187765" stroke-miterlimit="10" points="115.7,-47.1 106.8,-62.4 115.7,-77.8 133.4,-77.8 
				142.3,-62.4 133.4,-47.1 			"/>
			<polygon fill="none" stroke="#187765" stroke-miterlimit="10" points="62.4,-47.1 53.5,-62.4 62.4,-77.8 80.1,-77.8 89,-62.4 
				80.1,-47.1 			"/>
			<polygon fill="none" stroke="#187765" stroke-miterlimit="10" points="115.7,-77.8 106.8,-93.2 115.7,-108.5 133.4,-108.5 
				142.3,-93.2 133.4,-77.8 			"/>
		</g>
		<g>
			<polygon fill="none" stroke="#187765" stroke-miterlimit="10" points="142,-124.1 133.1,-139.5 142,-154.9 159.7,-154.9 
				168.6,-139.5 159.7,-124.1 			"/>
			<polygon fill="none" stroke="#187765" stroke-miterlimit="10" points="168.6,-78.1 159.8,-93.4 168.6,-108.8 186.4,-108.8 
				195.3,-93.4 186.4,-78.1 			"/>
			<polygon fill="none" stroke="#187765" stroke-miterlimit="10" points="168.6,-108.8 159.8,-124.1 168.6,-139.5 186.4,-139.5 
				195.3,-124.1 186.4,-108.8 			"/>
			<polygon fill="none" stroke="#187765" stroke-miterlimit="10" points="142,-93.4 133.1,-108.8 142,-124.1 159.7,-124.1 
				168.6,-108.8 159.7,-93.4 			"/>
		</g>
		<g>
			<polygon fill="none" stroke="#187765" stroke-miterlimit="10" points="9.4,-46.8 0.6,-62.2 9.4,-77.6 27.2,-77.6 36.1,-62.2 
				27.2,-46.8 			"/>
			<polygon fill="none" stroke="#187765" stroke-miterlimit="10" points="9.4,-16.1 0.6,-31.5 9.4,-46.8 27.2,-46.8 36.1,-31.5 
				27.2,-16.1 			"/>
			<polygon fill="none" stroke="#187765" stroke-miterlimit="10" points="36.1,-0.8 27.2,-16.1 36.1,-31.5 53.8,-31.5 62.7,-16.1 
				53.8,-0.8 			"/>
			<polygon fill="none" stroke="#187765" stroke-miterlimit="10" points="36.1,-31.5 27.2,-46.8 36.1,-62.2 53.8,-62.2 62.7,-46.8 
				53.8,-31.5 			"/>
		</g>
		<g>
			<polygon fill="none" stroke="#187765" stroke-miterlimit="10" points="89,-0.5 80.2,-15.9 89,-31.2 106.8,-31.2 115.7,-15.9 
				106.8,-0.5 			"/>
		</g>
		<g>
			<polygon fill="none" stroke="#187765" stroke-miterlimit="10" points="142,-31.5 133.1,-46.8 142,-62.2 159.7,-62.2 168.6,-46.8 
				159.7,-31.5 			"/>
			<polygon fill="none" stroke="#187765" stroke-miterlimit="10" points="168.6,-46.8 159.8,-62.2 168.6,-77.6 186.4,-77.6 
				195.3,-62.2 186.4,-46.8 			"/>
			<polygon fill="none" stroke="#187765" stroke-miterlimit="10" points="168.6,-16.1 159.8,-31.5 168.6,-46.8 186.4,-46.8 
				195.3,-31.5 186.4,-16.1 			"/>
			<polygon fill="none" stroke="#187765" stroke-miterlimit="10" points="142,-0.8 133.1,-16.1 142,-31.5 159.7,-31.5 168.6,-16.1 
				159.7,-0.8 			"/>
		</g>
	</g>
</pattern>
<g id="Layer_1">
	<rect x="-309.3" y="-985.9" fill="#2D2D2D" width="839.9" height="595.3"/>
</g>
<g id="Layer_2">
	<g>
		<g>
			<g>
				<linearGradient id="SVGID_1_" gradientUnits="userSpaceOnUse" x1="-1878.5475" y1="-2099.959" x2="-1808.1266" y2="-1977.9865">
					<stop  offset="0" style="stop-color:#FFFFFF"/>
					<stop  offset="0.3254" style="stop-color:#E6E7E8"/>
					<stop  offset="0.7501" style="stop-color:#CBCDCE"/>
					<stop  offset="1" style="stop-color:#C1C3C5"/>
				</linearGradient>
				<polygon fill="url(#SVGID_1_)" points="-1911.3,-2079.5 -1864.1,-2107.4 -1819.3,-2077.8 -1817.3,-2135.3 -1774,-2159 
					-1787.3,-2004.6 -1826.6,-1977.5 -1865.9,-1997.7 -1868.5,-1949.7 -1912.1,-1918 				"/>
				<linearGradient id="SVGID_2_" gradientUnits="userSpaceOnUse" x1="-1878.5475" y1="-2099.959" x2="-1808.1266" y2="-1977.9865">
					<stop  offset="0" style="stop-color:#FFFFFF"/>
					<stop  offset="6.810129e-002" style="stop-color:#DBDCDD"/>
					<stop  offset="9.819508e-002" style="stop-color:#EBEBEC"/>
					<stop  offset="0.1377" style="stop-color:#F6F7F7"/>
					<stop  offset="0.1933" style="stop-color:#FDFDFD"/>
					<stop  offset="0.3477" style="stop-color:#FFFFFF"/>
					<stop  offset="0.4182" style="stop-color:#FCFCFC"/>
					<stop  offset="0.4753" style="stop-color:#F2F2F2"/>
					<stop  offset="0.5275" style="stop-color:#E1E2E2"/>
					<stop  offset="0.5412" style="stop-color:#DBDCDD"/>
					<stop  offset="0.542" style="stop-color:#D7D8D9"/>
					<stop  offset="0.5473" style="stop-color:#C1C3C4"/>
					<stop  offset="0.5535" style="stop-color:#B0B2B5"/>
					<stop  offset="0.5613" style="stop-color:#A5A7A9"/>
					<stop  offset="0.5721" style="stop-color:#9EA0A3"/>
					<stop  offset="0.6022" style="stop-color:#9C9EA1"/>
					<stop  offset="1" style="stop-color:#404041"/>
				</linearGradient>
				<polygon fill="url(#SVGID_2_)" points="-1911.3,-2079.5 -1864.1,-2107.4 -1819.3,-2077.8 -1817.3,-2135.3 -1774,-2159 
					-1787.3,-2004.6 -1826.6,-1977.5 -1865.9,-1997.7 -1868.5,-1949.7 -1912.1,-1918 				"/>
				
					<linearGradient id="SVGID_3_" gradientUnits="userSpaceOnUse" x1="-1965.9078" y1="-2099.1868" x2="-2036.1654" y2="-1977.4971">
					<stop  offset="0" style="stop-color:#FFFFFF"/>
					<stop  offset="6.810129e-002" style="stop-color:#DBDCDD"/>
					<stop  offset="9.819508e-002" style="stop-color:#EBEBEC"/>
					<stop  offset="0.1377" style="stop-color:#F6F7F7"/>
					<stop  offset="0.1933" style="stop-color:#FDFDFD"/>
					<stop  offset="0.3477" style="stop-color:#FFFFFF"/>
					<stop  offset="0.4182" style="stop-color:#FCFCFC"/>
					<stop  offset="0.4753" style="stop-color:#F2F2F2"/>
					<stop  offset="0.5275" style="stop-color:#E1E2E2"/>
					<stop  offset="0.5412" style="stop-color:#DBDCDD"/>
					<stop  offset="0.542" style="stop-color:#D7D8D9"/>
					<stop  offset="0.5473" style="stop-color:#C1C3C4"/>
					<stop  offset="0.5535" style="stop-color:#B0B2B5"/>
					<stop  offset="0.5613" style="stop-color:#A5A7A9"/>
					<stop  offset="0.5721" style="stop-color:#9EA0A3"/>
					<stop  offset="0.6022" style="stop-color:#9C9EA1"/>
					<stop  offset="1" style="stop-color:#404041"/>
				</linearGradient>
				<polygon fill="url(#SVGID_3_)" points="-2069.6,-2157.8 -1933,-2080.2 -1933,-2024.1 -2023.2,-2079 -2019.8,-2024.1 
					-1932.5,-1968.2 -1933,-1918 -2057.1,-2004.6 				"/>
				
					<linearGradient id="SVGID_4_" gradientUnits="userSpaceOnUse" x1="-1921.6523" y1="-2096.5706" x2="-1921.6523" y2="-2237.1533">
					<stop  offset="1.076729e-007" style="stop-color:#FFFFFF"/>
					<stop  offset="9.319066e-002" style="stop-color:#DBDCDD"/>
					<stop  offset="0.1178" style="stop-color:#E6E7E7"/>
					<stop  offset="0.1653" style="stop-color:#F4F4F5"/>
					<stop  offset="0.2231" style="stop-color:#FCFDFD"/>
					<stop  offset="0.319" style="stop-color:#FFFFFF"/>
					<stop  offset="0.389" style="stop-color:#FCFCFC"/>
					<stop  offset="0.4457" style="stop-color:#F2F2F2"/>
					<stop  offset="0.4975" style="stop-color:#E1E2E3"/>
					<stop  offset="0.5412" style="stop-color:#CCCECF"/>
					<stop  offset="0.5415" style="stop-color:#CCCECF"/>
					<stop  offset="0.587" style="stop-color:#E3E4E4"/>
					<stop  offset="0.6362" style="stop-color:#F3F3F3"/>
					<stop  offset="0.6918" style="stop-color:#FCFCFC"/>
					<stop  offset="0.767" style="stop-color:#FFFFFF"/>
					<stop  offset="0.8314" style="stop-color:#FCFCFC"/>
					<stop  offset="0.8753" style="stop-color:#F3F3F4"/>
					<stop  offset="0.9131" style="stop-color:#E4E4E5"/>
					<stop  offset="0.9474" style="stop-color:#CECFD1"/>
					<stop  offset="0.9791" style="stop-color:#B3B4B7"/>
					<stop  offset="1" style="stop-color:#9C9EA1"/>
				</linearGradient>
				<polygon fill="url(#SVGID_4_)" points="-1937,-2158.8 -1905.2,-2142.2 -1922,-2133.2 -1983.3,-2166 -1907.3,-2203.8 
					-1859.7,-2182 -1874.6,-2173.5 -1826.1,-2149.6 -1783.2,-2173.2 -1921.7,-2237.2 -2060.1,-2174.5 -1921.7,-2096.6 
					-1858.1,-2132.9 -1921.7,-2165.3 				"/>
				<linearGradient id="SVGID_5_" gradientUnits="userSpaceOnUse" x1="-1826.1205" y1="-2149.469" x2="-1774.0032" y2="-2149.469">
					<stop  offset="0" style="stop-color:#231F20"/>
					<stop  offset="0.1231" style="stop-color:#373334"/>
					<stop  offset="0.3764" style="stop-color:#6B6869"/>
					<stop  offset="0.7341" style="stop-color:#BDBCBD"/>
					<stop  offset="1" style="stop-color:#FFFFFF"/>
				</linearGradient>
				<polygon fill="url(#SVGID_5_)" points="-1826.1,-2140 -1817.3,-2135.3 -1774,-2159 -1783.2,-2163.6 				"/>
				
					<linearGradient id="SVGID_6_" gradientUnits="userSpaceOnUse" x1="-1826.1205" y1="-2156.5972" x2="-1783.2267" y2="-2156.5972">
					<stop  offset="0" style="stop-color:#FFFFFF"/>
					<stop  offset="0.2659" style="stop-color:#BDBCBD"/>
					<stop  offset="0.6236" style="stop-color:#6B6869"/>
					<stop  offset="0.8769" style="stop-color:#373334"/>
					<stop  offset="1" style="stop-color:#231F20"/>
				</linearGradient>
				<polygon fill="url(#SVGID_6_)" points="-1826.1,-2149.6 -1826.1,-2140 -1783.2,-2163.6 -1783.2,-2173.2 				"/>
				
					<linearGradient id="SVGID_7_" gradientUnits="userSpaceOnUse" x1="-1874.5682" y1="-2156.7458" x2="-1826.1205" y2="-2156.7458">
					<stop  offset="0" style="stop-color:#FFFFFF"/>
					<stop  offset="0.2659" style="stop-color:#BDBCBD"/>
					<stop  offset="0.6236" style="stop-color:#6B6869"/>
					<stop  offset="0.8769" style="stop-color:#373334"/>
					<stop  offset="1" style="stop-color:#231F20"/>
				</linearGradient>
				<polygon fill="url(#SVGID_7_)" points="-1826.1,-2149.6 -1874.6,-2173.5 -1874.6,-2162.9 -1826.1,-2140 				"/>
				
					<linearGradient id="SVGID_8_" gradientUnits="userSpaceOnUse" x1="-1937.0496" y1="-2147.1731" x2="-1905.2139" y2="-2147.1731">
					<stop  offset="0" style="stop-color:#FFFFFF"/>
					<stop  offset="0.2659" style="stop-color:#BDBCBD"/>
					<stop  offset="0.6236" style="stop-color:#6B6869"/>
					<stop  offset="0.8769" style="stop-color:#373334"/>
					<stop  offset="1" style="stop-color:#231F20"/>
				</linearGradient>
				<polygon fill="url(#SVGID_8_)" points="-1937,-2158.8 -1937,-2146.8 -1917.5,-2135.6 -1905.2,-2142.2 				"/>
				
					<linearGradient id="SVGID_9_" gradientUnits="userSpaceOnUse" x1="-1907.2965" y1="-2189.6963" x2="-1859.6918" y2="-2189.6963">
					<stop  offset="0" style="stop-color:#FFFFFF"/>
					<stop  offset="0.2659" style="stop-color:#BDBCBD"/>
					<stop  offset="0.6236" style="stop-color:#6B6869"/>
					<stop  offset="0.8769" style="stop-color:#373334"/>
					<stop  offset="1" style="stop-color:#231F20"/>
				</linearGradient>
				<polygon fill="url(#SVGID_9_)" points="-1907.3,-2203.8 -1907.3,-2193.2 -1870.9,-2175.6 -1859.7,-2182 				"/>
				
					<linearGradient id="SVGID_10_" gradientUnits="userSpaceOnUse" x1="-1983.3154" y1="-2181.7642" x2="-1907.2965" y2="-2181.7642">
					<stop  offset="0" style="stop-color:#FFFFFF"/>
					<stop  offset="0.2659" style="stop-color:#BDBCBD"/>
					<stop  offset="0.6236" style="stop-color:#6B6869"/>
					<stop  offset="0.8769" style="stop-color:#373334"/>
					<stop  offset="1" style="stop-color:#231F20"/>
				</linearGradient>
				<polygon fill="url(#SVGID_10_)" points="-1907.3,-2193.2 -1971.5,-2159.7 -1983.3,-2166 -1907.3,-2203.8 				"/>
				
					<linearGradient id="SVGID_11_" gradientUnits="userSpaceOnUse" x1="-1921.6523" y1="-2108.9429" x2="-1858.0554" y2="-2108.9429">
					<stop  offset="0" style="stop-color:#FFFFFF"/>
					<stop  offset="0.2659" style="stop-color:#BDBCBD"/>
					<stop  offset="0.6236" style="stop-color:#6B6869"/>
					<stop  offset="0.8769" style="stop-color:#373334"/>
					<stop  offset="1" style="stop-color:#231F20"/>
				</linearGradient>
				<polygon fill="url(#SVGID_11_)" points="-1921.7,-2096.6 -1921.7,-2085 -1858.1,-2121.6 -1858.1,-2132.9 				"/>
				
					<linearGradient id="SVGID_12_" gradientUnits="userSpaceOnUse" x1="-1921.6523" y1="-2095.9502" x2="-1864.1051" y2="-2095.9502">
					<stop  offset="0" style="stop-color:#231F20"/>
					<stop  offset="0.1231" style="stop-color:#373334"/>
					<stop  offset="0.3764" style="stop-color:#6B6869"/>
					<stop  offset="0.7341" style="stop-color:#BDBCBD"/>
					<stop  offset="1" style="stop-color:#FFFFFF"/>
				</linearGradient>
				<polygon fill="url(#SVGID_12_)" points="-1921.7,-2085 -1911.3,-2079.5 -1864.1,-2107.4 -1874,-2112.4 				"/>
				
					<linearGradient id="SVGID_13_" gradientUnits="userSpaceOnUse" x1="-1907.7809" y1="-1927.4633" x2="-1925.0231" y2="-2075.7383">
					<stop  offset="0" style="stop-color:#231F20"/>
					<stop  offset="0.1231" style="stop-color:#373334"/>
					<stop  offset="0.3764" style="stop-color:#6B6869"/>
					<stop  offset="0.7341" style="stop-color:#BDBCBD"/>
					<stop  offset="1" style="stop-color:#FFFFFF"/>
				</linearGradient>
				<polygon fill="url(#SVGID_13_)" points="-1921.7,-2085 -1921.7,-1924.6 -1912.1,-1918 -1911.3,-2079.5 				"/>
				<polygon fill="#B9B9BA" points="-1826.1,-2140 -1828.4,-2083.8 -1819.3,-2077.8 -1817.3,-2135.3 				"/>
				<linearGradient id="SVGID_14_" gradientUnits="userSpaceOnUse" x1="-2060.0781" y1="-2129.77" x2="-1921.6523" y2="-2129.77">
					<stop  offset="0" style="stop-color:#FFFFFF"/>
					<stop  offset="0.2659" style="stop-color:#BDBCBD"/>
					<stop  offset="0.6236" style="stop-color:#6B6869"/>
					<stop  offset="0.8769" style="stop-color:#373334"/>
					<stop  offset="1" style="stop-color:#231F20"/>
				</linearGradient>
				<polygon fill="url(#SVGID_14_)" points="-2060.1,-2174.5 -2060.1,-2163.5 -1921.7,-2085 -1921.7,-2096.6 				"/>
				
					<linearGradient id="SVGID_15_" gradientUnits="userSpaceOnUse" x1="-1928.3792" y1="-2084.9805" x2="-1926.2622" y2="-2024.1079">
					<stop  offset="0" style="stop-color:#231F20"/>
					<stop  offset="0.1231" style="stop-color:#373334"/>
					<stop  offset="0.3764" style="stop-color:#6B6869"/>
					<stop  offset="0.7341" style="stop-color:#BDBCBD"/>
					<stop  offset="1" style="stop-color:#FFFFFF"/>
				</linearGradient>
				<polygon fill="url(#SVGID_15_)" points="-1921.7,-2085 -1933,-2080.2 -1933,-2024.1 -1921.7,-2030.1 				"/>
				
					<linearGradient id="SVGID_16_" gradientUnits="userSpaceOnUse" x1="-2069.5991" y1="-2121.8606" x2="-1921.6523" y2="-2121.8606">
					<stop  offset="0" style="stop-color:#231F20"/>
					<stop  offset="0.1231" style="stop-color:#373334"/>
					<stop  offset="0.3764" style="stop-color:#6B6869"/>
					<stop  offset="0.7341" style="stop-color:#BDBCBD"/>
					<stop  offset="1" style="stop-color:#FFFFFF"/>
				</linearGradient>
				<polygon fill="url(#SVGID_16_)" points="-2069.6,-2157.8 -2060.1,-2163.5 -1921.7,-2085 -1933,-2080.2 				"/>
				<linearGradient id="SVGID_17_" gradientUnits="userSpaceOnUse" x1="-1928.3103" y1="-1973.6071" x2="-1926.375" y2="-1918.186">
					<stop  offset="0" style="stop-color:#231F20"/>
					<stop  offset="0.1231" style="stop-color:#373334"/>
					<stop  offset="0.3764" style="stop-color:#6B6869"/>
					<stop  offset="0.7341" style="stop-color:#BDBCBD"/>
					<stop  offset="1" style="stop-color:#FFFFFF"/>
				</linearGradient>
				<polygon fill="url(#SVGID_17_)" points="-1932.5,-1968.2 -1921.7,-1973.8 -1921.7,-1924.6 -1933,-1918 				"/>
				<linearGradient id="SVGID_18_" gradientUnits="userSpaceOnUse" x1="-2017.74" y1="-2079.2065" x2="-2015.8208" y2="-2024.2465">
					<stop  offset="0" style="stop-color:#231F20"/>
					<stop  offset="0.1231" style="stop-color:#373334"/>
					<stop  offset="0.3764" style="stop-color:#6B6869"/>
					<stop  offset="0.7341" style="stop-color:#BDBCBD"/>
					<stop  offset="1" style="stop-color:#FFFFFF"/>
				</linearGradient>
				<polygon fill="url(#SVGID_18_)" points="-2012.8,-2072.7 -2010.5,-2029.1 -2019.8,-2024.1 -2023.2,-2079 				"/>
				
					<linearGradient id="SVGID_19_" gradientUnits="userSpaceOnUse" x1="-2019.8124" y1="-1998.6709" x2="-1921.6523" y2="-1998.6709">
					<stop  offset="0" style="stop-color:#231F20"/>
					<stop  offset="0.1231" style="stop-color:#373334"/>
					<stop  offset="0.3764" style="stop-color:#6B6869"/>
					<stop  offset="0.7341" style="stop-color:#BDBCBD"/>
					<stop  offset="1" style="stop-color:#FFFFFF"/>
				</linearGradient>
				<polygon fill="url(#SVGID_19_)" points="-1921.7,-1973.8 -2010.5,-2029.1 -2019.8,-2024.1 -1932.5,-1968.2 				"/>
			</g>
		</g>
		<g>
			<g>
				
					<linearGradient id="SVGID_20_" gradientUnits="userSpaceOnUse" x1="-2085.9453" y1="-1886.4292" x2="-2085.9453" y2="-1823.319">
					<stop  offset="0" style="stop-color:#FFFFFF"/>
					<stop  offset="6.810129e-002" style="stop-color:#DBDCDD"/>
					<stop  offset="9.819508e-002" style="stop-color:#EBEBEC"/>
					<stop  offset="0.1377" style="stop-color:#F6F7F7"/>
					<stop  offset="0.1933" style="stop-color:#FDFDFD"/>
					<stop  offset="0.3477" style="stop-color:#FFFFFF"/>
					<stop  offset="0.4182" style="stop-color:#FCFCFC"/>
					<stop  offset="0.4753" style="stop-color:#F2F2F2"/>
					<stop  offset="0.5275" style="stop-color:#E1E2E2"/>
					<stop  offset="0.5412" style="stop-color:#DBDCDD"/>
					<stop  offset="0.542" style="stop-color:#D7D8D9"/>
					<stop  offset="0.5473" style="stop-color:#C1C3C4"/>
					<stop  offset="0.5535" style="stop-color:#B0B2B5"/>
					<stop  offset="0.5613" style="stop-color:#A5A7A9"/>
					<stop  offset="0.5721" style="stop-color:#9EA0A3"/>
					<stop  offset="0.6022" style="stop-color:#9C9EA1"/>
					<stop  offset="1" style="stop-color:#404041"/>
				</linearGradient>
				<polygon fill="url(#SVGID_20_)" points="-2130.6,-1886.4 -2099.3,-1886.4 -2099.3,-1845.1 -2038.4,-1845.1 -2038.4,-1823.3 
					-2133.5,-1823.3 				"/>
				
					<linearGradient id="SVGID_21_" gradientUnits="userSpaceOnUse" x1="-2193.7075" y1="-1884.6445" x2="-2193.7075" y2="-1823.319">
					<stop  offset="0" style="stop-color:#FFFFFF"/>
					<stop  offset="6.810129e-002" style="stop-color:#DBDCDD"/>
					<stop  offset="9.819508e-002" style="stop-color:#EBEBEC"/>
					<stop  offset="0.1377" style="stop-color:#F6F7F7"/>
					<stop  offset="0.1933" style="stop-color:#FDFDFD"/>
					<stop  offset="0.3477" style="stop-color:#FFFFFF"/>
					<stop  offset="0.4182" style="stop-color:#FCFCFC"/>
					<stop  offset="0.4753" style="stop-color:#F2F2F2"/>
					<stop  offset="0.5275" style="stop-color:#E1E2E2"/>
					<stop  offset="0.5412" style="stop-color:#DBDCDD"/>
					<stop  offset="0.542" style="stop-color:#D7D8D9"/>
					<stop  offset="0.5473" style="stop-color:#C1C3C4"/>
					<stop  offset="0.5535" style="stop-color:#B0B2B5"/>
					<stop  offset="0.5613" style="stop-color:#A5A7A9"/>
					<stop  offset="0.5721" style="stop-color:#9EA0A3"/>
					<stop  offset="0.6022" style="stop-color:#9C9EA1"/>
					<stop  offset="1" style="stop-color:#404041"/>
				</linearGradient>
				<path fill="url(#SVGID_21_)" d="M-2237.4-1884.6l-7.5,61.3h32l0.4-20.9h68.7l1.1-40.4H-2237.4z M-2163.5-1858.8h-43.4v-14.1
					h43.4V-1858.8z"/>
				
					<linearGradient id="SVGID_22_" gradientUnits="userSpaceOnUse" x1="-1976.3643" y1="-1886.4292" x2="-1976.3643" y2="-1823.319">
					<stop  offset="0" style="stop-color:#FFFFFF"/>
					<stop  offset="6.810129e-002" style="stop-color:#DBDCDD"/>
					<stop  offset="9.819508e-002" style="stop-color:#EBEBEC"/>
					<stop  offset="0.1377" style="stop-color:#F6F7F7"/>
					<stop  offset="0.1933" style="stop-color:#FDFDFD"/>
					<stop  offset="0.3477" style="stop-color:#FFFFFF"/>
					<stop  offset="0.4182" style="stop-color:#FCFCFC"/>
					<stop  offset="0.4753" style="stop-color:#F2F2F2"/>
					<stop  offset="0.5275" style="stop-color:#E1E2E2"/>
					<stop  offset="0.5412" style="stop-color:#DBDCDD"/>
					<stop  offset="0.542" style="stop-color:#D7D8D9"/>
					<stop  offset="0.5473" style="stop-color:#C1C3C4"/>
					<stop  offset="0.5535" style="stop-color:#B0B2B5"/>
					<stop  offset="0.5613" style="stop-color:#A5A7A9"/>
					<stop  offset="0.5721" style="stop-color:#9EA0A3"/>
					<stop  offset="0.6022" style="stop-color:#9C9EA1"/>
					<stop  offset="1" style="stop-color:#404041"/>
				</linearGradient>
				<polygon fill="url(#SVGID_22_)" points="-2023.3,-1886.4 -1991.3,-1886.4 -1991.3,-1845.5 -1959.1,-1845.5 -1959.1,-1886.4 
					-1927.4,-1886.4 -1927.4,-1823.3 -2025.3,-1823.3 				"/>
				
					<linearGradient id="SVGID_23_" gradientUnits="userSpaceOnUse" x1="-1865.5404" y1="-1886.4292" x2="-1865.5404" y2="-1823.319">
					<stop  offset="0" style="stop-color:#FFFFFF"/>
					<stop  offset="6.810129e-002" style="stop-color:#DBDCDD"/>
					<stop  offset="9.819508e-002" style="stop-color:#EBEBEC"/>
					<stop  offset="0.1377" style="stop-color:#F6F7F7"/>
					<stop  offset="0.1933" style="stop-color:#FDFDFD"/>
					<stop  offset="0.3477" style="stop-color:#FFFFFF"/>
					<stop  offset="0.4182" style="stop-color:#FCFCFC"/>
					<stop  offset="0.4753" style="stop-color:#F2F2F2"/>
					<stop  offset="0.5275" style="stop-color:#E1E2E2"/>
					<stop  offset="0.5412" style="stop-color:#DBDCDD"/>
					<stop  offset="0.542" style="stop-color:#D7D8D9"/>
					<stop  offset="0.5473" style="stop-color:#C1C3C4"/>
					<stop  offset="0.5535" style="stop-color:#B0B2B5"/>
					<stop  offset="0.5613" style="stop-color:#A5A7A9"/>
					<stop  offset="0.5721" style="stop-color:#9EA0A3"/>
					<stop  offset="0.6022" style="stop-color:#9C9EA1"/>
					<stop  offset="1" style="stop-color:#404041"/>
				</linearGradient>
				<path fill="url(#SVGID_23_)" d="M-1815.9-1886.4h-99.2v63.1h34.7v-23.1l32,23.1h32.5v-8.2l-31.5-21.2h31.5V-1886.4z
					 M-1850.6-1859.1h-32.9v-14.4h32.9V-1859.1z"/>
				
					<linearGradient id="SVGID_24_" gradientUnits="userSpaceOnUse" x1="-1759.8699" y1="-1886.4292" x2="-1759.8699" y2="-1823.319">
					<stop  offset="0" style="stop-color:#FFFFFF"/>
					<stop  offset="6.810129e-002" style="stop-color:#DBDCDD"/>
					<stop  offset="9.819508e-002" style="stop-color:#EBEBEC"/>
					<stop  offset="0.1377" style="stop-color:#F6F7F7"/>
					<stop  offset="0.1933" style="stop-color:#FDFDFD"/>
					<stop  offset="0.3477" style="stop-color:#FFFFFF"/>
					<stop  offset="0.4182" style="stop-color:#FCFCFC"/>
					<stop  offset="0.4753" style="stop-color:#F2F2F2"/>
					<stop  offset="0.5275" style="stop-color:#E1E2E2"/>
					<stop  offset="0.5412" style="stop-color:#DBDCDD"/>
					<stop  offset="0.542" style="stop-color:#D7D8D9"/>
					<stop  offset="0.5473" style="stop-color:#C1C3C4"/>
					<stop  offset="0.5535" style="stop-color:#B0B2B5"/>
					<stop  offset="0.5613" style="stop-color:#A5A7A9"/>
					<stop  offset="0.5721" style="stop-color:#9EA0A3"/>
					<stop  offset="0.6022" style="stop-color:#9C9EA1"/>
					<stop  offset="1" style="stop-color:#404041"/>
				</linearGradient>
				<path fill="url(#SVGID_24_)" d="M-1710.5-1823.3l-4.1-63.1h-94.7l2.4,63.1h33.5v-14h30.9v14H-1710.5z M-1744-1853.2h-31.6v-12.4
					v-0.8h31.6V-1853.2z"/>
				<linearGradient id="SVGID_25_" gradientUnits="userSpaceOnUse" x1="-1651.168" y1="-1886.4292" x2="-1651.168" y2="-1823.319">
					<stop  offset="0" style="stop-color:#FFFFFF"/>
					<stop  offset="6.810129e-002" style="stop-color:#DBDCDD"/>
					<stop  offset="9.819508e-002" style="stop-color:#EBEBEC"/>
					<stop  offset="0.1377" style="stop-color:#F6F7F7"/>
					<stop  offset="0.1933" style="stop-color:#FDFDFD"/>
					<stop  offset="0.3477" style="stop-color:#FFFFFF"/>
					<stop  offset="0.4182" style="stop-color:#FCFCFC"/>
					<stop  offset="0.4753" style="stop-color:#F2F2F2"/>
					<stop  offset="0.5275" style="stop-color:#E1E2E2"/>
					<stop  offset="0.5412" style="stop-color:#DBDCDD"/>
					<stop  offset="0.542" style="stop-color:#D7D8D9"/>
					<stop  offset="0.5473" style="stop-color:#C1C3C4"/>
					<stop  offset="0.5535" style="stop-color:#B0B2B5"/>
					<stop  offset="0.5613" style="stop-color:#A5A7A9"/>
					<stop  offset="0.5721" style="stop-color:#9EA0A3"/>
					<stop  offset="0.6022" style="stop-color:#9C9EA1"/>
					<stop  offset="1" style="stop-color:#404041"/>
				</linearGradient>
				<polygon fill="url(#SVGID_25_)" points="-1703.5,-1886.4 -1697.2,-1823.3 -1598.8,-1823.3 -1599.7,-1839.5 -1668.1,-1840.2 
					-1671.5,-1886.4 				"/>
				
					<linearGradient id="SVGID_26_" gradientUnits="userSpaceOnUse" x1="-2206.8633" y1="-1870.6382" x2="-2163.4553" y2="-1870.6382">
					<stop  offset="0" style="stop-color:#FFFFFF"/>
					<stop  offset="0.2659" style="stop-color:#BDBCBD"/>
					<stop  offset="0.6236" style="stop-color:#6B6869"/>
					<stop  offset="0.8769" style="stop-color:#373334"/>
					<stop  offset="1" style="stop-color:#231F20"/>
				</linearGradient>
				<rect x="-2206.9" y="-1872.9" fill="url(#SVGID_26_)" width="43.4" height="4.4"/>
				
					<linearGradient id="SVGID_27_" gradientUnits="userSpaceOnUse" x1="-2244.8149" y1="-1821.4127" x2="-2210.1672" y2="-1821.4127">
					<stop  offset="0" style="stop-color:#FFFFFF"/>
					<stop  offset="0.2659" style="stop-color:#BDBCBD"/>
					<stop  offset="0.6236" style="stop-color:#6B6869"/>
					<stop  offset="0.8769" style="stop-color:#373334"/>
					<stop  offset="1" style="stop-color:#231F20"/>
				</linearGradient>
				<polygon fill="url(#SVGID_27_)" points="-2244.8,-1823.3 -2243.5,-1819.5 -2210.2,-1819.5 -2212.8,-1823.3 				"/>
				
					<linearGradient id="SVGID_28_" gradientUnits="userSpaceOnUse" x1="-2211.1221" y1="-1819.5065" x2="-2211.1221" y2="-1844.2476">
					<stop  offset="0" style="stop-color:#231F20"/>
					<stop  offset="0.1231" style="stop-color:#373334"/>
					<stop  offset="0.3764" style="stop-color:#6B6869"/>
					<stop  offset="0.7341" style="stop-color:#BDBCBD"/>
					<stop  offset="1" style="stop-color:#FFFFFF"/>
				</linearGradient>
				<polygon fill="url(#SVGID_28_)" points="-2210.2,-1819.5 -2209.4,-1840.2 -2212.4,-1844.2 -2212.8,-1823.3 				"/>
				
					<linearGradient id="SVGID_29_" gradientUnits="userSpaceOnUse" x1="-2212.4407" y1="-1842.2196" x2="-2143.6912" y2="-1842.2196">
					<stop  offset="0" style="stop-color:#231F20"/>
					<stop  offset="0.1231" style="stop-color:#373334"/>
					<stop  offset="0.3764" style="stop-color:#6B6869"/>
					<stop  offset="0.7341" style="stop-color:#BDBCBD"/>
					<stop  offset="1" style="stop-color:#FFFFFF"/>
				</linearGradient>
				<polyline fill="url(#SVGID_29_)" points="-2209.4,-1840.2 -2146.8,-1840.2 -2143.7,-1844.2 -2212.4,-1844.2 				"/>
				
					<linearGradient id="SVGID_30_" gradientUnits="userSpaceOnUse" x1="-2133.5061" y1="-1821.3181" x2="-2034.6632" y2="-1821.3181">
					<stop  offset="0" style="stop-color:#FFFFFF"/>
					<stop  offset="0.2659" style="stop-color:#BDBCBD"/>
					<stop  offset="0.6236" style="stop-color:#6B6869"/>
					<stop  offset="0.8769" style="stop-color:#373334"/>
					<stop  offset="1" style="stop-color:#231F20"/>
				</linearGradient>
				<polygon fill="url(#SVGID_30_)" points="-2133.5,-1823.3 -2132.1,-1819.3 -2034.7,-1819.3 -2038.4,-1823.3 				"/>
				
					<linearGradient id="SVGID_31_" gradientUnits="userSpaceOnUse" x1="-2036.5238" y1="-1845.0587" x2="-2036.5238" y2="-1819.3171">
					<stop  offset="0" style="stop-color:#FFFFFF"/>
					<stop  offset="0.2659" style="stop-color:#BDBCBD"/>
					<stop  offset="0.6236" style="stop-color:#6B6869"/>
					<stop  offset="0.8769" style="stop-color:#373334"/>
					<stop  offset="1" style="stop-color:#231F20"/>
				</linearGradient>
				<polygon fill="url(#SVGID_31_)" points="-2038.4,-1823.3 -2038.4,-1845.1 -2034.7,-1842.2 -2034.7,-1819.3 				"/>
				
					<linearGradient id="SVGID_32_" gradientUnits="userSpaceOnUse" x1="-2025.2892" y1="-1821.3181" x2="-1927.4393" y2="-1821.3181">
					<stop  offset="0" style="stop-color:#FFFFFF"/>
					<stop  offset="0.2659" style="stop-color:#BDBCBD"/>
					<stop  offset="0.6236" style="stop-color:#6B6869"/>
					<stop  offset="0.8769" style="stop-color:#373334"/>
					<stop  offset="1" style="stop-color:#231F20"/>
				</linearGradient>
				<polygon fill="url(#SVGID_32_)" points="-2025.3,-1823.3 -2023.3,-1819.3 -1930.1,-1819.3 -1927.4,-1823.3 				"/>
				<rect x="-1883.5" y="-1873.5" fill="#6B6B6B" width="32.9" height="4"/>
				<polygon fill="#6B6B6B" points="-1815.9,-1852.7 -1819.3,-1847.8 -1840.2,-1847.8 -1847.5,-1852.7 				"/>
				
					<linearGradient id="SVGID_33_" gradientUnits="userSpaceOnUse" x1="-1880.4545" y1="-1832.7288" x2="-1847.868" y2="-1832.7288">
					<stop  offset="0" style="stop-color:#FFFFFF"/>
					<stop  offset="0.2659" style="stop-color:#BDBCBD"/>
					<stop  offset="0.6236" style="stop-color:#6B6869"/>
					<stop  offset="0.8769" style="stop-color:#373334"/>
					<stop  offset="1" style="stop-color:#231F20"/>
				</linearGradient>
				<polygon fill="url(#SVGID_33_)" points="-1880.5,-1840.6 -1847.9,-1819 -1848.4,-1823.3 -1880.5,-1846.5 				"/>
				
					<linearGradient id="SVGID_34_" gradientUnits="userSpaceOnUse" x1="-1848.4441" y1="-1821.1559" x2="-1815.9486" y2="-1821.1559">
					<stop  offset="0" style="stop-color:#FFFFFF"/>
					<stop  offset="0.2659" style="stop-color:#BDBCBD"/>
					<stop  offset="0.6236" style="stop-color:#6B6869"/>
					<stop  offset="0.8769" style="stop-color:#373334"/>
					<stop  offset="1" style="stop-color:#231F20"/>
				</linearGradient>
				<polygon fill="url(#SVGID_34_)" points="-1815.9,-1823.3 -1817.2,-1819.2 -1847.9,-1819 -1848.4,-1823.3 				"/>
				
					<linearGradient id="SVGID_35_" gradientUnits="userSpaceOnUse" x1="-1915.1322" y1="-1821.3181" x2="-1880.4545" y2="-1821.3181">
					<stop  offset="0" style="stop-color:#FFFFFF"/>
					<stop  offset="0.2659" style="stop-color:#BDBCBD"/>
					<stop  offset="0.6236" style="stop-color:#6B6869"/>
					<stop  offset="0.8769" style="stop-color:#373334"/>
					<stop  offset="1" style="stop-color:#231F20"/>
				</linearGradient>
				<polygon fill="url(#SVGID_35_)" points="-1915.1,-1823.3 -1912.7,-1819.3 -1883.6,-1819.3 -1880.5,-1823.3 				"/>
				<rect x="-1775.7" y="-1866.4" fill="#6B6B6B" width="31.6" height="4.1"/>
				
					<linearGradient id="SVGID_36_" gradientUnits="userSpaceOnUse" x1="-1806.8547" y1="-1821.3451" x2="-1771.798" y2="-1821.3451">
					<stop  offset="0" style="stop-color:#FFFFFF"/>
					<stop  offset="0.2659" style="stop-color:#BDBCBD"/>
					<stop  offset="0.6236" style="stop-color:#6B6869"/>
					<stop  offset="0.8769" style="stop-color:#373334"/>
					<stop  offset="1" style="stop-color:#231F20"/>
				</linearGradient>
				<polygon fill="url(#SVGID_36_)" points="-1806.9,-1823.3 -1804.4,-1819.4 -1771.8,-1819.4 -1773.4,-1823.3 				"/>
				
					<linearGradient id="SVGID_37_" gradientUnits="userSpaceOnUse" x1="-1772.9277" y1="-1837.2875" x2="-1772.3015" y2="-1819.3536">
					<stop  offset="0" style="stop-color:#231F20"/>
					<stop  offset="0.1231" style="stop-color:#373334"/>
					<stop  offset="0.3764" style="stop-color:#6B6869"/>
					<stop  offset="0.7341" style="stop-color:#BDBCBD"/>
					<stop  offset="1" style="stop-color:#FFFFFF"/>
				</linearGradient>
				<polygon fill="url(#SVGID_37_)" points="-1773.4,-1837.3 -1771.8,-1832.1 -1771.8,-1819.4 -1773.4,-1823.3 				"/>
				
					<linearGradient id="SVGID_38_" gradientUnits="userSpaceOnUse" x1="-1773.3894" y1="-1834.6958" x2="-1742.4702" y2="-1834.6958">
					<stop  offset="0" style="stop-color:#FFFFFF"/>
					<stop  offset="0.2659" style="stop-color:#BDBCBD"/>
					<stop  offset="0.6236" style="stop-color:#6B6869"/>
					<stop  offset="0.8769" style="stop-color:#373334"/>
					<stop  offset="1" style="stop-color:#231F20"/>
				</linearGradient>
				<polygon fill="url(#SVGID_38_)" points="-1773.4,-1837.3 -1742.5,-1837.3 -1742.5,-1832.1 -1771.8,-1832.1 				"/>
				
					<linearGradient id="SVGID_39_" gradientUnits="userSpaceOnUse" x1="-1742.4702" y1="-1821.3451" x2="-1708.2773" y2="-1821.3451">
					<stop  offset="0" style="stop-color:#FFFFFF"/>
					<stop  offset="0.2659" style="stop-color:#BDBCBD"/>
					<stop  offset="0.6236" style="stop-color:#6B6869"/>
					<stop  offset="0.8769" style="stop-color:#373334"/>
					<stop  offset="1" style="stop-color:#231F20"/>
				</linearGradient>
				<polygon fill="url(#SVGID_39_)" points="-1742.5,-1823.3 -1741,-1819.4 -1708.3,-1819.4 -1710.5,-1823.3 				"/>
				
					<linearGradient id="SVGID_40_" gradientUnits="userSpaceOnUse" x1="-1714.5825" y1="-1852.9001" x2="-1708.2773" y2="-1852.9001">
					<stop  offset="0" style="stop-color:#231F20"/>
					<stop  offset="0.1231" style="stop-color:#373334"/>
					<stop  offset="0.3764" style="stop-color:#6B6869"/>
					<stop  offset="0.7341" style="stop-color:#BDBCBD"/>
					<stop  offset="1" style="stop-color:#FFFFFF"/>
				</linearGradient>
				<polygon fill="url(#SVGID_40_)" points="-1708.3,-1819.4 -1712.5,-1882.7 -1714.6,-1886.4 -1710.5,-1823.3 				"/>
				
					<linearGradient id="SVGID_41_" gradientUnits="userSpaceOnUse" x1="-1704.8217" y1="-1852.9001" x2="-1697.1829" y2="-1852.9001">
					<stop  offset="0" style="stop-color:#231F20"/>
					<stop  offset="0.1231" style="stop-color:#373334"/>
					<stop  offset="0.3764" style="stop-color:#6B6869"/>
					<stop  offset="0.7341" style="stop-color:#BDBCBD"/>
					<stop  offset="1" style="stop-color:#FFFFFF"/>
				</linearGradient>
				<polygon fill="url(#SVGID_41_)" points="-1703.5,-1886.4 -1704.8,-1878.5 -1699.1,-1819.4 -1697.2,-1823.3 				"/>
				
					<linearGradient id="SVGID_42_" gradientUnits="userSpaceOnUse" x1="-1699.1342" y1="-1821.3451" x2="-1598.7874" y2="-1821.3451">
					<stop  offset="0" style="stop-color:#231F20"/>
					<stop  offset="0.1231" style="stop-color:#373334"/>
					<stop  offset="0.3764" style="stop-color:#6B6869"/>
					<stop  offset="0.7341" style="stop-color:#BDBCBD"/>
					<stop  offset="1" style="stop-color:#FFFFFF"/>
				</linearGradient>
				<polygon fill="url(#SVGID_42_)" points="-1699.1,-1819.4 -1601.3,-1819.4 -1598.8,-1823.3 -1697.2,-1823.3 				"/>
			</g>
		</g>
	</g>
	<g>
		<g>
			<g>
				<circle fill="#FFFFFF" cx="204.3" cy="-724.5" r="12.2"/>
			</g>
			<g>
				<path fill="#FFFFFF" d="M204.3-708.6l4.4,4.4l-4.4,4.4l-4.4-4.4L204.3-708.6c-11.1,0-20.2,10.4-20.2,23.1
					c0,12.8,9,14.5,20.2,14.5c11.1,0,20.2-1.8,20.2-14.5C224.4-698.3,215.4-708.6,204.3-708.6z M204.3-675.6l-4.4-6.3l2-19.1
					l2.4,2.1l2.4-2.1l2,19.3L204.3-675.6z"/>
			</g>
		</g>
		<g>
			<path fill="#FFFFFF" d="M204.3-629c-41.3,0-74.9-33.6-74.9-74.9c0-41.3,33.6-74.9,74.9-74.9s74.9,33.6,74.9,74.9
				C279.2-662.6,245.6-629,204.3-629z M204.3-777.7c-40.7,0-73.9,33.1-73.9,73.9c0,40.7,33.1,73.9,73.9,73.9s73.9-33.1,73.9-73.9
				C278.2-744.6,245-777.7,204.3-777.7z"/>
		</g>
	</g>
	<g>
		<g>
			<path fill="#FFFFFF" d="M-183.1-629c-41.3,0-74.9-33.6-74.9-74.9c0-41.3,33.6-74.9,74.9-74.9s74.9,33.6,74.9,74.9
				C-108.2-662.6-141.8-629-183.1-629z M-183.1-777.7c-40.7,0-73.9,33.1-73.9,73.9c0,40.7,33.1,73.9,73.9,73.9s73.9-33.1,73.9-73.9
				C-109.2-744.6-142.3-777.7-183.1-777.7z"/>
		</g>
		<g>
			<g>
				<path fill="#FFFFFF" d="M-172.8-687.1c-2.7-2.7-6.5-4.4-10.6-4.4c-4.1,0-7.9,1.7-10.6,4.4l10.6,10.6L-172.8-687.1z"/>
			</g>
			<g>
				<path fill="#FFFFFF" d="M-183.4-719.1c11.7,0,22.4,4.8,30.1,12.5l3.9-3.9c-8.7-8.7-20.7-14.1-34-14.1
					c-13.2,0-25.3,5.4-33.9,14.1l3.9,3.9C-205.7-714.3-195.1-719.1-183.4-719.1z"/>
			</g>
			<g>
				<path fill="#FFFFFF" d="M-183.4-708.2c8.7,0,16.6,3.5,22.4,9.3l3.9-3.9c-6.7-6.7-16-10.9-26.2-10.9c-10.2,0-19.5,4.2-26.2,10.9
					l3.9,3.9C-200-704.6-192.1-708.2-183.4-708.2z"/>
			</g>
			<g>
				<path fill="#FFFFFF" d="M-183.4-697.2c5.7,0,10.9,2.3,14.6,6.1l3.9-3.9c-4.7-4.7-11.3-7.7-18.5-7.7c-7.2,0-13.8,2.9-18.5,7.7
					l3.9,3.9C-194.2-694.9-189.1-697.2-183.4-697.2z"/>
			</g>
		</g>
	</g>
	<g>
		<g>
			<path fill="#FFFFFF" d="M-413.5-15.1c-41.3,0-74.9-33.6-74.9-74.9c0-41.3,33.6-74.9,74.9-74.9s74.9,33.6,74.9,74.9
				C-338.6-48.7-372.2-15.1-413.5-15.1z M-413.5-163.9c-40.7,0-73.9,33.1-73.9,73.9c0,40.7,33.1,73.9,73.9,73.9s73.9-33.1,73.9-73.9
				C-339.6-130.7-372.8-163.9-413.5-163.9z"/>
		</g>
		<g>
			<g>
				<path fill="#FFFFFF" d="M-403.2-73.3c-2.7-2.7-6.5-4.4-10.6-4.4c-4.1,0-7.9,1.7-10.6,4.4l10.6,10.6L-403.2-73.3z"/>
			</g>
			<g>
				<path fill="#FFFFFF" d="M-413.8-105.2c11.7,0,22.4,4.8,30.1,12.5l3.9-3.9c-8.7-8.7-20.7-14.1-34-14.1
					c-13.2,0-25.3,5.4-33.9,14.1l3.9,3.9C-436.2-100.5-425.5-105.2-413.8-105.2z"/>
			</g>
			<g>
				<path fill="#FFFFFF" d="M-413.8-94.3c8.7,0,16.6,3.6,22.4,9.3l3.9-3.9c-6.7-6.7-16-10.9-26.2-10.9c-10.2,0-19.5,4.2-26.2,10.9
					l3.9,3.9C-430.4-90.8-422.5-94.3-413.8-94.3z"/>
			</g>
			<g>
				<path fill="#FFFFFF" d="M-413.8-83.4c5.7,0,10.9,2.3,14.6,6.1l3.9-3.9c-4.7-4.7-11.3-7.7-18.5-7.7c-7.2,0-13.8,2.9-18.5,7.7
					l3.9,3.9C-424.7-81-419.5-83.4-413.8-83.4z"/>
			</g>
		</g>
	</g>
	<g>
		<g>
			<path fill="#FFFFFF" d="M9.4-629c-41.3,0-74.9-33.6-74.9-74.9c0-41.3,33.6-74.9,74.9-74.9s74.9,33.6,74.9,74.9
				C84.2-662.6,50.7-629,9.4-629z M9.4-777.7c-40.7,0-73.9,33.1-73.9,73.9c0,40.7,33.1,73.9,73.9,73.9c40.7,0,73.9-33.1,73.9-73.9
				C83.2-744.6,50.1-777.7,9.4-777.7z"/>
		</g>
		<g>
			<g>
				<path fill="#FFFFFF" d="M29.3-720.7c-7.3,0-41.6,0-41.6,0s-5.3,0-5.3,5.3v32.2c0,0-1.2,5.7,7.7,5.7c9,0,41.1,0,41.1,0
					s4.9,0,4.9-6.9s0-31.8,0-31.8S36.7-720.7,29.3-720.7z M28.3-711.7c1.7,0,3.1,1.4,3.1,3.1s-1.4,3.1-3.1,3.1
					c-1.7,0-3.1-1.4-3.1-3.1S26.6-711.7,28.3-711.7z M28.3-704c1.7,0,3.1,1.4,3.1,3.1c0,1.7-1.4,3.1-3.1,3.1c-1.7,0-3.1-1.4-3.1-3.1
					C25.3-702.6,26.6-704,28.3-704z M21.6-695.1c0,6.7-5.4,12.2-12.1,12.2h-11c-6.7,0-12.1-5.5-12.1-12.2v-7.4
					c0-6.7,5.4-12.2,12.1-12.2h11c6.7,0,12.1,5.5,12.1,12.2V-695.1z M32.8-682.7h-8.7c-0.5,0-0.9-0.4-0.9-0.9c0-0.5,0.4-0.9,0.9-0.9
					h8.7c0.5,0,0.9,0.4,0.9,0.9C33.7-683.1,33.3-682.7,32.8-682.7z M32.8-686.5h-8.7c-0.5,0-0.9-0.4-0.9-0.9s0.4-0.9,0.9-0.9h8.7
					c0.5,0,0.9,0.4,0.9,0.9S33.3-686.5,32.8-686.5z"/>
			</g>
			<g>
				<path fill="#FFFFFF" d="M-7.7-670.9c1.3,0.1,4.1-5.2,4.1-5.2H-9C-9-673.2-9-671.1-7.7-670.9z"/>
			</g>
			<g>
				<path fill="#FFFFFF" d="M27.1-670.9c1.3-0.1,1.3-2.3,1.3-5.2H23C23-676.1,25.8-670.8,27.1-670.9z"/>
			</g>
			<g>
				<path fill="#FFFFFF" d="M5.5-722l3.2-0.1l-5.2-11.6c0,0-1.2-3.5-2.8-3c-1.6,0.4-0.1,2.6-0.1,2.6L5.5-722z"/>
			</g>
			<g>
				<path fill="#FFFFFF" d="M19.9-734.1c0,0,1.4-2.2-0.1-2.6c-1.6-0.4-2.8,3-2.8,3l-5.2,11.6l3.2,0.1L19.9-734.1z"/>
			</g>
		</g>
	</g>
	<g>
		<g>
			<path fill="#FFFFFF" d="M390.7-629c-41.3,0-74.9-33.6-74.9-74.9c0-41.3,33.6-74.9,74.9-74.9c41.3,0,74.9,33.6,74.9,74.9
				C465.6-662.6,432-629,390.7-629z M390.7-777.7c-40.7,0-73.9,33.1-73.9,73.9c0,40.7,33.1,73.9,73.9,73.9s73.9-33.1,73.9-73.9
				C464.6-744.6,431.4-777.7,390.7-777.7z"/>
		</g>
		<g>
			<g>
				<path fill="#FFFFFF" d="M403.8-733.6c-10.2-0.8-19.2,6.9-20,17.1s6.9,19.2,17.1,20c10.2,0.8,19.2-6.9,20-17.1
					C421.7-723.9,414-732.8,403.8-733.6z M410.1-722.8c2.5,0.2,4.3,2.4,4.1,4.8c0,0.1-0.1,0.3-0.1,0.4c-0.9-1.3-2.5-2.2-4.5-2.3
					c-1.7-0.1-3.3,0.4-4.4,1.3c0,0,0-0.1,0-0.1C405.5-721.2,407.6-723,410.1-722.8z M396.4-723.9c2.5,0.2,4.3,2.4,4.1,4.8
					c0,0.1-0.1,0.3-0.1,0.4c-0.9-1.3-2.5-2.2-4.5-2.3c-1.7-0.1-3.3,0.4-4.4,1.3c0,0,0-0.1,0-0.1
					C391.7-722.2,393.9-724.1,396.4-723.9z M401.4-702.5c-5.8-0.4-10.3-4.5-11.8-9.8c2.6,4,6.9,6.7,12,7.1c5.1,0.4,9.8-1.7,12.9-5.2
					C412.3-705.3,407.1-702,401.4-702.5z"/>
			</g>
			<g>
				<path fill="#FFFFFF" d="M380.3-711.7c-8.6-0.7-16.2,5.8-16.8,14.4c-0.7,8.6,5.8,16.2,14.4,16.8c8.6,0.7,16.2-5.8,16.8-14.4
					C395.4-703.5,388.9-711,380.3-711.7z M385.7-702.6c2.1,0.2,3.7,2,3.5,4.1c0,0.1,0,0.2-0.1,0.4c-0.8-1.1-2.1-1.8-3.8-2
					c-1.5-0.1-2.8,0.3-3.7,1.1c0,0,0-0.1,0-0.1C381.7-701.2,383.6-702.7,385.7-702.6z M374.1-703.5c2.1,0.2,3.7,2,3.5,4.1
					c0,0.1,0,0.2-0.1,0.4c-0.8-1.1-2.1-1.8-3.8-2c-1.5-0.1-2.8,0.3-3.7,1.1c0,0,0-0.1,0-0.1C370.2-702.1,372-703.6,374.1-703.5z
					 M378.3-685.4c-4.8-0.4-8.7-3.8-9.9-8.2c2.2,3.3,5.8,5.7,10.1,6c4.3,0.3,8.2-1.4,10.9-4.4C387.5-687.9,383.1-685.1,378.3-685.4z
					"/>
			</g>
			<g>
				<path fill="#FFFFFF" d="M371.2-735.3c-7.2,1.4-11.9,8.4-10.5,15.6c1.4,7.2,8.4,11.9,15.6,10.5s11.9-8.4,10.5-15.6
					C385.4-732,378.4-736.7,371.2-735.3z M377.7-729c1.8-0.3,3.4,0.8,3.8,2.6c0,0.1,0,0.2,0,0.3c-0.9-0.7-2.2-1-3.5-0.8
					c-1.2,0.2-2.2,0.9-2.8,1.8c0,0,0-0.1,0-0.1C374.8-727,375.9-728.7,377.7-729z M368-727.2c1.8-0.3,3.4,0.8,3.8,2.6
					c0,0.1,0,0.2,0,0.3c-0.9-0.7-2.2-1-3.5-0.8c-1.2,0.2-2.2,0.9-2.8,1.8c0,0,0-0.1,0-0.1C365.1-725.1,366.2-726.8,368-727.2z
					 M375.5-713.3c-4.1,0.8-8-1.2-10-4.5c2.5,2.2,6,3.3,9.6,2.6s6.4-3,7.9-6C382.5-717.4,379.5-714.1,375.5-713.3z"/>
			</g>
			<g>
				<path fill="#FFFFFF" d="M404.1-698.8c-7.4,0.3-13.1,6.5-12.8,13.9c0.3,7.4,6.5,13.1,13.9,12.8c7.4-0.3,13.1-6.5,12.8-13.9
					C417.7-693.4,411.5-699.1,404.1-698.8z M409.5-691.7c1.8-0.1,3.3,1.3,3.4,3.1c0,0.1,0,0.2,0,0.3c-0.8-0.8-2-1.3-3.4-1.3
					c-1.3,0.1-2.3,0.6-3,1.3c0,0,0-0.1,0-0.1C406.4-690.1,407.8-691.6,409.5-691.7z M399.7-691.3c1.8-0.1,3.3,1.3,3.4,3.1
					c0,0.1,0,0.2,0,0.3c-0.8-0.8-2-1.3-3.4-1.3c-1.3,0.1-2.3,0.6-3,1.3c0,0,0-0.1,0-0.1C396.5-689.7,397.9-691.2,399.7-691.3z
					 M405-676.5c-4.1,0.2-7.7-2.3-9.2-6c2.2,2.6,5.5,4.2,9.1,4c3.6-0.2,6.8-2,8.7-4.8C412.6-679.4,409.2-676.6,405-676.5z"/>
			</g>
		</g>
	</g>
	<g>
		<g>
			<g>
				<circle fill="#293794" cx="204.3" cy="-552.2" r="18.4"/>
			</g>
			<g>
				<path fill="#293794" d="M204.3-528.2l6.6,6.6l-6.6,6.6l-6.6-6.6L204.3-528.2c-16.8,0-30.4,15.6-30.4,34.8
					c0,19.2,13.6,21.9,30.4,21.9c16.8,0,30.4-2.6,30.4-21.9C234.7-512.6,221.1-528.2,204.3-528.2z M204.3-478.5l-6.6-9.6l3.1-28.8
					l3.6,3.2l3.6-3.2l3.1,29L204.3-478.5z"/>
			</g>
		</g>
		<g>
			<path fill="#FFFFFF" d="M204.3-446.2c-41.3,0-74.9-33.6-74.9-74.9c0-41.3,33.6-74.9,74.9-74.9s74.9,33.6,74.9,74.9
				C279.2-479.8,245.6-446.2,204.3-446.2z M204.3-594.9c-40.7,0-73.9,33.1-73.9,73.9c0,40.7,33.1,73.9,73.9,73.9
				s73.9-33.1,73.9-73.9C278.2-561.8,245-594.9,204.3-594.9z"/>
		</g>
	</g>
	<g>
		<g>
			<path fill="#FFFFFF" d="M-183.1-446.2c-41.3,0-74.9-33.6-74.9-74.9c0-41.3,33.6-74.9,74.9-74.9s74.9,33.6,74.9,74.9
				C-108.2-479.8-141.8-446.2-183.1-446.2z M-183.1-594.9c-40.7,0-73.9,33.1-73.9,73.9c0,40.7,33.1,73.9,73.9,73.9
				s73.9-33.1,73.9-73.9C-109.2-561.8-142.3-594.9-183.1-594.9z"/>
		</g>
		<g>
			<g>
				<path fill="#45AC0E" d="M-167.9-498.1c-4-4-9.5-6.4-15.5-6.4c-6.1,0-11.5,2.5-15.5,6.4l15.5,15.5L-167.9-498.1z"/>
			</g>
			<g>
				<path fill="#45AC0E" d="M-183.4-544.9c17.2,0,32.8,7,44,18.3l5.7-5.7c-12.7-12.7-30.3-20.6-49.7-20.6c-19.4,0-37,7.9-49.7,20.6
					l5.7,5.7C-216.1-537.9-200.5-544.9-183.4-544.9z"/>
			</g>
			<g>
				<path fill="#45AC0E" d="M-183.4-528.9c12.8,0,24.3,5.2,32.7,13.6l5.6-5.7c-9.8-9.8-23.4-15.9-38.4-15.9
					c-15,0-28.5,6.1-38.4,15.9l5.7,5.7C-207.7-523.7-196.1-528.9-183.4-528.9z"/>
			</g>
			<g>
				<path fill="#45AC0E" d="M-183.4-512.9c8.3,0,15.9,3.4,21.4,8.9l5.6-5.7c-6.9-6.9-16.5-11.2-27.1-11.2
					c-10.6,0-20.1,4.3-27.1,11.2l5.7,5.7C-199.3-509.5-191.7-512.9-183.4-512.9z"/>
			</g>
		</g>
	</g>
	<g>
		<g>
			<path fill="#FFFFFF" d="M75,149.8c-41.3,0-74.9-33.6-74.9-74.9C0.1,33.6,33.7,0,75,0s74.9,33.6,74.9,74.9
				C149.9,116.2,116.3,149.8,75,149.8z M75,1C34.3,1,1.1,34.1,1.1,74.9c0,40.7,33.1,73.9,73.9,73.9s73.9-33.1,73.9-73.9
				C148.9,34.1,115.7,1,75,1z"/>
		</g>
		<g>
			<g>
				<path fill="#45AC0E" d="M90.2,97.8c-4-4-9.5-6.4-15.5-6.4c-6.1,0-11.5,2.5-15.5,6.4l15.5,15.5L90.2,97.8z"/>
			</g>
			<g>
				<path fill="#45AC0E" d="M74.7,51c17.2,0,32.8,7,44,18.3l5.7-5.7C111.6,50.9,94.1,43,74.7,43c-19.4,0-37,7.9-49.7,20.6l5.7,5.7
					C41.9,58,57.5,51,74.7,51z"/>
			</g>
			<g>
				<path fill="#45AC0E" d="M74.7,67c12.8,0,24.3,5.2,32.7,13.6l5.6-5.7C103.2,65.1,89.7,59,74.7,59c-15,0-28.5,6.1-38.4,15.9
					l5.7,5.7C50.4,72.2,61.9,67,74.7,67z"/>
			</g>
			<g>
				<path fill="#45AC0E" d="M74.7,83c8.3,0,15.9,3.4,21.4,8.9l5.6-5.7C94.8,79.3,85.2,75,74.7,75c-10.6,0-20.1,4.3-27.1,11.2
					l5.7,5.7C58.8,86.4,66.3,83,74.7,83z"/>
			</g>
		</g>
	</g>
	<g>
		<g>
			<path fill="#FFFFFF" d="M9.4-446.2c-41.3,0-74.9-33.6-74.9-74.9c0-41.3,33.6-74.9,74.9-74.9s74.9,33.6,74.9,74.9
				C84.2-479.8,50.7-446.2,9.4-446.2z M9.4-594.9c-40.7,0-73.9,33.1-73.9,73.9c0,40.7,33.1,73.9,73.9,73.9
				c40.7,0,73.9-33.1,73.9-73.9C83.2-561.8,50.1-594.9,9.4-594.9z"/>
		</g>
		<g>
			<g>
				<path fill="#E17A00" d="M36.6-544c-10,0-56.7,0-56.7,0s-7.2,0-7.2,7.2v43.9c0,0-1.7,7.8,10.6,7.8c12.2,0,56.1,0,56.1,0
					s6.7,0,6.7-9.4s0-43.4,0-43.4S46.6-544,36.6-544z M35.2-531.7c2.3,0,4.2,1.9,4.2,4.2c0,2.3-1.9,4.2-4.2,4.2
					c-2.3,0-4.2-1.9-4.2-4.2C31.1-529.9,32.9-531.7,35.2-531.7z M35.2-521.2c2.3,0,4.2,1.9,4.2,4.2c0,2.3-1.9,4.2-4.2,4.2
					c-2.3,0-4.2-1.9-4.2-4.2C31.1-519.3,32.9-521.2,35.2-521.2z M26-509c0,9.2-7.4,16.6-16.5,16.6H-5.5c-9.1,0-16.5-7.4-16.5-16.6
					v-10c0-9.2,7.4-16.6,16.5-16.6H9.6c9.1,0,16.5,7.4,16.5,16.6V-509z M41.3-492.2H29.5c-0.7,0-1.2-0.6-1.2-1.2
					c0-0.7,0.6-1.2,1.2-1.2h11.8c0.7,0,1.2,0.6,1.2,1.2C42.5-492.7,42-492.2,41.3-492.2z M41.3-497.4H29.5c-0.7,0-1.2-0.6-1.2-1.2
					s0.6-1.2,1.2-1.2h11.8c0.7,0,1.2,0.6,1.2,1.2S42-497.4,41.3-497.4z"/>
			</g>
			<g>
				<path fill="#E17A00" d="M-13.9-476.1c1.8,0.2,5.5-7.1,5.5-7.1h-7.3C-15.7-479.3-15.7-476.3-13.9-476.1z"/>
			</g>
			<g>
				<path fill="#E17A00" d="M33.6-476.1c1.8-0.2,1.8-3.2,1.8-7.1H28C28-483.2,31.8-475.9,33.6-476.1z"/>
			</g>
			<g>
				<path fill="#E17A00" d="M4.1-545.8l4.4-0.2l-7.1-15.8c0,0-1.6-4.7-3.8-4.2c-2.2,0.6-0.2,3.6-0.2,3.6L4.1-545.8z"/>
			</g>
			<g>
				<path fill="#E17A00" d="M23.7-562.4c0,0,2-3-0.2-3.6c-2.2-0.6-3.8,4.2-3.8,4.2L12.6-546l4.3,0.2L23.7-562.4z"/>
			</g>
		</g>
	</g>
	<g>
		<g>
			<path fill="#FFFFFF" d="M390.7-446.2c-41.3,0-74.9-33.6-74.9-74.9c0-41.3,33.6-74.9,74.9-74.9c41.3,0,74.9,33.6,74.9,74.9
				C465.6-479.8,432-446.2,390.7-446.2z M390.7-594.9c-40.7,0-73.9,33.1-73.9,73.9c0,40.7,33.1,73.9,73.9,73.9s73.9-33.1,73.9-73.9
				C464.6-561.8,431.4-594.9,390.7-594.9z"/>
		</g>
		<g>
			<g>
				<path fill="#A94274" d="M408.7-561.9c-14.1-1.1-26.3,9.4-27.4,23.5c-1.1,14.1,9.4,26.3,23.5,27.4c14.1,1.1,26.3-9.4,27.4-23.5
					C433.2-548.5,422.7-560.8,408.7-561.9z M417.4-547.1c3.4,0.3,6,3.2,5.7,6.6c0,0.2-0.1,0.4-0.1,0.6c-1.3-1.7-3.5-3-6.1-3.2
					c-2.4-0.2-4.6,0.6-6.1,1.8c0-0.1,0-0.1,0-0.2C411-544.8,413.9-547.4,417.4-547.1z M398.5-548.5c3.4,0.3,6,3.2,5.7,6.6
					c0,0.2-0.1,0.4-0.1,0.6c-1.3-1.7-3.5-3-6.1-3.2c-2.4-0.2-4.6,0.6-6.1,1.8c0-0.1,0-0.1,0-0.2
					C392.1-546.3,395.1-548.8,398.5-548.5z M405.3-519.2c-7.9-0.6-14.2-6.2-16.1-13.4c3.5,5.4,9.5,9.2,16.4,9.8s13.4-2.3,17.7-7.1
					C420.3-523.1,413.2-518.6,405.3-519.2z"/>
			</g>
			<g>
				<path fill="#A94274" d="M376.5-531.8c-11.8-0.9-22.2,7.9-23.1,19.8c-0.9,11.8,7.9,22.2,19.8,23.1c11.8,0.9,22.2-7.9,23.1-19.8
					C397.1-520.5,388.3-530.8,376.5-531.8z M383.8-519.3c2.9,0.2,5,2.7,4.8,5.6c0,0.2-0.1,0.3-0.1,0.5c-1.1-1.5-2.9-2.5-5.2-2.7
					c-2-0.2-3.9,0.5-5.1,1.5c0,0,0-0.1,0-0.1C378.4-517.4,380.9-519.5,383.8-519.3z M367.9-520.5c2.9,0.2,5,2.7,4.8,5.6
					c0,0.2-0.1,0.3-0.1,0.5c-1.1-1.5-2.9-2.5-5.2-2.7c-2-0.2-3.9,0.5-5.1,1.5c0,0,0-0.1,0-0.1C362.5-518.6,365.1-520.7,367.9-520.5z
					 M373.7-495.8c-6.6-0.5-12-5.2-13.6-11.3c3,4.6,8,7.8,13.8,8.2c5.9,0.5,11.3-1.9,14.9-6C386.3-499.1,380.3-495.3,373.7-495.8z"
					/>
			</g>
			<g>
				<path fill="#A94274" d="M364-564.2c-9.9,1.9-16.4,11.5-14.5,21.4c1.9,9.9,11.5,16.4,21.4,14.5s16.4-11.5,14.5-21.4
					C383.5-559.6,373.9-566.1,364-564.2z M372.8-555.6c2.4-0.5,4.7,1.1,5.2,3.5c0,0.1,0,0.3,0,0.4c-1.2-1-3-1.4-4.9-1.1
					c-1.7,0.3-3.1,1.3-3.9,2.4c0,0,0-0.1,0-0.1C368.8-552.8,370.4-555.1,372.8-555.6z M359.5-553c2.4-0.5,4.7,1.1,5.2,3.5
					c0,0.1,0,0.3,0,0.4c-1.2-1-3-1.4-4.9-1.1c-1.7,0.3-3.1,1.3-3.9,2.4c0,0,0-0.1,0-0.1C355.5-550.2,357.1-552.6,359.5-553z
					 M369.8-534c-5.6,1.1-11-1.6-13.7-6.2c3.5,3.1,8.3,4.6,13.2,3.6s8.8-4.1,10.9-8.3C379.4-539.6,375.4-535.1,369.8-534z"/>
			</g>
			<g>
				<path fill="#A94274" d="M409.1-514.1c-10.1,0.4-17.9,8.9-17.5,19c0.4,10.1,8.9,17.9,19,17.5c10.1-0.4,17.9-8.9,17.5-19
					C427.7-506.7,419.2-514.5,409.1-514.1z M416.6-504.3c2.4-0.1,4.5,1.8,4.6,4.2c0,0.1,0,0.3,0,0.4c-1-1.1-2.7-1.8-4.6-1.8
					c-1.7,0.1-3.2,0.8-4.2,1.8c0,0,0-0.1,0-0.1C412.2-502.2,414.1-504.2,416.6-504.3z M403-503.8c2.4-0.1,4.5,1.8,4.6,4.2
					c0,0.1,0,0.3,0,0.4c-1-1.1-2.7-1.8-4.6-1.8c-1.7,0.1-3.2,0.8-4.2,1.8c0,0,0-0.1,0-0.1C398.7-501.6,400.6-503.7,403-503.8z
					 M410.4-483.4c-5.7,0.2-10.6-3.2-12.6-8.2c3,3.6,7.5,5.8,12.5,5.6c5-0.2,9.3-2.8,12-6.6C420.7-487.5,416.1-483.7,410.4-483.4z"
					/>
			</g>
		</g>
	</g>
	<g>
		<circle fill="none" stroke="#414042" stroke-miterlimit="10" cx="-31.5" cy="-877.6" r="33.8"/>
		<polyline fill="none" stroke="#414042" stroke-miterlimit="10" points="-49.6,-868.6 -31.5,-886.6 -13.5,-868.6 		"/>
	</g>
	<path fill="none" stroke="#FFFFFF" stroke-miterlimit="10" d="M-174.1-853.7"/>
	<text transform="matrix(1 0 0 1 52.0093 191.8699)" fill="#FFFFFF" font-family="'OpenSans'" font-size="30">ON</text>
</g>
<g id="Layer_3">
	<polygon fill="none" stroke="#231F20" stroke-miterlimit="10" points="1418.7,-488.4 1355.5,-571 1395.5,-667 1498.6,-680.4 
		1561.8,-597.8 1521.8,-501.8 	"/>
	<polygon fill="none" stroke="#231F20" stroke-miterlimit="10" points="1562.1,-597.8 1498.9,-680.4 1538.8,-776.4 1642,-789.8 
		1705.1,-707.2 1665.2,-611.2 	"/>
	<polygon fill="none" stroke="#231F20" stroke-miterlimit="10" points="1608.5,-240.6 1545.3,-323.2 1585.3,-419.2 1688.4,-432.6 
		1751.6,-350 1711.6,-254 	"/>
	<polygon fill="none" stroke="#231F20" stroke-miterlimit="10" points="1585.3,-419.2 1522.1,-501.8 1562.1,-597.8 1665.2,-611.2 
		1728.3,-528.6 1688.4,-432.6 	"/>
	<polygon fill="none" stroke="#231F20" stroke-miterlimit="10" points="1751.8,-350.1 1688.6,-432.7 1728.5,-528.7 1831.7,-542.1 
		1894.8,-459.5 1854.9,-363.5 	"/>
	<polygon fill="none" stroke="#231F20" stroke-miterlimit="10" points="1441.9,-309.8 1378.8,-392.4 1418.7,-488.4 1521.8,-501.8 
		1585,-419.2 1545,-323.2 	"/>
	<polygon fill="none" stroke="#231F20" stroke-miterlimit="10" points="1728.5,-528.7 1665.4,-611.2 1705.3,-707.3 1808.4,-720.7 
		1871.6,-638.1 1831.7,-542.1 	"/>
	<g>
		
			<radialGradient id="SVGID_43_" cx="922.1404" cy="-3032.0193" r="1277.6951" gradientTransform="matrix(1 0 0 1.4557 0 1381.7997)" gradientUnits="userSpaceOnUse">
			<stop  offset="0" style="stop-color:#FFFFFF"/>
			<stop  offset="0.4856" style="stop-color:#00A79D"/>
			<stop  offset="1" style="stop-color:#006862"/>
		</radialGradient>
		<rect x="-285.9" y="-2752" fill="url(#SVGID_43_)" width="2400" height="622"/>
		<pattern  id="SVGID_44_" xlink:href="#HEXAGON" patternTransform="matrix(1 0 0 1 -215.1116 -36.8249)">
		</pattern>
		<rect x="-285.9" y="-2752" fill="url(#SVGID_44_)" stroke="#231F20" stroke-miterlimit="10" width="2400" height="622"/>
	</g>
	<g>
		<linearGradient id="SVGID_45_" gradientUnits="userSpaceOnUse" x1="-534.1214" y1="-2788.3123" x2="1527.2849" y2="-1093.5504">
			<stop  offset="0" style="stop-color:#231F20"/>
			<stop  offset="0.3309" style="stop-color:#282425"/>
			<stop  offset="0.7455" style="stop-color:#353335"/>
			<stop  offset="1" style="stop-color:#414042"/>
		</linearGradient>
		<rect x="-288.4" y="-1910.7" fill="url(#SVGID_45_)" width="2400" height="622"/>
		<g opacity="0.18">
			<g>
				<g>
					<polygon fill="none" stroke="#FFFFFF" stroke-miterlimit="10" points="905.1,-1674.4 952.3,-1702.3 997.1,-1672.7 
						999.1,-1730.2 1042.4,-1753.9 1029,-1599.5 989.8,-1572.3 950.5,-1592.6 947.9,-1544.6 904.3,-1512.8 					"/>
					<polygon fill="none" stroke="#FFFFFF" stroke-miterlimit="10" points="905.1,-1674.4 952.3,-1702.3 997.1,-1672.7 
						999.1,-1730.2 1042.4,-1753.9 1029,-1599.5 989.8,-1572.3 950.5,-1592.6 947.9,-1544.6 904.3,-1512.8 					"/>
					<polygon fill="none" stroke="#FFFFFF" stroke-miterlimit="10" points="746.8,-1752.6 883.4,-1675.1 883.4,-1619 793.2,-1673.9 
						796.6,-1619 883.8,-1563.1 883.4,-1512.8 759.3,-1599.5 					"/>
					<polygon fill="none" stroke="#FFFFFF" stroke-miterlimit="10" points="879.3,-1753.6 911.2,-1737.1 894.4,-1728 833.1,-1760.9 
						909.1,-1798.7 956.7,-1776.8 941.8,-1768.4 990.3,-1744.5 1033.2,-1768.1 894.7,-1832 756.3,-1769.4 894.7,-1691.4 
						958.3,-1727.7 894.7,-1760.2 					"/>
					<polygon fill="none" stroke="#FFFFFF" stroke-miterlimit="10" points="990.3,-1734.9 999.1,-1730.2 1042.4,-1753.9 
						1033.2,-1758.5 					"/>
					<polygon fill="none" stroke="#FFFFFF" stroke-miterlimit="10" points="990.3,-1744.5 990.3,-1734.9 1033.2,-1758.5 
						1033.2,-1768.1 					"/>
					<polygon fill="none" stroke="#FFFFFF" stroke-miterlimit="10" points="990.3,-1744.5 941.8,-1768.4 941.8,-1757.8 
						990.3,-1734.9 					"/>
					<polygon fill="none" stroke="#FFFFFF" stroke-miterlimit="10" points="879.3,-1753.6 879.3,-1741.6 898.9,-1730.5 
						911.2,-1737.1 					"/>
					<polygon fill="none" stroke="#FFFFFF" stroke-miterlimit="10" points="909.1,-1798.7 909.1,-1788 945.5,-1770.4 956.7,-1776.8 
											"/>
					<polygon fill="none" stroke="#FFFFFF" stroke-miterlimit="10" points="909.1,-1788 844.9,-1754.6 833.1,-1760.9 909.1,-1798.7 
											"/>
					<polygon fill="none" stroke="#FFFFFF" stroke-miterlimit="10" points="894.7,-1691.4 894.7,-1679.9 958.3,-1716.4 
						958.3,-1727.7 					"/>
					<polygon fill="none" stroke="#FFFFFF" stroke-miterlimit="10" points="894.7,-1679.9 905.1,-1674.4 952.3,-1702.3 
						942.4,-1707.3 					"/>
					<polygon fill="none" stroke="#FFFFFF" stroke-miterlimit="10" points="894.7,-1679.9 894.7,-1519.5 904.3,-1512.8 
						905.1,-1674.4 					"/>
					<polygon fill="none" stroke="#FFFFFF" stroke-miterlimit="10" points="990.3,-1734.9 988,-1678.7 997.1,-1672.7 999.1,-1730.2 
											"/>
					<polygon fill="none" stroke="#FFFFFF" stroke-miterlimit="10" points="756.3,-1769.4 756.3,-1758.4 894.7,-1679.9 
						894.7,-1691.4 					"/>
					<polygon fill="none" stroke="#FFFFFF" stroke-miterlimit="10" points="894.7,-1679.9 883.4,-1675.1 883.4,-1619 894.7,-1624.9 
											"/>
					<polygon fill="none" stroke="#FFFFFF" stroke-miterlimit="10" points="746.8,-1752.6 756.3,-1758.4 894.7,-1679.9 
						883.4,-1675.1 					"/>
					<polygon fill="none" stroke="#FFFFFF" stroke-miterlimit="10" points="883.8,-1563.1 894.7,-1568.7 894.7,-1519.5 
						883.4,-1512.8 					"/>
					<polygon fill="none" stroke="#FFFFFF" stroke-miterlimit="10" points="803.5,-1667.6 805.8,-1624 796.6,-1619 793.2,-1673.9 
											"/>
					<polygon fill="none" stroke="#FFFFFF" stroke-miterlimit="10" points="894.7,-1568.7 805.8,-1624 796.6,-1619 883.8,-1563.1 
											"/>
				</g>
			</g>
			<g>
				<g>
					<polygon fill="none" stroke="#FFFFFF" stroke-miterlimit="10" points="685.8,-1481.3 717.1,-1481.3 717.1,-1439.9 778,-1439.9 
						778,-1418.2 682.9,-1418.2 					"/>
					<path fill="none" stroke="#FFFFFF" stroke-miterlimit="10" d="M579-1479.5l-7.5,61.3h32l0.4-20.9h68.7l1.1-40.4H579z
						 M652.9-1453.7h-43.4v-14.1h43.4V-1453.7z"/>
					<polygon fill="none" stroke="#FFFFFF" stroke-miterlimit="10" points="793.1,-1481.3 825.1,-1481.3 825.1,-1440.4 
						857.3,-1440.4 857.3,-1481.3 888.9,-1481.3 888.9,-1418.2 791.1,-1418.2 					"/>
					<path fill="none" stroke="#FFFFFF" stroke-miterlimit="10" d="M1000.4-1481.3h-99.2v63.1h34.7v-23.1l32,23.1h32.5v-8.2
						l-31.5-21.2h31.5V-1481.3z M965.8-1454h-32.9v-14.4h32.9V-1454z"/>
					<path fill="none" stroke="#FFFFFF" stroke-miterlimit="10" d="M1105.9-1418.2l-4.1-63.1h-94.7l2.4,63.1h33.5v-14h30.9v14
						H1105.9z M1072.3-1448h-31.6v-12.4v-0.8h31.6V-1448z"/>
					<polygon fill="none" stroke="#FFFFFF" stroke-miterlimit="10" points="1112.8,-1481.3 1119.2,-1418.2 1217.6,-1418.2 
						1216.7,-1434.4 1148.3,-1435.1 1144.8,-1481.3 					"/>
					<rect x="609.5" y="-1467.7" fill="none" stroke="#FFFFFF" stroke-miterlimit="10" width="43.4" height="4.4"/>
					<polygon fill="none" stroke="#FFFFFF" stroke-miterlimit="10" points="571.6,-1418.2 572.9,-1414.4 606.2,-1414.4 
						603.6,-1418.2 					"/>
					<polygon fill="none" stroke="#FFFFFF" stroke-miterlimit="10" points="606.2,-1414.4 606.9,-1435.1 603.9,-1439.1 
						603.6,-1418.2 					"/>
					<polyline fill="none" stroke="#FFFFFF" stroke-miterlimit="10" points="606.9,-1435.1 669.6,-1435.1 672.7,-1439.1 
						603.9,-1439.1 					"/>
					<polygon fill="none" stroke="#FFFFFF" stroke-miterlimit="10" points="682.9,-1418.2 684.3,-1414.2 781.7,-1414.2 778,-1418.2 
											"/>
					<polygon fill="none" stroke="#FFFFFF" stroke-miterlimit="10" points="778,-1418.2 778,-1439.9 781.7,-1437.1 781.7,-1414.2 
											"/>
					<polygon fill="none" stroke="#FFFFFF" stroke-miterlimit="10" points="791.1,-1418.2 793.1,-1414.2 886.3,-1414.2 
						888.9,-1418.2 					"/>
					<rect x="932.9" y="-1468.4" fill="none" stroke="#FFFFFF" stroke-miterlimit="10" width="32.9" height="4"/>
					<polygon fill="none" stroke="#FFFFFF" stroke-miterlimit="10" points="1000.4,-1447.6 997.1,-1442.7 976.2,-1442.7 
						968.9,-1447.6 					"/>
					<polygon fill="none" stroke="#FFFFFF" stroke-miterlimit="10" points="935.9,-1435.5 968.5,-1413.9 967.9,-1418.2 
						935.9,-1441.3 					"/>
					<polygon fill="none" stroke="#FFFFFF" stroke-miterlimit="10" points="1000.4,-1418.2 999.2,-1414.1 968.5,-1413.9 
						967.9,-1418.2 					"/>
					<polygon fill="none" stroke="#FFFFFF" stroke-miterlimit="10" points="901.3,-1418.2 903.7,-1414.2 932.8,-1414.2 
						935.9,-1418.2 					"/>
					<rect x="1040.7" y="-1461.2" fill="none" stroke="#FFFFFF" stroke-miterlimit="10" width="31.6" height="4.1"/>
					<polygon fill="none" stroke="#FFFFFF" stroke-miterlimit="10" points="1009.5,-1418.2 1012,-1414.2 1044.6,-1414.2 
						1043,-1418.2 					"/>
					<polygon fill="none" stroke="#FFFFFF" stroke-miterlimit="10" points="1043,-1432.1 1044.6,-1427 1044.6,-1414.2 1043,-1418.2 
											"/>
					<polygon fill="none" stroke="#FFFFFF" stroke-miterlimit="10" points="1043,-1432.1 1073.9,-1432.1 1073.9,-1427 1044.6,-1427 
											"/>
					<polygon fill="none" stroke="#FFFFFF" stroke-miterlimit="10" points="1073.9,-1418.2 1075.4,-1414.2 1108.1,-1414.2 
						1105.9,-1418.2 					"/>
					<polyline fill="none" stroke="#FFFFFF" stroke-miterlimit="10" points="1101.8,-1481.3 1105.9,-1418.2 1108.1,-1414.2 
						1103.9,-1477.6 1101.8,-1481.3 					"/>
					<polyline fill="none" stroke="#FFFFFF" stroke-miterlimit="10" points="1117.3,-1414.2 1119.2,-1418.2 1112.8,-1481.3 					"/>
					<polyline fill="none" stroke="#FFFFFF" stroke-miterlimit="10" points="1112.8,-1481.3 1111.6,-1473.4 1117.3,-1414.2 					"/>
					<polyline fill="none" stroke="#FFFFFF" stroke-miterlimit="10" points="1117.3,-1414.2 1215.1,-1414.2 1217.6,-1418.2 
						1119.2,-1418.2 1117.3,-1414.2 					"/>
				</g>
			</g>
		</g>
	</g>
</g>
</svg>
