<?xml version="1.0" encoding="utf-8"?>
<!-- Generator: Adobe Illustrator 18.0.0, SVG Export Plug-In . SVG Version: 6.00 Build 0)  -->
<!DOCTYPE svg PUBLIC "-//W3C//DTD SVG 1.1//EN" "http://www.w3.org/Graphics/SVG/1.1/DTD/svg11.dtd">
<svg version="1.1" id="Layer_1" xmlns="http://www.w3.org/2000/svg" xmlns:xlink="http://www.w3.org/1999/xlink" x="0px" y="0px"
	 viewBox="0 0 200 200" enable-background="new 0 0 200 200" xml:space="preserve">
<g>
	<g>
		<path fill="#666666" d="M100,200C44.9,200,0,155.1,0,100C0,44.9,44.9,0,100,0s100,44.9,100,100C200,155.1,155.1,200,100,200z
			 M100,2.1C46,2.1,2.1,46,2.1,100S46,197.9,100,197.9s97.9-43.9,97.9-97.9S154,2.1,100,2.1z"/>
	</g>
	<g>
		<g>
			<g>
				<path fill="#808080" d="M53,116.9l-4.9-18.8l4.7-4.8l5.5,1.8l-1.4-6l4.7-4.5l3.2,18.3l-3.8,4.4l-4.6-1l1.1,5L53,116.9z
					 M48.8,98.3l4.4,17.1l3.4-4.1l-1.2-5.8l5.3,1.2l3.3-3.9l-2.9-16.7l-3.5,3.3l1.6,6.8L53,94.1L48.8,98.3z"/>
			</g>
			<g>
				<path fill="#808080" d="M53,116.9l-4.9-18.8l4.7-4.8l5.5,1.8l-1.4-6l4.7-4.5l3.2,18.3l-3.8,4.4l-4.6-1l1.1,5L53,116.9z
					 M48.8,98.3l4.4,17.1l3.4-4.1l-1.2-5.8l5.3,1.2l3.3-3.9l-2.9-16.7l-3.5,3.3l1.6,6.8L53,94.1L48.8,98.3z"/>
			</g>
			<g>
				<path fill="#808080" d="M51.3,117.3l-17.1-6.2l-6.2-17.4l18.2,4.8l1.9,7l-11.6-3.4l1.7,5.2l11.3,3.6L51.3,117.3z M34.8,110.5
					l15.5,5.7l-1.2-4.8l-11.3-3.6l-2.2-6.8l11.6,3.4l-1.4-5.4l-16.6-4.4L34.8,110.5z"/>
			</g>
			<g>
				<path fill="#808080" d="M46.9,97l-0.2,0l-18.3-4.7l14.1-11.5l18,3.2l-4.7,4.5l-6.9-1.4l1.4-1.4l-5.1-0.9l-6.7,5.9l6.9,1.6l1-0.9
					l-4.1-0.9l2.2-1.7l8.8,1.9L46.9,97z M29.9,91.9l16.8,4.3l5.4-5.3l-7.2-1.6L44.1,90l3.9,0.9L45.8,93l-8.6-2l7.9-7l6.7,1.2
					l-1.4,1.4l5.3,1.1l3.4-3.3l-16.4-2.9L29.9,91.9z"/>
			</g>
			<g>
				<path fill="#808080" d="M57.3,89.6l-1.9-0.4l4.6-4.4l2,0.4L57.3,89.6z M56.8,88.8l0.3,0.1l3.5-3.3l-0.3-0.1L56.8,88.8z"/>
			</g>
			<g>
				<path fill="#808080" d="M55.9,89.7l-0.5-1.8l4.6-4.4l0.5,1.8L55.9,89.7z M56.2,88.1l0.1,0.3l3.5-3.3l-0.1-0.3L56.2,88.1z"/>
			</g>
			<g>
				<path fill="#808080" d="M56.6,89.4l-6.8-1.3l-0.5-1.9l6.8,1.4L56.6,89.4z M50.3,87.6l5.3,1l-0.1-0.3l-5.3-1.1L50.3,87.6z"/>
			</g>
			<g>
				<path fill="#808080" d="M46.2,92.6l-2.9-0.8l-0.5-2.1l5.2,1.2L46.2,92.6z M43.9,91.2l2.1,0.6l0.6-0.5l-2.8-0.6L43.9,91.2z"/>
			</g>
			<g>
				<path fill="#808080" d="M50.2,86.8l-4.9-1l-0.5-1.9l7.1,1.2L50.2,86.8z M45.8,85.2L50,86l0.4-0.4l-4.7-0.8L45.8,85.2z"/>
			</g>
			<g>
				<path fill="#808080" d="M39.5,91.5l-2.3-0.6l8.2-7.2l0.5,1.9L39.5,91.5z M38.7,90.6l0.7,0.2l5.8-5.3l-0.1-0.4L38.7,90.6z"/>
			</g>
			<g>
				<path fill="#808080" d="M47,98.6l-0.5-2l6.5-6.4l0.5,2L47,98.6z M47.2,96.7l0.1,0.5l5.4-5.4l-0.1-0.5L47.2,96.7z"/>
			</g>
			<g>
				<path fill="#808080" d="M48.6,98.6l-2.1-0.5l5-5l2,0.4L48.6,98.6z M47.8,97.7l0.5,0.1l3.8-3.9l-0.5-0.1L47.8,97.7z"/>
			</g>
			<g>
				<path fill="#808080" d="M53.6,116.7l-2-0.7l-4.9-18.5l2.1,0.5L53.6,116.7z M52.1,115.4l0.5,0.2l-4.4-17.1l-0.6-0.1L52.1,115.4z"
					/>
			</g>
			<g>
				<path fill="#808080" d="M59.2,96.2l-1.9-0.7l-1.6-7l1.9,0.4L59.2,96.2z M57.8,95l0.4,0.1l-1.3-5.6l-0.4-0.1L57.8,95z"/>
			</g>
			<g>
				<path fill="#808080" d="M47.6,98.4l-18.4-4.8l-0.5-2l18.4,4.8L47.6,98.4z M29.8,93l16.9,4.4l-0.1-0.5l-16.9-4.4L29.8,93z"/>
			</g>
			<g>
				<path fill="#808080" d="M47.5,105.6l-1.9-7l1.7-1.3l1.8,6.8L47.5,105.6z M46.4,98.9l1.4,5.4l0.5-0.5l-1.4-5.4L46.4,98.9z"/>
			</g>
			<g>
				<path fill="#808080" d="M46.1,99.1L28,94.4l1.4-1.5l18.5,4.9L46.1,99.1z M29.3,94L46,98.4l0.4-0.3l-16.8-4.4L29.3,94z"/>
			</g>
			<g>
				<path fill="#808080" d="M50.6,117.4L49,111l1.6-1.5l1.6,6.2L50.6,117.4z M49.8,111.3l1.2,4.8l0.5-0.5l-1.3-4.7L49.8,111.3z"/>
			</g>
			<g>
				<path fill="#808080" d="M37.9,108.2l-2.4-7.1l2.1,0.6l1.7,5.1L37.9,108.2z M36.6,102.1l1.6,4.8l0.3-0.3l-1.4-4.4L36.6,102.1z"/>
			</g>
			<g>
				<path fill="#808080" d="M49.5,111.5l-12.1-3.9l1.5-1.4l12.2,3.7L49.5,111.5z M38.7,107.4l10.6,3.4l0.4-0.4L39,107.1L38.7,107.4z
					"/>
			</g>
		</g>
		<g>
			<path fill="#666666" d="M42.2,146.8c-4.2,0-7.9-2.8-9-6.9l-16.7-63c-1.3-4.9,1.6-10,6.6-11.3L52,57.9c0.8-0.2,1.6-0.3,2.4-0.3
				c4.2,0,7.9,2.8,9,6.9L80,127.5c0.6,2.4,0.3,4.9-1,7c-1.2,2.1-3.2,3.7-5.6,4.3l-28.9,7.7C43.8,146.7,43,146.8,42.2,146.8z
				 M54.4,59.7c-0.6,0-1.2,0.1-1.8,0.2l-28.9,7.7c-3.8,1-6.1,5-5.1,8.8l16.7,63c0.8,3.2,3.7,5.4,7,5.4c0.6,0,1.2-0.1,1.8-0.2
				l28.9-7.7c1.9-0.5,3.4-1.7,4.4-3.4c1-1.7,1.2-3.6,0.7-5.5L61.3,65C60.5,61.9,57.6,59.7,54.4,59.7z"/>
		</g>
		<g>
			<path fill="#666666" d="M36.4,138.9L19,73.5l40.4-10.7l17.3,65.4L36.4,138.9z M21.6,75l16.3,61.4l36.4-9.7L58,65.3L21.6,75z"/>
		</g>
		<g>
			<g>
				<path fill="#808080" d="M57.5,141.5c-2,0-3.7-1.3-4.2-3.2c-0.6-2.3,0.8-4.7,3.1-5.3c0.4-0.1,0.7-0.1,1.1-0.1
					c2,0,3.7,1.3,4.2,3.2c0.3,1.1,0.1,2.3-0.4,3.3c-0.6,1-1.5,1.7-2.6,2C58.3,141.4,57.9,141.5,57.5,141.5z M57.5,133.4
					c-0.3,0-0.6,0-0.9,0.1c-2,0.5-3.1,2.5-2.6,4.5c0.4,1.6,1.9,2.7,3.5,2.7c0.3,0,0.6,0,0.9-0.1c0.9-0.2,1.7-0.9,2.2-1.7
					c0.5-0.8,0.6-1.8,0.4-2.8C60.6,134.6,59.2,133.4,57.5,133.4z"/>
			</g>
			<g>
				<path fill="#808080" d="M55.8,140.1l-1.2-4.7l4.7-1.2l1.2,4.7L55.8,140.1z M55.4,135.9l0.9,3.4l3.4-0.9l-0.9-3.4L55.4,135.9z"/>
			</g>
		</g>
	</g>
	<g>
		<g>
			<path fill="#808080" d="M98.8,73.8l-0.3-17l5-3.1l4.2,2.6l0.1-5.3l5-2.9l-1.1,16.2l-4.2,3l-3.7-1.8l-0.1,4.4L98.8,73.8z
				 M99.3,57.2l0.2,15.2l3.6-2.7l0.2-5.2l4.2,2.1l3.6-2.6l1-14.6l-3.5,2l-0.1,6.2l-4.9-3.1L99.3,57.2z"/>
		</g>
		<g>
			<path fill="#808080" d="M98.8,73.8l-0.3-17l5-3.1l4.2,2.6l0.1-5.3l5-2.9l-1.1,16.2l-4.2,3l-3.7-1.8l-0.1,4.4L98.8,73.8z
				 M99.3,57.2l0.2,15.2l3.6-2.7l0.2-5.2l4.2,2.1l3.6-2.6l1-14.6l-3.5,2l-0.1,6.2l-4.9-3.1L99.3,57.2z"/>
		</g>
		<g>
			<path fill="#808080" d="M97.4,73.8L84.2,65l-1.6-16l14.5,7.9l0.1,6.4l-9.1-5.3l0.4,4.6l8.8,5.4L97.4,73.8z M84.9,64.6l11.9,7.9
				l0-4.2L87.9,63l-0.5-6.3l9.1,5.3l-0.1-4.8l-13-7.1L84.9,64.6z"/>
		</g>
		<g>
			<path fill="#808080" d="M97.9,55.7l-14.7-7.9L97.6,41l14.7,6.4l-5,2.9l-5.6-2.6l1.4-0.9l-4-1.8l-6.8,3.5l5.4,2.8l0.9-0.5
				l-3.3-1.6l2.3-1l7.1,3.5L97.9,55.7z M84.7,47.9L97.8,55l5.6-3.3l-5.7-2.8L97,49.2l3.1,1.5l-2.4,1.3l-6.9-3.5l8.2-4.3l5.6,2.4
				l-1.5,0.9l4.1,1.9l3.5-2l-13.2-5.8L84.7,47.9z"/>
		</g>
		<g>
			<path fill="#808080" d="M108.2,51.7l-1.6-0.8l4.9-2.8l1.7,0.8L108.2,51.7z M108,50.8l0.2,0.1l3.5-2l-0.2-0.1L108,50.8z"/>
		</g>
		<g>
			<path fill="#808080" d="M107,51.4l0-1.7l4.9-2.8l0,1.7L107,51.4z M107.6,50.1l0,0.2l3.5-2l0-0.2L107.6,50.1z"/>
		</g>
		<g>
			<path fill="#808080" d="M107.6,51.4l-5.6-2.5l0-1.8l5.6,2.6L107.6,51.4z M102.8,48.4l4.2,1.9l0-0.2l-4.2-2L102.8,48.4z"/>
		</g>
		<g>
			<path fill="#808080" d="M98.2,51.8l-2.3-1.3l0-2l4.3,2.1L98.2,51.8z M96.6,50.2l1.6,0.9l0.5-0.3l-2.1-1L96.6,50.2z"/>
		</g>
		<g>
			<path fill="#808080" d="M102.8,47.8l-4-1.8l0-1.8l5.9,2.6L102.8,47.8z M99.4,45.5l3.3,1.5l0.4-0.2l-3.7-1.6L99.4,45.5z"/>
		</g>
		<g>
			<path fill="#808080" d="M92.8,49.5l-1.9-1l8.6-4.5l0,1.8L92.8,49.5z M92.3,48.5l0.4,0.2l6-3.3l0-0.3L92.3,48.5z"/>
		</g>
		<g>
			<path fill="#808080" d="M97.5,57.1l0-1.9l6.9-4.2l0,1.9L97.5,57.1z M98.2,55.5l0,0.4l5.6-3.4l0-0.3L98.2,55.5z"/>
		</g>
		<g>
			<path fill="#808080" d="M98.9,57.4l-1.8-0.9l5.4-3.2l1.7,0.8L98.9,57.4z M98.6,56.5l0.3,0.2l3.9-2.4l-0.3-0.1L98.6,56.5z"/>
		</g>
		<g>
			<path fill="#808080" d="M99.5,73.8l-1.7-1.1l-0.3-16.7l1.7,0.9L99.5,73.8z M98.5,72.3l0.3,0.2l-0.2-15.2l-0.4-0.2L98.5,72.3z"/>
		</g>
		<g>
			<path fill="#808080" d="M108.4,57.6l-1.6-1l0.1-6.3l1.6,0.8L108.4,57.6z M107.5,56.2l0.2,0.1l0.1-4.9l-0.2-0.1L107.5,56.2z"/>
		</g>
		<g>
			<path fill="#808080" d="M98.2,57.1l-14.6-7.9l0-1.9l14.6,7.9L98.2,57.1z M84.3,48.7l13.3,7.2l0-0.4l-13.3-7.1L84.3,48.7z"/>
		</g>
		<g>
			<path fill="#808080" d="M96.5,63.2l-0.1-6.4l1.8-0.8l0.1,6.2L96.5,63.2z M97.1,57.2l0.1,4.8l0.4-0.2L97.5,57L97.1,57.2z"/>
		</g>
		<g>
			<path fill="#808080" d="M96.7,57.4l-14.4-7.8l1.6-1l14.7,8L96.7,57.4z M83.7,49.5l13.1,7.1l0.3-0.1l-13.2-7.1L83.7,49.5z"/>
		</g>
		<g>
			<path fill="#808080" d="M96.7,73.8L96.7,68l1.8-0.9l0.1,5.7L96.7,73.8z M97.4,68.4l0,4.2l0.4-0.3l-0.1-4.1L97.4,68.4z"/>
		</g>
		<g>
			<path fill="#808080" d="M87.9,63.3l-0.5-6.7l1.8,1l0.3,4.7L87.9,63.3z M88.2,57.9l0.3,4.3l0.3-0.1l-0.3-3.9L88.2,57.9z"/>
		</g>
		<g>
			<path fill="#808080" d="M97,68.6l-9.5-5.8l1.6-0.9l9.7,5.7L97,68.6z M88.9,62.8l8.1,5l0.4-0.2l-8.3-4.9L88.9,62.8z"/>
		</g>
	</g>
	<g>
		<path fill="#666666" d="M150.2,90H67.4l-6.7-25.6c-0.8-3.2-3.7-5.5-7-5.5c-0.6,0-1.4,0-2,0.2L37,62.9V33.4c0-5.3,4.5-9.4,9.5-9.4
			h103.7c4.9,0,8.8,4.1,8.8,9.4v47C159,85.6,155.2,90,150.2,90z M69,88h81.2c3.9,0,6.8-3.5,6.8-7.6v-47c0-4.2-3-7.4-6.8-7.4H46.5
			c-3.8,0-7.5,3.2-7.5,7.4v26.9l12.2-3.2c0.8-0.2,1.7-0.3,2.5-0.3c4.2,0,7.9,3,9,7.1L69,88z"/>
	</g>
	<g>
		<path fill="#666666" d="M155,86H67.3l-5.9-22.2c-0.8-3.1-3.7-5.4-6.9-5.4c-0.6,0-1.6,0-2.2,0.2L41,61.5V28h114V86z M68.8,84H153
			V30H43v28.8l8.7-2.2c0.8-0.2,1.8-0.3,2.6-0.3c4.2,0,8,3,9,7L68.8,84z"/>
	</g>
	<g>
		<g>
			<g>
				<path fill="#808080" d="M136.8,139.5l-6.1-16l3.8-3l4.7,2.4l-1.7-4.9l3.8-2.8l4.6,15.3l-3,2.9l-3.9-1.6l1.3,4L136.8,139.5z
					 M131.5,123.7l5.5,14.5l2.4-2.5l-1.7-5.1l4.9,2l2.4-2.3l-4.2-14l-2.6,1.9l2.1,6l-5.8-3L131.5,123.7z"/>
			</g>
			<g>
				<path fill="#808080" d="M136.8,139.5l-6.1-16l3.8-3l4.7,2.4l-1.7-4.9l3.8-2.8l4.6,15.3l-3,2.9l-3.9-1.6l1.3,4L136.8,139.5z
					 M131.5,123.7l5.5,14.5l2.4-2.5l-1.7-5.1l4.9,2l2.4-2.3l-4.2-14l-2.6,1.9l2.1,6l-5.8-3L131.5,123.7z"/>
			</g>
			<g>
				<path fill="#808080" d="M135.6,139.6l-15.7-8.5l-7.2-15.4l16.6,7.5l2.4,6.2l-10.4-5l1.9,4.2l10.2,5.1L135.6,139.6z M120.4,130.7
					l13.9,7.5l-1.4-3.8l-10.2-5.1l-2.7-6.2l10.5,5.1l-1.7-4.4l-14.7-6.6L120.4,130.7z"/>
			</g>
			<g>
				<path fill="#808080" d="M129.5,122.4l-16.6-7.5l11.4-6.6l16.1,6.1l-3.8,2.8l-6.2-2.5l1.1-0.8l-4.5-1.7l-5.1,3.3l6.2,2.7l0.6-0.4
					l-3.7-1.5l2-1.1l7.9,3.2L129.5,122.4z M114.4,114.8l15,6.8l4-3.1l-6.4-2.7l-0.4,0.2l3.5,1.5l-1.9,1.4l-7.7-3.3l6.5-4.2l6,2.3
					l-1.1,0.8l4.7,1.9l2.5-1.8l-14.6-5.5L114.4,114.8z"/>
			</g>
			<g>
				<path fill="#808080" d="M137.9,118.5l-1.7-0.7l3.8-2.8l1.8,0.7L137.9,118.5z M137.6,117.6l0.3,0.1l2.5-1.8l-0.3-0.1L137.6,117.6
					z"/>
			</g>
			<g>
				<path fill="#808080" d="M136.7,118.2l-0.6-1.6l3.7-2.7l0.6,1.6L136.7,118.2z M137,116.9l0.1,0.2l2.6-1.9l-0.1-0.2L137,116.9z"/>
			</g>
			<g>
				<path fill="#808080" d="M137.5,118.3l-6.2-2.4l-0.7-1.9l6.3,2.5L137.5,118.3z M131.8,115.3l4.5,1.7l0,0l-4.5-1.8L131.8,115.3z"
					/>
			</g>
			<g>
				<path fill="#808080" d="M128.5,118.7l-2.5-1.2l-0.8-2l4.9,2.1L128.5,118.7z M126.5,117l1.9,0.9l0.3-0.2l-2.3-1L126.5,117z"/>
			</g>
			<g>
				<path fill="#808080" d="M131.4,114.8l-4.4-1.7l-0.7-1.9l6.6,2.5L131.4,114.8z M127.6,112.5l3.7,1.5l0.2-0.1l-4-1.5L127.6,112.5z
					"/>
			</g>
			<g>
				<path fill="#808080" d="M122.6,116.5l-2.1-0.9l6.7-4.3l0.6,1.7L122.6,116.5z M121.9,115.5l0.6,0.2l4.4-3l-0.1-0.4L121.9,115.5z"
					/>
			</g>
			<g>
				<path fill="#808080" d="M129.8,123.6l-0.7-1.8l5.2-4l0.7,1.7L129.8,123.6z M129.9,122.1l0.2,0.4l4.1-3.1L134,119L129.9,122.1z"
					/>
			</g>
			<g>
				<path fill="#808080" d="M131.1,124l-1.9-0.8l4.1-3.2l1.8,0.8L131.1,124z M130.6,123l0.4,0.2l2.8-2.2l-0.4-0.2L130.6,123z"/>
			</g>
			<g>
				<path fill="#808080" d="M137.5,139.6l-2.1-1.1l0-0.1l-6.1-15.9l2.1,0.9L137.5,139.6z M136,138l0.2,0.1l-5.4-14.3l-0.3-0.1
					L136,138z"/>
			</g>
			<g>
				<path fill="#808080" d="M140.4,124.2l-2-1l-2.1-6.2l1.9,0.8L140.4,124.2z M139,122.8l0.2,0.1l-1.6-4.5l-0.1-0.1L139,122.8z"/>
			</g>
			<g>
				<path fill="#808080" d="M130.5,123.7l-16.7-7.6l-0.7-2l16.7,7.5L130.5,123.7z M114.3,115.6l15,6.8l-0.1-0.2l-14.9-6.7
					L114.3,115.6z"/>
			</g>
			<g>
				<path fill="#808080" d="M130.9,129.4l-2.3-6l1.5-0.8l2.2,5.8L130.9,129.4z M129.5,123.7l1.8,4.6l0.3-0.2l-1.8-4.6L129.5,123.7z"
					/>
			</g>
			<g>
				<path fill="#808080" d="M129,123.9l-16.3-7.4l1.3-1l16.7,7.5L129,123.9z M114,116.4l15,6.8l0.1-0.1L114,116.4L114,116.4z"/>
			</g>
			<g>
				<path fill="#808080" d="M134.8,139.4l-2-5.5l1.4-0.9l2,5.3L134.8,139.4z M133.6,134.3l1.5,4.1l0.3-0.2l-1.5-4L133.6,134.3z"/>
			</g>
			<g>
				<path fill="#808080" d="M122.8,129.5l-2.9-6.4l2.2,1l2,4.5L122.8,129.5z M121.3,124.5l1.8,3.9l0.1-0.1l-1.6-3.7L121.3,124.5z"/>
			</g>
			<g>
				<path fill="#808080" d="M133.2,134.5l-10.9-5.5l1.3-0.9l11.1,5.4L133.2,134.5z M123.6,129l9.5,4.8l0.2-0.1L123.6,129L123.6,129z
					"/>
			</g>
		</g>
		<g>
			<g>
				<path fill="#666666" d="M182.7,152H94.1L74.3,96h88.6L182.7,152z M95.6,150h84.2l-18.3-52H77.3L95.6,150z"/>
			</g>
			<g>
				<path fill="#666666" d="M178.5,148H96L78.4,99.7h82.5l0.2,0.7L178.5,148z M97.5,145.9h78.1l-16.1-44.2H81.4L97.5,145.9z"/>
			</g>
		</g>
	</g>
</g>
</svg>
