<?xml version="1.0" encoding="utf-8"?>
<!-- Generator: Adobe Illustrator 18.0.0, SVG Export Plug-In . SVG Version: 6.00 Build 0)  -->
<!DOCTYPE svg PUBLIC "-//W3C//DTD SVG 1.1//EN" "http://www.w3.org/Graphics/SVG/1.1/DTD/svg11.dtd">
<svg version="1.1" xmlns="http://www.w3.org/2000/svg" xmlns:xlink="http://www.w3.org/1999/xlink" x="0px" y="0px"
	 viewBox="0 0 150 150" enable-background="new 0 0 150 150" xml:space="preserve">
<pattern  x="-311.1" y="-985.7" width="159.2" height="92.7" patternUnits="userSpaceOnUse" id="HEXAGON" viewBox="18.3 -124.1 159.2 92.7" overflow="visible">
	<g>
		<polygon fill="none" points="18.3,-124.1 177.5,-124.1 177.5,-31.5 18.3,-31.5 		"/>
		<g>
			<polygon fill="none" stroke="#187765" stroke-miterlimit="10" points="89,-124.4 80.2,-139.8 89,-155.1 106.8,-155.1 
				115.7,-139.8 106.8,-124.4 			"/>
		</g>
		<g>
			<polygon fill="none" stroke="#187765" stroke-miterlimit="10" points="9.4,-78.1 0.6,-93.4 9.4,-108.8 27.2,-108.8 36.1,-93.4 
				27.2,-78.1 			"/>
			<polygon fill="none" stroke="#187765" stroke-miterlimit="10" points="9.4,-108.8 0.6,-124.1 9.4,-139.5 27.2,-139.5 
				36.1,-124.1 27.2,-108.8 			"/>
			<polygon fill="none" stroke="#187765" stroke-miterlimit="10" points="36.1,-93.4 27.2,-108.8 36.1,-124.1 53.8,-124.1 
				62.7,-108.8 53.8,-93.4 			"/>
			<polygon fill="none" stroke="#187765" stroke-miterlimit="10" points="36.1,-124.1 27.2,-139.5 36.1,-154.9 53.8,-154.9 
				62.7,-139.5 53.8,-124.1 			"/>
		</g>
		<g>
			<polygon fill="none" stroke="#187765" stroke-miterlimit="10" points="62.4,-77.8 53.5,-93.2 62.4,-108.5 80.1,-108.5 89,-93.2 
				80.1,-77.8 			"/>
			<polygon fill="none" stroke="#187765" stroke-miterlimit="10" points="89,-93.2 80.2,-108.5 89,-123.9 106.8,-123.9 
				115.7,-108.5 106.8,-93.2 			"/>
			<polygon fill="none" stroke="#187765" stroke-miterlimit="10" points="89,-31.7 80.2,-47.1 89,-62.4 106.8,-62.4 115.7,-47.1 
				106.8,-31.7 			"/>
			<polygon fill="none" stroke="#187765" stroke-miterlimit="10" points="89,-62.4 80.2,-77.8 89,-93.2 106.8,-93.2 115.7,-77.8 
				106.8,-62.4 			"/>
			<polygon fill="none" stroke="#187765" stroke-miterlimit="10" points="115.7,-47.1 106.8,-62.4 115.7,-77.8 133.4,-77.8 
				142.3,-62.4 133.4,-47.1 			"/>
			<polygon fill="none" stroke="#187765" stroke-miterlimit="10" points="62.4,-47.1 53.5,-62.4 62.4,-77.8 80.1,-77.8 89,-62.4 
				80.1,-47.1 			"/>
			<polygon fill="none" stroke="#187765" stroke-miterlimit="10" points="115.7,-77.8 106.8,-93.2 115.7,-108.5 133.4,-108.5 
				142.3,-93.2 133.4,-77.8 			"/>
		</g>
		<g>
			<polygon fill="none" stroke="#187765" stroke-miterlimit="10" points="142,-124.1 133.1,-139.5 142,-154.9 159.7,-154.9 
				168.6,-139.5 159.7,-124.1 			"/>
			<polygon fill="none" stroke="#187765" stroke-miterlimit="10" points="168.6,-78.1 159.8,-93.4 168.6,-108.8 186.4,-108.8 
				195.3,-93.4 186.4,-78.1 			"/>
			<polygon fill="none" stroke="#187765" stroke-miterlimit="10" points="168.6,-108.8 159.8,-124.1 168.6,-139.5 186.4,-139.5 
				195.3,-124.1 186.4,-108.8 			"/>
			<polygon fill="none" stroke="#187765" stroke-miterlimit="10" points="142,-93.4 133.1,-108.8 142,-124.1 159.7,-124.1 
				168.6,-108.8 159.7,-93.4 			"/>
		</g>
		<g>
			<polygon fill="none" stroke="#187765" stroke-miterlimit="10" points="9.4,-46.8 0.6,-62.2 9.4,-77.6 27.2,-77.6 36.1,-62.2 
				27.2,-46.8 			"/>
			<polygon fill="none" stroke="#187765" stroke-miterlimit="10" points="9.4,-16.1 0.6,-31.5 9.4,-46.8 27.2,-46.8 36.1,-31.5 
				27.2,-16.1 			"/>
			<polygon fill="none" stroke="#187765" stroke-miterlimit="10" points="36.1,-0.8 27.2,-16.1 36.1,-31.5 53.8,-31.5 62.7,-16.1 
				53.8,-0.8 			"/>
			<polygon fill="none" stroke="#187765" stroke-miterlimit="10" points="36.1,-31.5 27.2,-46.8 36.1,-62.2 53.8,-62.2 62.7,-46.8 
				53.8,-31.5 			"/>
		</g>
		<g>
			<polygon fill="none" stroke="#187765" stroke-miterlimit="10" points="89,-0.5 80.2,-15.9 89,-31.2 106.8,-31.2 115.7,-15.9 
				106.8,-0.5 			"/>
		</g>
		<g>
			<polygon fill="none" stroke="#187765" stroke-miterlimit="10" points="142,-31.5 133.1,-46.8 142,-62.2 159.7,-62.2 168.6,-46.8 
				159.7,-31.5 			"/>
			<polygon fill="none" stroke="#187765" stroke-miterlimit="10" points="168.6,-46.8 159.8,-62.2 168.6,-77.6 186.4,-77.6 
				195.3,-62.2 186.4,-46.8 			"/>
			<polygon fill="none" stroke="#187765" stroke-miterlimit="10" points="168.6,-16.1 159.8,-31.5 168.6,-46.8 186.4,-46.8 
				195.3,-31.5 186.4,-16.1 			"/>
			<polygon fill="none" stroke="#187765" stroke-miterlimit="10" points="142,-0.8 133.1,-16.1 142,-31.5 159.7,-31.5 168.6,-16.1 
				159.7,-0.8 			"/>
		</g>
	</g>
</pattern>
<g id="Layer_1">
	<rect x="-309.3" y="-985.7" fill="#2D2D2D" width="839.9" height="595.3"/>
</g>
<g id="Layer_2">
	<g>
		<g>
			<g>
				<linearGradient id="SVGID_1_" gradientUnits="userSpaceOnUse" x1="-1878.5475" y1="-2099.8125" x2="-1808.1266" y2="-1977.84">
					<stop  offset="0" style="stop-color:#FFFFFF"/>
					<stop  offset="0.3254" style="stop-color:#E6E7E8"/>
					<stop  offset="0.7501" style="stop-color:#CBCDCE"/>
					<stop  offset="1" style="stop-color:#C1C3C5"/>
				</linearGradient>
				<polygon fill="url(#SVGID_1_)" points="-1911.3,-2079.4 -1864.1,-2107.2 -1819.3,-2077.7 -1817.3,-2135.2 -1774,-2158.9 
					-1787.3,-2004.5 -1826.6,-1977.3 -1865.9,-1997.5 -1868.5,-1949.5 -1912.1,-1917.8 				"/>
				
					<linearGradient id="SVGID_2_" gradientUnits="userSpaceOnUse" x1="-1878.5475" y1="-2099.8125" x2="-1808.1266" y2="-1977.8401">
					<stop  offset="0" style="stop-color:#FFFFFF"/>
					<stop  offset="6.810129e-002" style="stop-color:#DBDCDD"/>
					<stop  offset="9.819508e-002" style="stop-color:#EBEBEC"/>
					<stop  offset="0.1377" style="stop-color:#F6F7F7"/>
					<stop  offset="0.1933" style="stop-color:#FDFDFD"/>
					<stop  offset="0.3477" style="stop-color:#FFFFFF"/>
					<stop  offset="0.4182" style="stop-color:#FCFCFC"/>
					<stop  offset="0.4753" style="stop-color:#F2F2F2"/>
					<stop  offset="0.5275" style="stop-color:#E1E2E2"/>
					<stop  offset="0.5412" style="stop-color:#DBDCDD"/>
					<stop  offset="0.542" style="stop-color:#D7D8D9"/>
					<stop  offset="0.5473" style="stop-color:#C1C3C4"/>
					<stop  offset="0.5535" style="stop-color:#B0B2B5"/>
					<stop  offset="0.5613" style="stop-color:#A5A7A9"/>
					<stop  offset="0.5721" style="stop-color:#9EA0A3"/>
					<stop  offset="0.6022" style="stop-color:#9C9EA1"/>
					<stop  offset="1" style="stop-color:#404041"/>
				</linearGradient>
				<polygon fill="url(#SVGID_2_)" points="-1911.3,-2079.4 -1864.1,-2107.2 -1819.3,-2077.7 -1817.3,-2135.2 -1774,-2158.9 
					-1787.3,-2004.5 -1826.6,-1977.3 -1865.9,-1997.5 -1868.5,-1949.5 -1912.1,-1917.8 				"/>
				
					<linearGradient id="SVGID_3_" gradientUnits="userSpaceOnUse" x1="-1965.9078" y1="-2099.0403" x2="-2036.1654" y2="-1977.3507">
					<stop  offset="0" style="stop-color:#FFFFFF"/>
					<stop  offset="6.810129e-002" style="stop-color:#DBDCDD"/>
					<stop  offset="9.819508e-002" style="stop-color:#EBEBEC"/>
					<stop  offset="0.1377" style="stop-color:#F6F7F7"/>
					<stop  offset="0.1933" style="stop-color:#FDFDFD"/>
					<stop  offset="0.3477" style="stop-color:#FFFFFF"/>
					<stop  offset="0.4182" style="stop-color:#FCFCFC"/>
					<stop  offset="0.4753" style="stop-color:#F2F2F2"/>
					<stop  offset="0.5275" style="stop-color:#E1E2E2"/>
					<stop  offset="0.5412" style="stop-color:#DBDCDD"/>
					<stop  offset="0.542" style="stop-color:#D7D8D9"/>
					<stop  offset="0.5473" style="stop-color:#C1C3C4"/>
					<stop  offset="0.5535" style="stop-color:#B0B2B5"/>
					<stop  offset="0.5613" style="stop-color:#A5A7A9"/>
					<stop  offset="0.5721" style="stop-color:#9EA0A3"/>
					<stop  offset="0.6022" style="stop-color:#9C9EA1"/>
					<stop  offset="1" style="stop-color:#404041"/>
				</linearGradient>
				<polygon fill="url(#SVGID_3_)" points="-2069.6,-2157.6 -1933,-2080.1 -1933,-2024 -2023.2,-2078.9 -2019.8,-2024 
					-1932.5,-1968.1 -1933,-1917.8 -2057.1,-2004.5 				"/>
				
					<linearGradient id="SVGID_4_" gradientUnits="userSpaceOnUse" x1="-1921.6523" y1="-2096.4241" x2="-1921.6523" y2="-2237.0071">
					<stop  offset="1.076729e-007" style="stop-color:#FFFFFF"/>
					<stop  offset="9.319066e-002" style="stop-color:#DBDCDD"/>
					<stop  offset="0.1178" style="stop-color:#E6E7E7"/>
					<stop  offset="0.1653" style="stop-color:#F4F4F5"/>
					<stop  offset="0.2231" style="stop-color:#FCFDFD"/>
					<stop  offset="0.319" style="stop-color:#FFFFFF"/>
					<stop  offset="0.389" style="stop-color:#FCFCFC"/>
					<stop  offset="0.4457" style="stop-color:#F2F2F2"/>
					<stop  offset="0.4975" style="stop-color:#E1E2E3"/>
					<stop  offset="0.5412" style="stop-color:#CCCECF"/>
					<stop  offset="0.5415" style="stop-color:#CCCECF"/>
					<stop  offset="0.587" style="stop-color:#E3E4E4"/>
					<stop  offset="0.6362" style="stop-color:#F3F3F3"/>
					<stop  offset="0.6918" style="stop-color:#FCFCFC"/>
					<stop  offset="0.767" style="stop-color:#FFFFFF"/>
					<stop  offset="0.8314" style="stop-color:#FCFCFC"/>
					<stop  offset="0.8753" style="stop-color:#F3F3F4"/>
					<stop  offset="0.9131" style="stop-color:#E4E4E5"/>
					<stop  offset="0.9474" style="stop-color:#CECFD1"/>
					<stop  offset="0.9791" style="stop-color:#B3B4B7"/>
					<stop  offset="1" style="stop-color:#9C9EA1"/>
				</linearGradient>
				<polygon fill="url(#SVGID_4_)" points="-1937,-2158.6 -1905.2,-2142.1 -1922,-2133 -1983.3,-2165.9 -1907.3,-2203.7 
					-1859.7,-2181.8 -1874.6,-2173.3 -1826.1,-2149.5 -1783.2,-2173 -1921.7,-2237 -2060.1,-2174.4 -1921.7,-2096.4 
					-1858.1,-2132.7 -1921.7,-2165.2 				"/>
				
					<linearGradient id="SVGID_5_" gradientUnits="userSpaceOnUse" x1="-1826.1205" y1="-2149.3225" x2="-1774.0032" y2="-2149.3225">
					<stop  offset="0" style="stop-color:#231F20"/>
					<stop  offset="0.1231" style="stop-color:#373334"/>
					<stop  offset="0.3764" style="stop-color:#6B6869"/>
					<stop  offset="0.7341" style="stop-color:#BDBCBD"/>
					<stop  offset="1" style="stop-color:#FFFFFF"/>
				</linearGradient>
				<polygon fill="url(#SVGID_5_)" points="-1826.1,-2139.9 -1817.3,-2135.2 -1774,-2158.9 -1783.2,-2163.5 				"/>
				
					<linearGradient id="SVGID_6_" gradientUnits="userSpaceOnUse" x1="-1826.1205" y1="-2156.4507" x2="-1783.2267" y2="-2156.4507">
					<stop  offset="0" style="stop-color:#FFFFFF"/>
					<stop  offset="0.2659" style="stop-color:#BDBCBD"/>
					<stop  offset="0.6236" style="stop-color:#6B6869"/>
					<stop  offset="0.8769" style="stop-color:#373334"/>
					<stop  offset="1" style="stop-color:#231F20"/>
				</linearGradient>
				<polygon fill="url(#SVGID_6_)" points="-1826.1,-2149.5 -1826.1,-2139.9 -1783.2,-2163.5 -1783.2,-2173 				"/>
				
					<linearGradient id="SVGID_7_" gradientUnits="userSpaceOnUse" x1="-1874.5682" y1="-2156.5996" x2="-1826.1205" y2="-2156.5996">
					<stop  offset="0" style="stop-color:#FFFFFF"/>
					<stop  offset="0.2659" style="stop-color:#BDBCBD"/>
					<stop  offset="0.6236" style="stop-color:#6B6869"/>
					<stop  offset="0.8769" style="stop-color:#373334"/>
					<stop  offset="1" style="stop-color:#231F20"/>
				</linearGradient>
				<polygon fill="url(#SVGID_7_)" points="-1826.1,-2149.5 -1874.6,-2173.3 -1874.6,-2162.8 -1826.1,-2139.9 				"/>
				
					<linearGradient id="SVGID_8_" gradientUnits="userSpaceOnUse" x1="-1937.0496" y1="-2147.0266" x2="-1905.2139" y2="-2147.0266">
					<stop  offset="0" style="stop-color:#FFFFFF"/>
					<stop  offset="0.2659" style="stop-color:#BDBCBD"/>
					<stop  offset="0.6236" style="stop-color:#6B6869"/>
					<stop  offset="0.8769" style="stop-color:#373334"/>
					<stop  offset="1" style="stop-color:#231F20"/>
				</linearGradient>
				<polygon fill="url(#SVGID_8_)" points="-1937,-2158.6 -1937,-2146.6 -1917.5,-2135.4 -1905.2,-2142.1 				"/>
				
					<linearGradient id="SVGID_9_" gradientUnits="userSpaceOnUse" x1="-1907.2965" y1="-2189.5498" x2="-1859.6918" y2="-2189.5498">
					<stop  offset="0" style="stop-color:#FFFFFF"/>
					<stop  offset="0.2659" style="stop-color:#BDBCBD"/>
					<stop  offset="0.6236" style="stop-color:#6B6869"/>
					<stop  offset="0.8769" style="stop-color:#373334"/>
					<stop  offset="1" style="stop-color:#231F20"/>
				</linearGradient>
				<polygon fill="url(#SVGID_9_)" points="-1907.3,-2203.7 -1907.3,-2193 -1870.9,-2175.4 -1859.7,-2181.8 				"/>
				
					<linearGradient id="SVGID_10_" gradientUnits="userSpaceOnUse" x1="-1983.3154" y1="-2181.6177" x2="-1907.2965" y2="-2181.6177">
					<stop  offset="0" style="stop-color:#FFFFFF"/>
					<stop  offset="0.2659" style="stop-color:#BDBCBD"/>
					<stop  offset="0.6236" style="stop-color:#6B6869"/>
					<stop  offset="0.8769" style="stop-color:#373334"/>
					<stop  offset="1" style="stop-color:#231F20"/>
				</linearGradient>
				<polygon fill="url(#SVGID_10_)" points="-1907.3,-2193 -1971.5,-2159.6 -1983.3,-2165.9 -1907.3,-2203.7 				"/>
				
					<linearGradient id="SVGID_11_" gradientUnits="userSpaceOnUse" x1="-1921.6523" y1="-2108.7964" x2="-1858.0554" y2="-2108.7964">
					<stop  offset="0" style="stop-color:#FFFFFF"/>
					<stop  offset="0.2659" style="stop-color:#BDBCBD"/>
					<stop  offset="0.6236" style="stop-color:#6B6869"/>
					<stop  offset="0.8769" style="stop-color:#373334"/>
					<stop  offset="1" style="stop-color:#231F20"/>
				</linearGradient>
				<polygon fill="url(#SVGID_11_)" points="-1921.7,-2096.4 -1921.7,-2084.9 -1858.1,-2121.4 -1858.1,-2132.7 				"/>
				<linearGradient id="SVGID_12_" gradientUnits="userSpaceOnUse" x1="-1921.6523" y1="-2095.804" x2="-1864.1051" y2="-2095.804">
					<stop  offset="0" style="stop-color:#231F20"/>
					<stop  offset="0.1231" style="stop-color:#373334"/>
					<stop  offset="0.3764" style="stop-color:#6B6869"/>
					<stop  offset="0.7341" style="stop-color:#BDBCBD"/>
					<stop  offset="1" style="stop-color:#FFFFFF"/>
				</linearGradient>
				<polygon fill="url(#SVGID_12_)" points="-1921.7,-2084.9 -1911.3,-2079.4 -1864.1,-2107.2 -1874,-2112.2 				"/>
				
					<linearGradient id="SVGID_13_" gradientUnits="userSpaceOnUse" x1="-1907.7809" y1="-1927.3168" x2="-1925.0231" y2="-2075.592">
					<stop  offset="0" style="stop-color:#231F20"/>
					<stop  offset="0.1231" style="stop-color:#373334"/>
					<stop  offset="0.3764" style="stop-color:#6B6869"/>
					<stop  offset="0.7341" style="stop-color:#BDBCBD"/>
					<stop  offset="1" style="stop-color:#FFFFFF"/>
				</linearGradient>
				<polygon fill="url(#SVGID_13_)" points="-1921.7,-2084.9 -1921.7,-1924.5 -1912.1,-1917.8 -1911.3,-2079.4 				"/>
				<polygon fill="#B9B9BA" points="-1826.1,-2139.9 -1828.4,-2083.7 -1819.3,-2077.7 -1817.3,-2135.2 				"/>
				
					<linearGradient id="SVGID_14_" gradientUnits="userSpaceOnUse" x1="-2060.0781" y1="-2129.6235" x2="-1921.6523" y2="-2129.6235">
					<stop  offset="0" style="stop-color:#FFFFFF"/>
					<stop  offset="0.2659" style="stop-color:#BDBCBD"/>
					<stop  offset="0.6236" style="stop-color:#6B6869"/>
					<stop  offset="0.8769" style="stop-color:#373334"/>
					<stop  offset="1" style="stop-color:#231F20"/>
				</linearGradient>
				<polygon fill="url(#SVGID_14_)" points="-2060.1,-2174.4 -2060.1,-2163.4 -1921.7,-2084.9 -1921.7,-2096.4 				"/>
				
					<linearGradient id="SVGID_15_" gradientUnits="userSpaceOnUse" x1="-1928.3792" y1="-2084.834" x2="-1926.2622" y2="-2023.9614">
					<stop  offset="0" style="stop-color:#231F20"/>
					<stop  offset="0.1231" style="stop-color:#373334"/>
					<stop  offset="0.3764" style="stop-color:#6B6869"/>
					<stop  offset="0.7341" style="stop-color:#BDBCBD"/>
					<stop  offset="1" style="stop-color:#FFFFFF"/>
				</linearGradient>
				<polygon fill="url(#SVGID_15_)" points="-1921.7,-2084.9 -1933,-2080.1 -1933,-2024 -1921.7,-2029.9 				"/>
				
					<linearGradient id="SVGID_16_" gradientUnits="userSpaceOnUse" x1="-2069.5991" y1="-2121.7141" x2="-1921.6523" y2="-2121.7141">
					<stop  offset="0" style="stop-color:#231F20"/>
					<stop  offset="0.1231" style="stop-color:#373334"/>
					<stop  offset="0.3764" style="stop-color:#6B6869"/>
					<stop  offset="0.7341" style="stop-color:#BDBCBD"/>
					<stop  offset="1" style="stop-color:#FFFFFF"/>
				</linearGradient>
				<polygon fill="url(#SVGID_16_)" points="-2069.6,-2157.6 -2060.1,-2163.4 -1921.7,-2084.9 -1933,-2080.1 				"/>
				
					<linearGradient id="SVGID_17_" gradientUnits="userSpaceOnUse" x1="-1928.3103" y1="-1973.4606" x2="-1926.375" y2="-1918.0397">
					<stop  offset="0" style="stop-color:#231F20"/>
					<stop  offset="0.1231" style="stop-color:#373334"/>
					<stop  offset="0.3764" style="stop-color:#6B6869"/>
					<stop  offset="0.7341" style="stop-color:#BDBCBD"/>
					<stop  offset="1" style="stop-color:#FFFFFF"/>
				</linearGradient>
				<polygon fill="url(#SVGID_17_)" points="-1932.5,-1968.1 -1921.7,-1973.7 -1921.7,-1924.5 -1933,-1917.8 				"/>
				<linearGradient id="SVGID_18_" gradientUnits="userSpaceOnUse" x1="-2017.74" y1="-2079.0601" x2="-2015.8208" y2="-2024.1001">
					<stop  offset="0" style="stop-color:#231F20"/>
					<stop  offset="0.1231" style="stop-color:#373334"/>
					<stop  offset="0.3764" style="stop-color:#6B6869"/>
					<stop  offset="0.7341" style="stop-color:#BDBCBD"/>
					<stop  offset="1" style="stop-color:#FFFFFF"/>
				</linearGradient>
				<polygon fill="url(#SVGID_18_)" points="-2012.8,-2072.6 -2010.5,-2029 -2019.8,-2024 -2023.2,-2078.9 				"/>
				
					<linearGradient id="SVGID_19_" gradientUnits="userSpaceOnUse" x1="-2019.8124" y1="-1998.5244" x2="-1921.6523" y2="-1998.5244">
					<stop  offset="0" style="stop-color:#231F20"/>
					<stop  offset="0.1231" style="stop-color:#373334"/>
					<stop  offset="0.3764" style="stop-color:#6B6869"/>
					<stop  offset="0.7341" style="stop-color:#BDBCBD"/>
					<stop  offset="1" style="stop-color:#FFFFFF"/>
				</linearGradient>
				<polygon fill="url(#SVGID_19_)" points="-1921.7,-1973.7 -2010.5,-2029 -2019.8,-2024 -1932.5,-1968.1 				"/>
			</g>
		</g>
		<g>
			<g>
				
					<linearGradient id="SVGID_20_" gradientUnits="userSpaceOnUse" x1="-2085.9453" y1="-1886.2827" x2="-2085.9453" y2="-1823.1726">
					<stop  offset="0" style="stop-color:#FFFFFF"/>
					<stop  offset="6.810129e-002" style="stop-color:#DBDCDD"/>
					<stop  offset="9.819508e-002" style="stop-color:#EBEBEC"/>
					<stop  offset="0.1377" style="stop-color:#F6F7F7"/>
					<stop  offset="0.1933" style="stop-color:#FDFDFD"/>
					<stop  offset="0.3477" style="stop-color:#FFFFFF"/>
					<stop  offset="0.4182" style="stop-color:#FCFCFC"/>
					<stop  offset="0.4753" style="stop-color:#F2F2F2"/>
					<stop  offset="0.5275" style="stop-color:#E1E2E2"/>
					<stop  offset="0.5412" style="stop-color:#DBDCDD"/>
					<stop  offset="0.542" style="stop-color:#D7D8D9"/>
					<stop  offset="0.5473" style="stop-color:#C1C3C4"/>
					<stop  offset="0.5535" style="stop-color:#B0B2B5"/>
					<stop  offset="0.5613" style="stop-color:#A5A7A9"/>
					<stop  offset="0.5721" style="stop-color:#9EA0A3"/>
					<stop  offset="0.6022" style="stop-color:#9C9EA1"/>
					<stop  offset="1" style="stop-color:#404041"/>
				</linearGradient>
				<polygon fill="url(#SVGID_20_)" points="-2130.6,-1886.3 -2099.3,-1886.3 -2099.3,-1844.9 -2038.4,-1844.9 -2038.4,-1823.2 
					-2133.5,-1823.2 				"/>
				
					<linearGradient id="SVGID_21_" gradientUnits="userSpaceOnUse" x1="-2193.7075" y1="-1884.4982" x2="-2193.7075" y2="-1823.1726">
					<stop  offset="0" style="stop-color:#FFFFFF"/>
					<stop  offset="6.810129e-002" style="stop-color:#DBDCDD"/>
					<stop  offset="9.819508e-002" style="stop-color:#EBEBEC"/>
					<stop  offset="0.1377" style="stop-color:#F6F7F7"/>
					<stop  offset="0.1933" style="stop-color:#FDFDFD"/>
					<stop  offset="0.3477" style="stop-color:#FFFFFF"/>
					<stop  offset="0.4182" style="stop-color:#FCFCFC"/>
					<stop  offset="0.4753" style="stop-color:#F2F2F2"/>
					<stop  offset="0.5275" style="stop-color:#E1E2E2"/>
					<stop  offset="0.5412" style="stop-color:#DBDCDD"/>
					<stop  offset="0.542" style="stop-color:#D7D8D9"/>
					<stop  offset="0.5473" style="stop-color:#C1C3C4"/>
					<stop  offset="0.5535" style="stop-color:#B0B2B5"/>
					<stop  offset="0.5613" style="stop-color:#A5A7A9"/>
					<stop  offset="0.5721" style="stop-color:#9EA0A3"/>
					<stop  offset="0.6022" style="stop-color:#9C9EA1"/>
					<stop  offset="1" style="stop-color:#404041"/>
				</linearGradient>
				<path fill="url(#SVGID_21_)" d="M-2237.4-1884.5l-7.5,61.3h32l0.4-20.9h68.7l1.1-40.4H-2237.4z M-2163.5-1858.6h-43.4v-14.1
					h43.4V-1858.6z"/>
				
					<linearGradient id="SVGID_22_" gradientUnits="userSpaceOnUse" x1="-1976.3643" y1="-1886.2827" x2="-1976.3643" y2="-1823.1726">
					<stop  offset="0" style="stop-color:#FFFFFF"/>
					<stop  offset="6.810129e-002" style="stop-color:#DBDCDD"/>
					<stop  offset="9.819508e-002" style="stop-color:#EBEBEC"/>
					<stop  offset="0.1377" style="stop-color:#F6F7F7"/>
					<stop  offset="0.1933" style="stop-color:#FDFDFD"/>
					<stop  offset="0.3477" style="stop-color:#FFFFFF"/>
					<stop  offset="0.4182" style="stop-color:#FCFCFC"/>
					<stop  offset="0.4753" style="stop-color:#F2F2F2"/>
					<stop  offset="0.5275" style="stop-color:#E1E2E2"/>
					<stop  offset="0.5412" style="stop-color:#DBDCDD"/>
					<stop  offset="0.542" style="stop-color:#D7D8D9"/>
					<stop  offset="0.5473" style="stop-color:#C1C3C4"/>
					<stop  offset="0.5535" style="stop-color:#B0B2B5"/>
					<stop  offset="0.5613" style="stop-color:#A5A7A9"/>
					<stop  offset="0.5721" style="stop-color:#9EA0A3"/>
					<stop  offset="0.6022" style="stop-color:#9C9EA1"/>
					<stop  offset="1" style="stop-color:#404041"/>
				</linearGradient>
				<polygon fill="url(#SVGID_22_)" points="-2023.3,-1886.3 -1991.3,-1886.3 -1991.3,-1845.4 -1959.1,-1845.4 -1959.1,-1886.3 
					-1927.4,-1886.3 -1927.4,-1823.2 -2025.3,-1823.2 				"/>
				
					<linearGradient id="SVGID_23_" gradientUnits="userSpaceOnUse" x1="-1865.5404" y1="-1886.2827" x2="-1865.5404" y2="-1823.1726">
					<stop  offset="0" style="stop-color:#FFFFFF"/>
					<stop  offset="6.810129e-002" style="stop-color:#DBDCDD"/>
					<stop  offset="9.819508e-002" style="stop-color:#EBEBEC"/>
					<stop  offset="0.1377" style="stop-color:#F6F7F7"/>
					<stop  offset="0.1933" style="stop-color:#FDFDFD"/>
					<stop  offset="0.3477" style="stop-color:#FFFFFF"/>
					<stop  offset="0.4182" style="stop-color:#FCFCFC"/>
					<stop  offset="0.4753" style="stop-color:#F2F2F2"/>
					<stop  offset="0.5275" style="stop-color:#E1E2E2"/>
					<stop  offset="0.5412" style="stop-color:#DBDCDD"/>
					<stop  offset="0.542" style="stop-color:#D7D8D9"/>
					<stop  offset="0.5473" style="stop-color:#C1C3C4"/>
					<stop  offset="0.5535" style="stop-color:#B0B2B5"/>
					<stop  offset="0.5613" style="stop-color:#A5A7A9"/>
					<stop  offset="0.5721" style="stop-color:#9EA0A3"/>
					<stop  offset="0.6022" style="stop-color:#9C9EA1"/>
					<stop  offset="1" style="stop-color:#404041"/>
				</linearGradient>
				<path fill="url(#SVGID_23_)" d="M-1815.9-1886.3h-99.2v63.1h34.7v-23.1l32,23.1h32.5v-8.2l-31.5-21.2h31.5V-1886.3z
					 M-1850.6-1859h-32.9v-14.4h32.9V-1859z"/>
				
					<linearGradient id="SVGID_24_" gradientUnits="userSpaceOnUse" x1="-1759.8699" y1="-1886.2827" x2="-1759.8699" y2="-1823.1726">
					<stop  offset="0" style="stop-color:#FFFFFF"/>
					<stop  offset="6.810129e-002" style="stop-color:#DBDCDD"/>
					<stop  offset="9.819508e-002" style="stop-color:#EBEBEC"/>
					<stop  offset="0.1377" style="stop-color:#F6F7F7"/>
					<stop  offset="0.1933" style="stop-color:#FDFDFD"/>
					<stop  offset="0.3477" style="stop-color:#FFFFFF"/>
					<stop  offset="0.4182" style="stop-color:#FCFCFC"/>
					<stop  offset="0.4753" style="stop-color:#F2F2F2"/>
					<stop  offset="0.5275" style="stop-color:#E1E2E2"/>
					<stop  offset="0.5412" style="stop-color:#DBDCDD"/>
					<stop  offset="0.542" style="stop-color:#D7D8D9"/>
					<stop  offset="0.5473" style="stop-color:#C1C3C4"/>
					<stop  offset="0.5535" style="stop-color:#B0B2B5"/>
					<stop  offset="0.5613" style="stop-color:#A5A7A9"/>
					<stop  offset="0.5721" style="stop-color:#9EA0A3"/>
					<stop  offset="0.6022" style="stop-color:#9C9EA1"/>
					<stop  offset="1" style="stop-color:#404041"/>
				</linearGradient>
				<path fill="url(#SVGID_24_)" d="M-1710.5-1823.2l-4.1-63.1h-94.7l2.4,63.1h33.5v-14h30.9v14H-1710.5z M-1744-1853h-31.6v-12.4
					v-0.8h31.6V-1853z"/>
				<linearGradient id="SVGID_25_" gradientUnits="userSpaceOnUse" x1="-1651.168" y1="-1886.2827" x2="-1651.168" y2="-1823.1726">
					<stop  offset="0" style="stop-color:#FFFFFF"/>
					<stop  offset="6.810129e-002" style="stop-color:#DBDCDD"/>
					<stop  offset="9.819508e-002" style="stop-color:#EBEBEC"/>
					<stop  offset="0.1377" style="stop-color:#F6F7F7"/>
					<stop  offset="0.1933" style="stop-color:#FDFDFD"/>
					<stop  offset="0.3477" style="stop-color:#FFFFFF"/>
					<stop  offset="0.4182" style="stop-color:#FCFCFC"/>
					<stop  offset="0.4753" style="stop-color:#F2F2F2"/>
					<stop  offset="0.5275" style="stop-color:#E1E2E2"/>
					<stop  offset="0.5412" style="stop-color:#DBDCDD"/>
					<stop  offset="0.542" style="stop-color:#D7D8D9"/>
					<stop  offset="0.5473" style="stop-color:#C1C3C4"/>
					<stop  offset="0.5535" style="stop-color:#B0B2B5"/>
					<stop  offset="0.5613" style="stop-color:#A5A7A9"/>
					<stop  offset="0.5721" style="stop-color:#9EA0A3"/>
					<stop  offset="0.6022" style="stop-color:#9C9EA1"/>
					<stop  offset="1" style="stop-color:#404041"/>
				</linearGradient>
				<polygon fill="url(#SVGID_25_)" points="-1703.5,-1886.3 -1697.2,-1823.2 -1598.8,-1823.2 -1599.7,-1839.4 -1668.1,-1840 
					-1671.5,-1886.3 				"/>
				
					<linearGradient id="SVGID_26_" gradientUnits="userSpaceOnUse" x1="-2206.8633" y1="-1870.4917" x2="-2163.4553" y2="-1870.4917">
					<stop  offset="0" style="stop-color:#FFFFFF"/>
					<stop  offset="0.2659" style="stop-color:#BDBCBD"/>
					<stop  offset="0.6236" style="stop-color:#6B6869"/>
					<stop  offset="0.8769" style="stop-color:#373334"/>
					<stop  offset="1" style="stop-color:#231F20"/>
				</linearGradient>
				<rect x="-2206.9" y="-1872.7" fill="url(#SVGID_26_)" width="43.4" height="4.4"/>
				
					<linearGradient id="SVGID_27_" gradientUnits="userSpaceOnUse" x1="-2244.8149" y1="-1821.2664" x2="-2210.1672" y2="-1821.2664">
					<stop  offset="0" style="stop-color:#FFFFFF"/>
					<stop  offset="0.2659" style="stop-color:#BDBCBD"/>
					<stop  offset="0.6236" style="stop-color:#6B6869"/>
					<stop  offset="0.8769" style="stop-color:#373334"/>
					<stop  offset="1" style="stop-color:#231F20"/>
				</linearGradient>
				<polygon fill="url(#SVGID_27_)" points="-2244.8,-1823.2 -2243.5,-1819.4 -2210.2,-1819.4 -2212.8,-1823.2 				"/>
				<linearGradient id="SVGID_28_" gradientUnits="userSpaceOnUse" x1="-2211.1221" y1="-1819.36" x2="-2211.1221" y2="-1844.1012">
					<stop  offset="0" style="stop-color:#231F20"/>
					<stop  offset="0.1231" style="stop-color:#373334"/>
					<stop  offset="0.3764" style="stop-color:#6B6869"/>
					<stop  offset="0.7341" style="stop-color:#BDBCBD"/>
					<stop  offset="1" style="stop-color:#FFFFFF"/>
				</linearGradient>
				<polygon fill="url(#SVGID_28_)" points="-2210.2,-1819.4 -2209.4,-1840 -2212.4,-1844.1 -2212.8,-1823.2 				"/>
				
					<linearGradient id="SVGID_29_" gradientUnits="userSpaceOnUse" x1="-2212.4407" y1="-1842.0732" x2="-2143.6912" y2="-1842.0732">
					<stop  offset="0" style="stop-color:#231F20"/>
					<stop  offset="0.1231" style="stop-color:#373334"/>
					<stop  offset="0.3764" style="stop-color:#6B6869"/>
					<stop  offset="0.7341" style="stop-color:#BDBCBD"/>
					<stop  offset="1" style="stop-color:#FFFFFF"/>
				</linearGradient>
				<polyline fill="url(#SVGID_29_)" points="-2209.4,-1840 -2146.8,-1840 -2143.7,-1844.1 -2212.4,-1844.1 				"/>
				
					<linearGradient id="SVGID_30_" gradientUnits="userSpaceOnUse" x1="-2133.5061" y1="-1821.1716" x2="-2034.6632" y2="-1821.1716">
					<stop  offset="0" style="stop-color:#FFFFFF"/>
					<stop  offset="0.2659" style="stop-color:#BDBCBD"/>
					<stop  offset="0.6236" style="stop-color:#6B6869"/>
					<stop  offset="0.8769" style="stop-color:#373334"/>
					<stop  offset="1" style="stop-color:#231F20"/>
				</linearGradient>
				<polygon fill="url(#SVGID_30_)" points="-2133.5,-1823.2 -2132.1,-1819.2 -2034.7,-1819.2 -2038.4,-1823.2 				"/>
				
					<linearGradient id="SVGID_31_" gradientUnits="userSpaceOnUse" x1="-2036.5238" y1="-1844.9124" x2="-2036.5238" y2="-1819.1708">
					<stop  offset="0" style="stop-color:#FFFFFF"/>
					<stop  offset="0.2659" style="stop-color:#BDBCBD"/>
					<stop  offset="0.6236" style="stop-color:#6B6869"/>
					<stop  offset="0.8769" style="stop-color:#373334"/>
					<stop  offset="1" style="stop-color:#231F20"/>
				</linearGradient>
				<polygon fill="url(#SVGID_31_)" points="-2038.4,-1823.2 -2038.4,-1844.9 -2034.7,-1842 -2034.7,-1819.2 				"/>
				
					<linearGradient id="SVGID_32_" gradientUnits="userSpaceOnUse" x1="-2025.2892" y1="-1821.1716" x2="-1927.4393" y2="-1821.1716">
					<stop  offset="0" style="stop-color:#FFFFFF"/>
					<stop  offset="0.2659" style="stop-color:#BDBCBD"/>
					<stop  offset="0.6236" style="stop-color:#6B6869"/>
					<stop  offset="0.8769" style="stop-color:#373334"/>
					<stop  offset="1" style="stop-color:#231F20"/>
				</linearGradient>
				<polygon fill="url(#SVGID_32_)" points="-2025.3,-1823.2 -2023.3,-1819.2 -1930.1,-1819.2 -1927.4,-1823.2 				"/>
				<rect x="-1883.5" y="-1873.4" fill="#6B6B6B" width="32.9" height="4"/>
				<polygon fill="#6B6B6B" points="-1815.9,-1852.6 -1819.3,-1847.7 -1840.2,-1847.7 -1847.5,-1852.6 				"/>
				
					<linearGradient id="SVGID_33_" gradientUnits="userSpaceOnUse" x1="-1880.4545" y1="-1832.5824" x2="-1847.868" y2="-1832.5824">
					<stop  offset="0" style="stop-color:#FFFFFF"/>
					<stop  offset="0.2659" style="stop-color:#BDBCBD"/>
					<stop  offset="0.6236" style="stop-color:#6B6869"/>
					<stop  offset="0.8769" style="stop-color:#373334"/>
					<stop  offset="1" style="stop-color:#231F20"/>
				</linearGradient>
				<polygon fill="url(#SVGID_33_)" points="-1880.5,-1840.5 -1847.9,-1818.8 -1848.4,-1823.2 -1880.5,-1846.3 				"/>
				
					<linearGradient id="SVGID_34_" gradientUnits="userSpaceOnUse" x1="-1848.4441" y1="-1821.0094" x2="-1815.9486" y2="-1821.0094">
					<stop  offset="0" style="stop-color:#FFFFFF"/>
					<stop  offset="0.2659" style="stop-color:#BDBCBD"/>
					<stop  offset="0.6236" style="stop-color:#6B6869"/>
					<stop  offset="0.8769" style="stop-color:#373334"/>
					<stop  offset="1" style="stop-color:#231F20"/>
				</linearGradient>
				<polygon fill="url(#SVGID_34_)" points="-1815.9,-1823.2 -1817.2,-1819.1 -1847.9,-1818.8 -1848.4,-1823.2 				"/>
				
					<linearGradient id="SVGID_35_" gradientUnits="userSpaceOnUse" x1="-1915.1322" y1="-1821.1716" x2="-1880.4545" y2="-1821.1716">
					<stop  offset="0" style="stop-color:#FFFFFF"/>
					<stop  offset="0.2659" style="stop-color:#BDBCBD"/>
					<stop  offset="0.6236" style="stop-color:#6B6869"/>
					<stop  offset="0.8769" style="stop-color:#373334"/>
					<stop  offset="1" style="stop-color:#231F20"/>
				</linearGradient>
				<polygon fill="url(#SVGID_35_)" points="-1915.1,-1823.2 -1912.7,-1819.2 -1883.6,-1819.2 -1880.5,-1823.2 				"/>
				<rect x="-1775.7" y="-1866.2" fill="#6B6B6B" width="31.6" height="4.1"/>
				
					<linearGradient id="SVGID_36_" gradientUnits="userSpaceOnUse" x1="-1806.8547" y1="-1821.1987" x2="-1771.798" y2="-1821.1987">
					<stop  offset="0" style="stop-color:#FFFFFF"/>
					<stop  offset="0.2659" style="stop-color:#BDBCBD"/>
					<stop  offset="0.6236" style="stop-color:#6B6869"/>
					<stop  offset="0.8769" style="stop-color:#373334"/>
					<stop  offset="1" style="stop-color:#231F20"/>
				</linearGradient>
				<polygon fill="url(#SVGID_36_)" points="-1806.9,-1823.2 -1804.4,-1819.2 -1771.8,-1819.2 -1773.4,-1823.2 				"/>
				
					<linearGradient id="SVGID_37_" gradientUnits="userSpaceOnUse" x1="-1772.9277" y1="-1837.1411" x2="-1772.3015" y2="-1819.2073">
					<stop  offset="0" style="stop-color:#231F20"/>
					<stop  offset="0.1231" style="stop-color:#373334"/>
					<stop  offset="0.3764" style="stop-color:#6B6869"/>
					<stop  offset="0.7341" style="stop-color:#BDBCBD"/>
					<stop  offset="1" style="stop-color:#FFFFFF"/>
				</linearGradient>
				<polygon fill="url(#SVGID_37_)" points="-1773.4,-1837.1 -1771.8,-1832 -1771.8,-1819.2 -1773.4,-1823.2 				"/>
				
					<linearGradient id="SVGID_38_" gradientUnits="userSpaceOnUse" x1="-1773.3894" y1="-1834.5494" x2="-1742.4702" y2="-1834.5494">
					<stop  offset="0" style="stop-color:#FFFFFF"/>
					<stop  offset="0.2659" style="stop-color:#BDBCBD"/>
					<stop  offset="0.6236" style="stop-color:#6B6869"/>
					<stop  offset="0.8769" style="stop-color:#373334"/>
					<stop  offset="1" style="stop-color:#231F20"/>
				</linearGradient>
				<polygon fill="url(#SVGID_38_)" points="-1773.4,-1837.1 -1742.5,-1837.1 -1742.5,-1832 -1771.8,-1832 				"/>
				
					<linearGradient id="SVGID_39_" gradientUnits="userSpaceOnUse" x1="-1742.4702" y1="-1821.1987" x2="-1708.2773" y2="-1821.1987">
					<stop  offset="0" style="stop-color:#FFFFFF"/>
					<stop  offset="0.2659" style="stop-color:#BDBCBD"/>
					<stop  offset="0.6236" style="stop-color:#6B6869"/>
					<stop  offset="0.8769" style="stop-color:#373334"/>
					<stop  offset="1" style="stop-color:#231F20"/>
				</linearGradient>
				<polygon fill="url(#SVGID_39_)" points="-1742.5,-1823.2 -1741,-1819.2 -1708.3,-1819.2 -1710.5,-1823.2 				"/>
				
					<linearGradient id="SVGID_40_" gradientUnits="userSpaceOnUse" x1="-1714.5825" y1="-1852.7538" x2="-1708.2773" y2="-1852.7538">
					<stop  offset="0" style="stop-color:#231F20"/>
					<stop  offset="0.1231" style="stop-color:#373334"/>
					<stop  offset="0.3764" style="stop-color:#6B6869"/>
					<stop  offset="0.7341" style="stop-color:#BDBCBD"/>
					<stop  offset="1" style="stop-color:#FFFFFF"/>
				</linearGradient>
				<polygon fill="url(#SVGID_40_)" points="-1708.3,-1819.2 -1712.5,-1882.6 -1714.6,-1886.3 -1710.5,-1823.2 				"/>
				
					<linearGradient id="SVGID_41_" gradientUnits="userSpaceOnUse" x1="-1704.8217" y1="-1852.7538" x2="-1697.1829" y2="-1852.7538">
					<stop  offset="0" style="stop-color:#231F20"/>
					<stop  offset="0.1231" style="stop-color:#373334"/>
					<stop  offset="0.3764" style="stop-color:#6B6869"/>
					<stop  offset="0.7341" style="stop-color:#BDBCBD"/>
					<stop  offset="1" style="stop-color:#FFFFFF"/>
				</linearGradient>
				<polygon fill="url(#SVGID_41_)" points="-1703.5,-1886.3 -1704.8,-1878.3 -1699.1,-1819.2 -1697.2,-1823.2 				"/>
				
					<linearGradient id="SVGID_42_" gradientUnits="userSpaceOnUse" x1="-1699.1342" y1="-1821.1987" x2="-1598.7874" y2="-1821.1987">
					<stop  offset="0" style="stop-color:#231F20"/>
					<stop  offset="0.1231" style="stop-color:#373334"/>
					<stop  offset="0.3764" style="stop-color:#6B6869"/>
					<stop  offset="0.7341" style="stop-color:#BDBCBD"/>
					<stop  offset="1" style="stop-color:#FFFFFF"/>
				</linearGradient>
				<polygon fill="url(#SVGID_42_)" points="-1699.1,-1819.2 -1601.3,-1819.2 -1598.8,-1823.2 -1697.2,-1823.2 				"/>
			</g>
		</g>
	</g>
	<g>
		<g>
			<g>
				<circle fill="#FFFFFF" cx="204.3" cy="-724.4" r="12.2"/>
			</g>
			<g>
				<path fill="#FFFFFF" d="M204.3-708.5l4.4,4.4l-4.4,4.4l-4.4-4.4L204.3-708.5c-11.1,0-20.2,10.4-20.2,23.1
					c0,12.8,9,14.5,20.2,14.5c11.1,0,20.2-1.8,20.2-14.5C224.4-698.1,215.4-708.5,204.3-708.5z M204.3-675.5l-4.4-6.3l2-19.1
					l2.4,2.1l2.4-2.1l2,19.3L204.3-675.5z"/>
			</g>
		</g>
		<g>
			<path fill="#FFFFFF" d="M204.3-628.8c-41.3,0-74.9-33.6-74.9-74.9c0-41.3,33.6-74.9,74.9-74.9s74.9,33.6,74.9,74.9
				C279.2-662.4,245.6-628.8,204.3-628.8z M204.3-777.6c-40.7,0-73.9,33.1-73.9,73.9c0,40.7,33.1,73.9,73.9,73.9
				s73.9-33.1,73.9-73.9C278.2-744.4,245-777.6,204.3-777.6z"/>
		</g>
	</g>
	<g>
		<g>
			<path fill="#FFFFFF" d="M-183.1-628.8c-41.3,0-74.9-33.6-74.9-74.9c0-41.3,33.6-74.9,74.9-74.9s74.9,33.6,74.9,74.9
				C-108.2-662.4-141.8-628.8-183.1-628.8z M-183.1-777.6c-40.7,0-73.9,33.1-73.9,73.9c0,40.7,33.1,73.9,73.9,73.9
				s73.9-33.1,73.9-73.9C-109.2-744.4-142.3-777.6-183.1-777.6z"/>
		</g>
		<g>
			<g>
				<path fill="#FFFFFF" d="M-172.8-687c-2.7-2.7-6.5-4.4-10.6-4.4c-4.1,0-7.9,1.7-10.6,4.4l10.6,10.6L-172.8-687z"/>
			</g>
			<g>
				<path fill="#FFFFFF" d="M-183.4-719c11.7,0,22.4,4.8,30.1,12.5l3.9-3.9c-8.7-8.7-20.7-14.1-34-14.1c-13.2,0-25.3,5.4-33.9,14.1
					l3.9,3.9C-205.7-714.2-195.1-719-183.4-719z"/>
			</g>
			<g>
				<path fill="#FFFFFF" d="M-183.4-708c8.7,0,16.6,3.6,22.4,9.3l3.9-3.9c-6.7-6.7-16-10.9-26.2-10.9c-10.2,0-19.5,4.2-26.2,10.9
					l3.9,3.9C-200-704.5-192.1-708-183.4-708z"/>
			</g>
			<g>
				<path fill="#FFFFFF" d="M-183.4-697.1c5.7,0,10.9,2.3,14.6,6.1l3.9-3.9c-4.7-4.7-11.3-7.7-18.5-7.7c-7.2,0-13.8,2.9-18.5,7.7
					l3.9,3.9C-194.2-694.8-189.1-697.1-183.4-697.1z"/>
			</g>
		</g>
	</g>
	<g>
		<g>
			<path fill="#FFFFFF" d="M9.4-628.8c-41.3,0-74.9-33.6-74.9-74.9c0-41.3,33.6-74.9,74.9-74.9s74.9,33.6,74.9,74.9
				C84.2-662.4,50.7-628.8,9.4-628.8z M9.4-777.6c-40.7,0-73.9,33.1-73.9,73.9c0,40.7,33.1,73.9,73.9,73.9
				c40.7,0,73.9-33.1,73.9-73.9C83.2-744.4,50.1-777.6,9.4-777.6z"/>
		</g>
		<g>
			<g>
				<path fill="#FFFFFF" d="M29.3-720.5c-7.3,0-41.6,0-41.6,0s-5.3,0-5.3,5.3v32.2c0,0-1.2,5.7,7.7,5.7c9,0,41.1,0,41.1,0
					s4.9,0,4.9-6.9s0-31.8,0-31.8S36.7-720.5,29.3-720.5z M28.3-711.5c1.7,0,3.1,1.4,3.1,3.1s-1.4,3.1-3.1,3.1
					c-1.7,0-3.1-1.4-3.1-3.1S26.6-711.5,28.3-711.5z M28.3-703.8c1.7,0,3.1,1.4,3.1,3.1c0,1.7-1.4,3.1-3.1,3.1
					c-1.7,0-3.1-1.4-3.1-3.1C25.3-702.4,26.6-703.8,28.3-703.8z M21.6-694.9c0,6.7-5.4,12.2-12.1,12.2h-11
					c-6.7,0-12.1-5.5-12.1-12.2v-7.4c0-6.7,5.4-12.2,12.1-12.2h11c6.7,0,12.1,5.5,12.1,12.2V-694.9z M32.8-682.6h-8.7
					c-0.5,0-0.9-0.4-0.9-0.9c0-0.5,0.4-0.9,0.9-0.9h8.7c0.5,0,0.9,0.4,0.9,0.9C33.7-683,33.3-682.6,32.8-682.6z M32.8-686.3h-8.7
					c-0.5,0-0.9-0.4-0.9-0.9s0.4-0.9,0.9-0.9h8.7c0.5,0,0.9,0.4,0.9,0.9S33.3-686.3,32.8-686.3z"/>
			</g>
			<g>
				<path fill="#FFFFFF" d="M-7.7-670.8c1.3,0.1,4.1-5.2,4.1-5.2H-9C-9-673.1-9-670.9-7.7-670.8z"/>
			</g>
			<g>
				<path fill="#FFFFFF" d="M27.1-670.8c1.3-0.1,1.3-2.3,1.3-5.2H23C23-676,25.8-670.6,27.1-670.8z"/>
			</g>
			<g>
				<path fill="#FFFFFF" d="M5.5-721.8l3.2-0.1l-5.2-11.6c0,0-1.2-3.5-2.8-3c-1.6,0.4-0.1,2.6-0.1,2.6L5.5-721.8z"/>
			</g>
			<g>
				<path fill="#FFFFFF" d="M19.9-734c0,0,1.4-2.2-0.1-2.6c-1.6-0.4-2.8,3-2.8,3L11.7-722l3.2,0.1L19.9-734z"/>
			</g>
		</g>
	</g>
	<g>
		<g>
			<path fill="#FFFFFF" d="M390.7-628.8c-41.3,0-74.9-33.6-74.9-74.9c0-41.3,33.6-74.9,74.9-74.9c41.3,0,74.9,33.6,74.9,74.9
				C465.6-662.4,432-628.8,390.7-628.8z M390.7-777.6c-40.7,0-73.9,33.1-73.9,73.9c0,40.7,33.1,73.9,73.9,73.9s73.9-33.1,73.9-73.9
				C464.6-744.4,431.4-777.6,390.7-777.6z"/>
		</g>
		<g>
			<g>
				<path fill="#FFFFFF" d="M403.8-733.5c-10.2-0.8-19.2,6.9-20,17.1c-0.8,10.2,6.9,19.2,17.1,20c10.2,0.8,19.2-6.9,20-17.1
					C421.7-723.7,414-732.7,403.8-733.5z M410.1-722.7c2.5,0.2,4.3,2.4,4.1,4.8c0,0.1-0.1,0.3-0.1,0.4c-0.9-1.3-2.5-2.2-4.5-2.3
					c-1.7-0.1-3.3,0.4-4.4,1.3c0,0,0-0.1,0-0.1C405.5-721,407.6-722.9,410.1-722.7z M396.4-723.7c2.5,0.2,4.3,2.4,4.1,4.8
					c0,0.1-0.1,0.3-0.1,0.4c-0.9-1.3-2.5-2.2-4.5-2.3c-1.7-0.1-3.3,0.4-4.4,1.3c0,0,0-0.1,0-0.1
					C391.7-722.1,393.9-723.9,396.4-723.7z M401.4-702.3c-5.8-0.4-10.3-4.5-11.8-9.8c2.6,4,6.9,6.7,12,7.1c5.1,0.4,9.8-1.7,12.9-5.2
					C412.3-705.2,407.1-701.9,401.4-702.3z"/>
			</g>
			<g>
				<path fill="#FFFFFF" d="M380.3-711.5c-8.6-0.7-16.2,5.8-16.8,14.4c-0.7,8.6,5.8,16.2,14.4,16.8s16.2-5.8,16.8-14.4
					C395.4-703.3,388.9-710.8,380.3-711.5z M385.7-702.4c2.1,0.2,3.7,2,3.5,4.1c0,0.1,0,0.2-0.1,0.4c-0.8-1.1-2.1-1.8-3.8-2
					c-1.5-0.1-2.8,0.3-3.7,1.1c0,0,0-0.1,0-0.1C381.7-701,383.6-702.6,385.7-702.4z M374.1-703.3c2.1,0.2,3.7,2,3.5,4.1
					c0,0.1,0,0.2-0.1,0.4c-0.8-1.1-2.1-1.8-3.8-2c-1.5-0.1-2.8,0.3-3.7,1.1c0,0,0-0.1,0-0.1C370.2-701.9,372-703.5,374.1-703.3z
					 M378.3-685.3c-4.8-0.4-8.7-3.8-9.9-8.2c2.2,3.3,5.8,5.7,10.1,6c4.3,0.3,8.2-1.4,10.9-4.4C387.5-687.7,383.1-684.9,378.3-685.3z
					"/>
			</g>
			<g>
				<path fill="#FFFFFF" d="M371.2-735.1c-7.2,1.4-11.9,8.4-10.5,15.6c1.4,7.2,8.4,11.9,15.6,10.5c7.2-1.4,11.9-8.4,10.5-15.6
					S378.4-736.5,371.2-735.1z M377.7-728.9c1.8-0.3,3.4,0.8,3.8,2.6c0,0.1,0,0.2,0,0.3c-0.9-0.7-2.2-1-3.5-0.8
					c-1.2,0.2-2.2,0.9-2.8,1.8c0,0,0-0.1,0-0.1C374.8-726.9,375.9-728.6,377.7-728.9z M368-727c1.8-0.3,3.4,0.8,3.8,2.6
					c0,0.1,0,0.2,0,0.3c-0.9-0.7-2.2-1-3.5-0.8c-1.2,0.2-2.2,0.9-2.8,1.8c0,0,0-0.1,0-0.1C365.1-725,366.2-726.7,368-727z
					 M375.5-713.2c-4.1,0.8-8-1.2-10-4.5c2.5,2.2,6,3.3,9.6,2.6c3.6-0.7,6.4-3,7.9-6C382.5-717.2,379.5-714,375.5-713.2z"/>
			</g>
			<g>
				<path fill="#FFFFFF" d="M404.1-698.7c-7.4,0.3-13.1,6.5-12.8,13.9s6.5,13.1,13.9,12.8c7.4-0.3,13.1-6.5,12.8-13.9
					C417.7-693.3,411.5-699,404.1-698.7z M409.5-691.5c1.8-0.1,3.3,1.3,3.4,3.1c0,0.1,0,0.2,0,0.3c-0.8-0.8-2-1.3-3.4-1.3
					c-1.3,0.1-2.3,0.6-3,1.3c0,0,0-0.1,0-0.1C406.4-689.9,407.8-691.4,409.5-691.5z M399.7-691.1c1.8-0.1,3.3,1.3,3.4,3.1
					c0,0.1,0,0.2,0,0.3c-0.8-0.8-2-1.3-3.4-1.3c-1.3,0.1-2.3,0.6-3,1.3c0,0,0-0.1,0-0.1C396.5-689.5,397.9-691,399.7-691.1z
					 M405-676.3c-4.1,0.2-7.7-2.3-9.2-6c2.2,2.6,5.5,4.2,9.1,4c3.6-0.2,6.8-2,8.7-4.8C412.6-679.3,409.2-676.5,405-676.3z"/>
			</g>
		</g>
	</g>
	<g>
		<g>
			<g>
				<circle fill="#3DA9DF" cx="204.3" cy="-552" r="18.4"/>
			</g>
			<g>
				<path fill="#3DA9DF" d="M204.3-528.1l6.6,6.6l-6.6,6.6l-6.6-6.6L204.3-528.1c-16.8,0-30.4,15.6-30.4,34.8
					c0,19.2,13.6,21.9,30.4,21.9c16.8,0,30.4-2.6,30.4-21.9C234.7-512.5,221.1-528.1,204.3-528.1z M204.3-478.4l-6.6-9.6l3.1-28.8
					l3.6,3.2l3.6-3.2l3.1,29L204.3-478.4z"/>
			</g>
		</g>
		<g>
			<path fill="#FFFFFF" d="M204.3-446c-41.3,0-74.9-33.6-74.9-74.9c0-41.3,33.6-74.9,74.9-74.9s74.9,33.6,74.9,74.9
				C279.2-479.6,245.6-446,204.3-446z M204.3-594.8c-40.7,0-73.9,33.1-73.9,73.9c0,40.7,33.1,73.9,73.9,73.9s73.9-33.1,73.9-73.9
				C278.2-561.6,245-594.8,204.3-594.8z"/>
		</g>
	</g>
	<g>
		<g>
			<g>
				<circle fill="#3DA9DF" cx="248.8" cy="-210.8" r="18.4"/>
			</g>
			<g>
				<path fill="#3DA9DF" d="M248.8-186.9l6.6,6.6l-6.6,6.6l-6.6-6.6L248.8-186.9c-16.8,0-30.4,15.6-30.4,34.8
					c0,19.2,13.6,21.9,30.4,21.9c16.8,0,30.4-2.6,30.4-21.9C279.2-171.3,265.6-186.9,248.8-186.9z M248.8-137.2l-6.6-9.6l3.1-28.8
					l3.6,3.2l3.6-3.2l3.1,29L248.8-137.2z"/>
			</g>
		</g>
		<g>
			<path fill="#FFFFFF" d="M248.8-104.8c-41.3,0-74.9-33.6-74.9-74.9c0-41.3,33.6-74.9,74.9-74.9s74.9,33.6,74.9,74.9
				C323.7-138.4,290.1-104.8,248.8-104.8z M248.8-253.6c-40.7,0-73.9,33.1-73.9,73.9c0,40.7,33.1,73.9,73.9,73.9
				s73.9-33.1,73.9-73.9C322.7-220.5,289.5-253.6,248.8-253.6z"/>
		</g>
	</g>
	<g>
		<g>
			<path fill="#FFFFFF" d="M-183.1-446c-41.3,0-74.9-33.6-74.9-74.9c0-41.3,33.6-74.9,74.9-74.9s74.9,33.6,74.9,74.9
				C-108.2-479.6-141.8-446-183.1-446z M-183.1-594.8c-40.7,0-73.9,33.1-73.9,73.9c0,40.7,33.1,73.9,73.9,73.9s73.9-33.1,73.9-73.9
				C-109.2-561.6-142.3-594.8-183.1-594.8z"/>
		</g>
		<g>
			<g>
				<path fill="#45AC0E" d="M-167.9-498c-4-4-9.5-6.4-15.5-6.4c-6.1,0-11.5,2.5-15.5,6.4l15.5,15.5L-167.9-498z"/>
			</g>
			<g>
				<path fill="#45AC0E" d="M-183.4-544.8c17.2,0,32.8,7,44,18.3l5.7-5.7c-12.7-12.7-30.3-20.6-49.7-20.6c-19.4,0-37,7.9-49.7,20.6
					l5.7,5.7C-216.1-537.8-200.5-544.8-183.4-544.8z"/>
			</g>
			<g>
				<path fill="#45AC0E" d="M-183.4-528.8c12.8,0,24.3,5.2,32.7,13.6l5.6-5.7c-9.8-9.8-23.4-15.9-38.4-15.9
					c-15,0-28.5,6.1-38.4,15.9l5.7,5.7C-207.7-523.6-196.1-528.8-183.4-528.8z"/>
			</g>
			<g>
				<path fill="#45AC0E" d="M-183.4-512.8c8.3,0,15.9,3.4,21.4,8.9l5.6-5.7c-6.9-6.9-16.5-11.2-27.1-11.2
					c-10.6,0-20.1,4.3-27.1,11.2l5.7,5.7C-199.3-509.4-191.7-512.8-183.4-512.8z"/>
			</g>
		</g>
	</g>
	<g>
		<g>
			<path fill="#FFFFFF" d="M9.4-446c-41.3,0-74.9-33.6-74.9-74.9c0-41.3,33.6-74.9,74.9-74.9s74.9,33.6,74.9,74.9
				C84.2-479.6,50.7-446,9.4-446z M9.4-594.8c-40.7,0-73.9,33.1-73.9,73.9c0,40.7,33.1,73.9,73.9,73.9c40.7,0,73.9-33.1,73.9-73.9
				C83.2-561.6,50.1-594.8,9.4-594.8z"/>
		</g>
		<g>
			<g>
				<path fill="#E17A00" d="M36.6-543.8c-10,0-56.7,0-56.7,0s-7.2,0-7.2,7.2v43.9c0,0-1.7,7.8,10.6,7.8c12.2,0,56.1,0,56.1,0
					s6.7,0,6.7-9.4s0-43.4,0-43.4S46.6-543.8,36.6-543.8z M35.2-531.6c2.3,0,4.2,1.9,4.2,4.2c0,2.3-1.9,4.2-4.2,4.2
					c-2.3,0-4.2-1.9-4.2-4.2C31.1-529.7,32.9-531.6,35.2-531.6z M35.2-521c2.3,0,4.2,1.9,4.2,4.2c0,2.3-1.9,4.2-4.2,4.2
					c-2.3,0-4.2-1.9-4.2-4.2C31.1-519.2,32.9-521,35.2-521z M26-508.9c0,9.2-7.4,16.6-16.5,16.6H-5.5c-9.1,0-16.5-7.4-16.5-16.6v-10
					c0-9.2,7.4-16.6,16.5-16.6H9.6c9.1,0,16.5,7.4,16.5,16.6V-508.9z M41.3-492H29.5c-0.7,0-1.2-0.6-1.2-1.2c0-0.7,0.6-1.2,1.2-1.2
					h11.8c0.7,0,1.2,0.6,1.2,1.2C42.5-492.6,42-492,41.3-492z M41.3-497.2H29.5c-0.7,0-1.2-0.6-1.2-1.2c0-0.7,0.6-1.2,1.2-1.2h11.8
					c0.7,0,1.2,0.6,1.2,1.2C42.5-497.8,42-497.2,41.3-497.2z"/>
			</g>
			<g>
				<path fill="#E17A00" d="M-13.9-476c1.8,0.2,5.5-7.1,5.5-7.1h-7.3C-15.7-479.1-15.7-476.2-13.9-476z"/>
			</g>
			<g>
				<path fill="#E17A00" d="M33.6-476c1.8-0.2,1.8-3.2,1.8-7.1H28C28-483.1,31.8-475.8,33.6-476z"/>
			</g>
			<g>
				<path fill="#E17A00" d="M4.1-545.6l4.4-0.2l-7.1-15.8c0,0-1.6-4.7-3.8-4.2c-2.2,0.6-0.2,3.6-0.2,3.6L4.1-545.6z"/>
			</g>
			<g>
				<path fill="#E17A00" d="M23.7-562.2c0,0,2-3-0.2-3.6c-2.2-0.6-3.8,4.2-3.8,4.2l-7.1,15.8l4.3,0.2L23.7-562.2z"/>
			</g>
		</g>
	</g>
	<g>
		<g>
			<path fill="#FFFFFF" d="M75,149.9c-41.3,0-74.9-33.6-74.9-74.9C0.1,33.7,33.7,0.1,75,0.1s74.9,33.6,74.9,74.9
				C149.9,116.3,116.3,149.9,75,149.9z M75,1.1C34.3,1.1,1.1,34.3,1.1,75c0,40.7,33.1,73.9,73.9,73.9c40.7,0,73.9-33.1,73.9-73.9
				C148.9,34.3,115.7,1.1,75,1.1z"/>
		</g>
		<g>
			<g>
				<path fill="#E17A00" d="M102.3,52.1c-10,0-56.7,0-56.7,0s-7.2,0-7.2,7.2v43.9c0,0-1.7,7.8,10.6,7.8c12.2,0,56.1,0,56.1,0
					s6.7,0,6.7-9.4s0-43.4,0-43.4S112.3,52.1,102.3,52.1z M100.9,64.3c2.3,0,4.2,1.9,4.2,4.2s-1.9,4.2-4.2,4.2
					c-2.3,0-4.2-1.9-4.2-4.2S98.6,64.3,100.9,64.3z M100.9,74.9c2.3,0,4.2,1.9,4.2,4.2c0,2.3-1.9,4.2-4.2,4.2
					c-2.3,0-4.2-1.9-4.2-4.2C96.7,76.7,98.6,74.9,100.9,74.9z M91.7,87c0,9.2-7.4,16.6-16.5,16.6H60.1c-9.1,0-16.5-7.4-16.5-16.6V77
					c0-9.2,7.4-16.6,16.5-16.6h15.1c9.1,0,16.5,7.4,16.5,16.6V87z M106.9,103.9H95.1c-0.7,0-1.2-0.6-1.2-1.2c0-0.7,0.6-1.2,1.2-1.2
					h11.8c0.7,0,1.2,0.6,1.2,1.2C108.2,103.3,107.6,103.9,106.9,103.9z M106.9,98.7H95.1c-0.7,0-1.2-0.6-1.2-1.2s0.6-1.2,1.2-1.2
					h11.8c0.7,0,1.2,0.6,1.2,1.2S107.6,98.7,106.9,98.7z"/>
			</g>
			<g>
				<path fill="#E17A00" d="M51.7,119.9c1.8,0.2,5.5-7.1,5.5-7.1h-7.3C49.9,116.8,49.9,119.7,51.7,119.9z"/>
			</g>
			<g>
				<path fill="#E17A00" d="M99.2,119.9c1.8-0.2,1.8-3.2,1.8-7.1h-7.3C93.7,112.8,97.4,120.1,99.2,119.9z"/>
			</g>
			<g>
				<path fill="#E17A00" d="M69.8,50.3l4.4-0.2L67,34.3c0,0-1.6-4.7-3.8-4.2c-2.2,0.6-0.2,3.6-0.2,3.6L69.8,50.3z"/>
			</g>
			<g>
				<path fill="#E17A00" d="M89.3,33.7c0,0,2-3-0.2-3.6c-2.2-0.6-3.8,4.2-3.8,4.2l-7.1,15.8l4.3,0.2L89.3,33.7z"/>
			</g>
		</g>
	</g>
	<g>
		<g>
			<path fill="#FFFFFF" d="M390.7-446c-41.3,0-74.9-33.6-74.9-74.9c0-41.3,33.6-74.9,74.9-74.9c41.3,0,74.9,33.6,74.9,74.9
				C465.6-479.6,432-446,390.7-446z M390.7-594.8c-40.7,0-73.9,33.1-73.9,73.9c0,40.7,33.1,73.9,73.9,73.9s73.9-33.1,73.9-73.9
				C464.6-561.6,431.4-594.8,390.7-594.8z"/>
		</g>
		<g>
			<g>
				<path fill="#A94274" d="M408.7-561.7c-14.1-1.1-26.3,9.4-27.4,23.5c-1.1,14.1,9.4,26.3,23.5,27.4c14.1,1.1,26.3-9.4,27.4-23.5
					C433.2-548.4,422.7-560.7,408.7-561.7z M417.4-546.9c3.4,0.3,6,3.2,5.7,6.6c0,0.2-0.1,0.4-0.1,0.6c-1.3-1.7-3.5-3-6.1-3.2
					c-2.4-0.2-4.6,0.6-6.1,1.8c0-0.1,0-0.1,0-0.2C411-544.7,413.9-547.2,417.4-546.9z M398.5-548.4c3.4,0.3,6,3.2,5.7,6.6
					c0,0.2-0.1,0.4-0.1,0.6c-1.3-1.7-3.5-3-6.1-3.2c-2.4-0.2-4.6,0.6-6.1,1.8c0-0.1,0-0.1,0-0.2
					C392.1-546.1,395.1-548.7,398.5-548.4z M405.3-519c-7.9-0.6-14.2-6.2-16.1-13.4c3.5,5.4,9.5,9.2,16.4,9.8
					c7,0.5,13.4-2.3,17.7-7.1C420.3-523,413.2-518.4,405.3-519z"/>
			</g>
			<g>
				<path fill="#A94274" d="M376.5-531.6c-11.8-0.9-22.2,7.9-23.1,19.8c-0.9,11.8,7.9,22.2,19.8,23.1c11.8,0.9,22.2-7.9,23.1-19.8
					C397.1-520.4,388.3-530.7,376.5-531.6z M383.8-519.1c2.9,0.2,5,2.7,4.8,5.6c0,0.2-0.1,0.3-0.1,0.5c-1.1-1.5-2.9-2.5-5.2-2.7
					c-2-0.2-3.9,0.5-5.1,1.5c0,0,0-0.1,0-0.1C378.4-517.2,380.9-519.4,383.8-519.1z M367.9-520.4c2.9,0.2,5,2.7,4.8,5.6
					c0,0.2-0.1,0.3-0.1,0.5c-1.1-1.5-2.9-2.5-5.2-2.7c-2-0.2-3.9,0.5-5.1,1.5c0,0,0-0.1,0-0.1C362.5-518.4,365.1-520.6,367.9-520.4z
					 M373.7-495.6c-6.6-0.5-12-5.2-13.6-11.3c3,4.6,8,7.8,13.8,8.2c5.9,0.5,11.3-1.9,14.9-6C386.3-498.9,380.3-495.1,373.7-495.6z"
					/>
			</g>
			<g>
				<path fill="#A94274" d="M364-564c-9.9,1.9-16.4,11.5-14.5,21.4c1.9,9.9,11.5,16.4,21.4,14.5s16.4-11.5,14.5-21.4
					C383.5-559.5,373.9-566,364-564z M372.8-555.5c2.4-0.5,4.7,1.1,5.2,3.5c0,0.1,0,0.3,0,0.4c-1.2-1-3-1.4-4.9-1.1
					c-1.7,0.3-3.1,1.3-3.9,2.4c0,0,0-0.1,0-0.1C368.8-552.7,370.4-555,372.8-555.5z M359.5-552.9c2.4-0.5,4.7,1.1,5.2,3.5
					c0,0.1,0,0.3,0,0.4c-1.2-1-3-1.4-4.9-1.1c-1.7,0.3-3.1,1.3-3.9,2.4c0,0,0-0.1,0-0.1C355.5-550.1,357.1-552.4,359.5-552.9z
					 M369.8-533.9c-5.6,1.1-11-1.6-13.7-6.2c3.5,3.1,8.3,4.6,13.2,3.6s8.8-4.1,10.9-8.3C379.4-539.5,375.4-535,369.8-533.9z"/>
			</g>
			<g>
				<path fill="#A94274" d="M409.1-514c-10.1,0.4-17.9,8.9-17.5,19c0.4,10.1,8.9,17.9,19,17.5c10.1-0.4,17.9-8.9,17.5-19
					C427.7-506.6,419.2-514.4,409.1-514z M416.6-504.2c2.4-0.1,4.5,1.8,4.6,4.2c0,0.1,0,0.3,0,0.4c-1-1.1-2.7-1.8-4.6-1.8
					c-1.7,0.1-3.2,0.8-4.2,1.8c0,0,0-0.1,0-0.1C412.2-502,414.1-504.1,416.6-504.2z M403-503.6c2.4-0.1,4.5,1.8,4.6,4.2
					c0,0.1,0,0.3,0,0.4c-1-1.1-2.7-1.8-4.6-1.8c-1.7,0.1-3.2,0.8-4.2,1.8c0,0,0-0.1,0-0.1C398.7-501.5,400.6-503.5,403-503.6z
					 M410.4-483.3c-5.7,0.2-10.6-3.2-12.6-8.2c3,3.6,7.5,5.8,12.5,5.6c5-0.2,9.3-2.8,12-6.6C420.7-487.4,416.1-483.5,410.4-483.3z"
					/>
			</g>
		</g>
	</g>
	<g>
		<circle fill="none" stroke="#414042" stroke-miterlimit="10" cx="-31.5" cy="-877.4" r="33.8"/>
		<polyline fill="none" stroke="#414042" stroke-miterlimit="10" points="-49.6,-868.4 -31.5,-886.5 -13.5,-868.4 		"/>
	</g>
	<path fill="none" stroke="#FFFFFF" stroke-miterlimit="10" d="M-174.1-853.5"/>
</g>
<g id="Layer_3">
	<polygon fill="none" stroke="#231F20" stroke-miterlimit="10" points="1418.7,-488.2 1355.5,-570.8 1395.5,-666.8 1498.6,-680.2 
		1561.8,-597.6 1521.8,-501.6 	"/>
	<polygon fill="none" stroke="#231F20" stroke-miterlimit="10" points="1562.1,-597.7 1498.9,-680.3 1538.8,-776.3 1642,-789.7 
		1705.1,-707.1 1665.2,-611.1 	"/>
	<polygon fill="none" stroke="#231F20" stroke-miterlimit="10" points="1608.5,-240.5 1545.3,-323.1 1585.3,-419.1 1688.4,-432.5 
		1751.6,-349.9 1711.6,-253.9 	"/>
	<polygon fill="none" stroke="#231F20" stroke-miterlimit="10" points="1585.3,-419.1 1522.1,-501.7 1562.1,-597.7 1665.2,-611.1 
		1728.3,-528.5 1688.4,-432.5 	"/>
	<polygon fill="none" stroke="#231F20" stroke-miterlimit="10" points="1751.8,-349.9 1688.6,-432.5 1728.5,-528.5 1831.7,-541.9 
		1894.8,-459.3 1854.9,-363.3 	"/>
	<polygon fill="none" stroke="#231F20" stroke-miterlimit="10" points="1441.9,-309.6 1378.8,-392.2 1418.7,-488.2 1521.8,-501.6 
		1585,-419 1545,-323 	"/>
	<polygon fill="none" stroke="#231F20" stroke-miterlimit="10" points="1728.5,-528.5 1665.4,-611.1 1705.3,-707.1 1808.4,-720.5 
		1871.6,-637.9 1831.7,-541.9 	"/>
	<g>
		
			<radialGradient id="SVGID_43_" cx="922.1404" cy="-3031.873" r="1277.6951" gradientTransform="matrix(1 0 0 1.4557 0 1381.7329)" gradientUnits="userSpaceOnUse">
			<stop  offset="0" style="stop-color:#FFFFFF"/>
			<stop  offset="0.4856" style="stop-color:#00A79D"/>
			<stop  offset="1" style="stop-color:#006862"/>
		</radialGradient>
		<rect x="-285.9" y="-2751.8" fill="url(#SVGID_43_)" width="2400" height="622"/>
		<pattern  id="SVGID_44_" xlink:href="#HEXAGON" patternTransform="matrix(1 0 0 1 -215.1116 -36.8249)">
		</pattern>
		<rect x="-285.9" y="-2751.8" fill="url(#SVGID_44_)" stroke="#231F20" stroke-miterlimit="10" width="2400" height="622"/>
	</g>
	<linearGradient id="SVGID_45_" gradientUnits="userSpaceOnUse" x1="-534.1214" y1="-2876.1196" x2="1527.2849" y2="-1181.3578">
		<stop  offset="0" style="stop-color:#231F20"/>
		<stop  offset="0.3309" style="stop-color:#282425"/>
		<stop  offset="0.7455" style="stop-color:#353335"/>
		<stop  offset="1" style="stop-color:#414042"/>
	</linearGradient>
	<rect x="-288.4" y="-1998.5" fill="url(#SVGID_45_)" width="2400" height="622"/>
	<g opacity="0.18">
		<g>
			<g>
				<polygon fill="none" stroke="#FFFFFF" stroke-miterlimit="10" points="-1934.8,-1410.9 -1887.6,-1438.8 -1842.8,-1409.2 
					-1840.8,-1466.7 -1797.5,-1490.4 -1810.8,-1336 -1850.1,-1308.9 -1889.4,-1329.1 -1892,-1281.1 -1935.6,-1249.4 				"/>
				<polygon fill="none" stroke="#FFFFFF" stroke-miterlimit="10" points="-1934.8,-1410.9 -1887.6,-1438.8 -1842.8,-1409.2 
					-1840.8,-1466.7 -1797.5,-1490.4 -1810.8,-1336 -1850.1,-1308.9 -1889.4,-1329.1 -1892,-1281.1 -1935.6,-1249.4 				"/>
				<polygon fill="none" stroke="#FFFFFF" stroke-miterlimit="10" points="-2093.1,-1489.2 -1956.5,-1411.6 -1956.5,-1355.5 
					-2046.7,-1410.4 -2043.3,-1355.5 -1956,-1299.6 -1956.5,-1249.4 -2080.6,-1336 				"/>
				<polygon fill="none" stroke="#FFFFFF" stroke-miterlimit="10" points="-1960.6,-1490.2 -1928.7,-1473.7 -1945.5,-1464.6 
					-2006.8,-1497.5 -1930.8,-1535.2 -1883.2,-1513.4 -1898.1,-1504.9 -1849.6,-1481 -1806.7,-1504.6 -1945.2,-1568.6 
					-2083.6,-1505.9 -1945.2,-1428 -1881.6,-1464.3 -1945.2,-1496.7 				"/>
				<polygon fill="none" stroke="#FFFFFF" stroke-miterlimit="10" points="-1849.6,-1471.4 -1840.8,-1466.7 -1797.5,-1490.4 
					-1806.7,-1495 				"/>
				<polygon fill="none" stroke="#FFFFFF" stroke-miterlimit="10" points="-1849.6,-1481 -1849.6,-1471.4 -1806.7,-1495 
					-1806.7,-1504.6 				"/>
				<polygon fill="none" stroke="#FFFFFF" stroke-miterlimit="10" points="-1849.6,-1481 -1898.1,-1504.9 -1898.1,-1494.3 
					-1849.6,-1471.4 				"/>
				<polygon fill="none" stroke="#FFFFFF" stroke-miterlimit="10" points="-1960.6,-1490.2 -1960.6,-1478.2 -1941,-1467 
					-1928.7,-1473.7 				"/>
				<polygon fill="none" stroke="#FFFFFF" stroke-miterlimit="10" points="-1930.8,-1535.2 -1930.8,-1524.6 -1894.4,-1507 
					-1883.2,-1513.4 				"/>
				<polygon fill="none" stroke="#FFFFFF" stroke-miterlimit="10" points="-1930.8,-1524.6 -1995,-1491.1 -2006.8,-1497.5 
					-1930.8,-1535.2 				"/>
				<polygon fill="none" stroke="#FFFFFF" stroke-miterlimit="10" points="-1945.2,-1428 -1945.2,-1416.4 -1881.6,-1453 
					-1881.6,-1464.3 				"/>
				<polygon fill="none" stroke="#FFFFFF" stroke-miterlimit="10" points="-1945.2,-1416.4 -1934.8,-1410.9 -1887.6,-1438.8 
					-1897.5,-1443.8 				"/>
				<polygon fill="none" stroke="#FFFFFF" stroke-miterlimit="10" points="-1945.2,-1416.4 -1945.2,-1256 -1935.6,-1249.4 
					-1934.8,-1410.9 				"/>
				<polygon fill="none" stroke="#FFFFFF" stroke-miterlimit="10" points="-1849.6,-1471.4 -1851.9,-1415.2 -1842.8,-1409.2 
					-1840.8,-1466.7 				"/>
				<polygon fill="none" stroke="#FFFFFF" stroke-miterlimit="10" points="-2083.6,-1505.9 -2083.6,-1494.9 -1945.2,-1416.4 
					-1945.2,-1428 				"/>
				<polygon fill="none" stroke="#FFFFFF" stroke-miterlimit="10" points="-1945.2,-1416.4 -1956.5,-1411.6 -1956.5,-1355.5 
					-1945.2,-1361.5 				"/>
				<polygon fill="none" stroke="#FFFFFF" stroke-miterlimit="10" points="-2093.1,-1489.2 -2083.6,-1494.9 -1945.2,-1416.4 
					-1956.5,-1411.6 				"/>
				<polygon fill="none" stroke="#FFFFFF" stroke-miterlimit="10" points="-1956,-1299.6 -1945.2,-1305.3 -1945.2,-1256 
					-1956.5,-1249.4 				"/>
				<polygon fill="none" stroke="#FFFFFF" stroke-miterlimit="10" points="-2036.3,-1404.1 -2034,-1360.5 -2043.3,-1355.5 
					-2046.7,-1410.4 				"/>
				<polygon fill="none" stroke="#FFFFFF" stroke-miterlimit="10" points="-1945.2,-1305.3 -2034,-1360.5 -2043.3,-1355.5 
					-1956,-1299.6 				"/>
			</g>
		</g>
		<g>
			<g>
				<polygon fill="none" stroke="#FFFFFF" stroke-miterlimit="10" points="-2154.1,-1217.8 -2122.8,-1217.8 -2122.8,-1176.5 
					-2061.9,-1176.5 -2061.9,-1154.7 -2157,-1154.7 				"/>
				<path fill="none" stroke="#FFFFFF" stroke-miterlimit="10" d="M-2260.9-1216.1l-7.5,61.3h32l0.4-20.9h68.7l1.1-40.4H-2260.9z
					 M-2187-1190.2h-43.4v-14.1h43.4V-1190.2z"/>
				<polygon fill="none" stroke="#FFFFFF" stroke-miterlimit="10" points="-2046.8,-1217.8 -2014.8,-1217.8 -2014.8,-1177 
					-1982.6,-1177 -1982.6,-1217.8 -1950.9,-1217.8 -1950.9,-1154.7 -2048.8,-1154.7 				"/>
				<path fill="none" stroke="#FFFFFF" stroke-miterlimit="10" d="M-1839.5-1217.8h-99.2v63.1h34.7v-23.1l32,23.1h32.5v-8.2
					l-31.5-21.2h31.5V-1217.8z M-1874.1-1190.5h-32.9v-14.4h32.9V-1190.5z"/>
				<path fill="none" stroke="#FFFFFF" stroke-miterlimit="10" d="M-1734-1154.7l-4.1-63.1h-94.7l2.4,63.1h33.5v-14h30.9v14H-1734z
					 M-1767.6-1184.6h-31.6v-12.4v-0.8h31.6V-1184.6z"/>
				<polygon fill="none" stroke="#FFFFFF" stroke-miterlimit="10" points="-1727.1,-1217.8 -1720.7,-1154.7 -1622.3,-1154.7 
					-1623.2,-1171 -1691.6,-1171.6 -1695,-1217.8 				"/>
				<rect x="-2230.4" y="-1204.3" fill="none" stroke="#FFFFFF" stroke-miterlimit="10" width="43.4" height="4.4"/>
				<polygon fill="none" stroke="#FFFFFF" stroke-miterlimit="10" points="-2268.3,-1154.7 -2267,-1150.9 -2233.7,-1150.9 
					-2236.3,-1154.7 				"/>
				<polygon fill="none" stroke="#FFFFFF" stroke-miterlimit="10" points="-2233.7,-1150.9 -2232.9,-1171.6 -2235.9,-1175.7 
					-2236.3,-1154.7 				"/>
				<polyline fill="none" stroke="#FFFFFF" stroke-miterlimit="10" points="-2232.9,-1171.6 -2170.3,-1171.6 -2167.2,-1175.7 
					-2235.9,-1175.7 				"/>
				<polygon fill="none" stroke="#FFFFFF" stroke-miterlimit="10" points="-2157,-1154.7 -2155.6,-1150.7 -2058.2,-1150.7 
					-2061.9,-1154.7 				"/>
				<polygon fill="none" stroke="#FFFFFF" stroke-miterlimit="10" points="-2061.9,-1154.7 -2061.9,-1176.5 -2058.2,-1173.6 
					-2058.2,-1150.7 				"/>
				<polygon fill="none" stroke="#FFFFFF" stroke-miterlimit="10" points="-2048.8,-1154.7 -2046.8,-1150.7 -1953.6,-1150.7 
					-1950.9,-1154.7 				"/>
				<rect x="-1907" y="-1204.9" fill="none" stroke="#FFFFFF" stroke-miterlimit="10" width="32.9" height="4"/>
				<polygon fill="none" stroke="#FFFFFF" stroke-miterlimit="10" points="-1839.5,-1184.1 -1842.8,-1179.2 -1863.7,-1179.2 
					-1871,-1184.1 				"/>
				<polygon fill="none" stroke="#FFFFFF" stroke-miterlimit="10" points="-1904,-1172 -1871.4,-1150.4 -1871.9,-1154.7 
					-1904,-1177.9 				"/>
				<polygon fill="none" stroke="#FFFFFF" stroke-miterlimit="10" points="-1839.5,-1154.7 -1840.7,-1150.6 -1871.4,-1150.4 
					-1871.9,-1154.7 				"/>
				<polygon fill="none" stroke="#FFFFFF" stroke-miterlimit="10" points="-1938.6,-1154.7 -1936.2,-1150.7 -1907.1,-1150.7 
					-1904,-1154.7 				"/>
				<rect x="-1799.2" y="-1197.8" fill="none" stroke="#FFFFFF" stroke-miterlimit="10" width="31.6" height="4.1"/>
				<polygon fill="none" stroke="#FFFFFF" stroke-miterlimit="10" points="-1830.4,-1154.7 -1827.9,-1150.8 -1795.3,-1150.8 
					-1796.9,-1154.7 				"/>
				<polygon fill="none" stroke="#FFFFFF" stroke-miterlimit="10" points="-1796.9,-1168.7 -1795.3,-1163.5 -1795.3,-1150.8 
					-1796.9,-1154.7 				"/>
				<polygon fill="none" stroke="#FFFFFF" stroke-miterlimit="10" points="-1796.9,-1168.7 -1766,-1168.7 -1766,-1163.5 
					-1795.3,-1163.5 				"/>
				<polygon fill="none" stroke="#FFFFFF" stroke-miterlimit="10" points="-1766,-1154.7 -1764.5,-1150.8 -1731.8,-1150.8 
					-1734,-1154.7 				"/>
				<polyline fill="none" stroke="#FFFFFF" stroke-miterlimit="10" points="-1738.1,-1217.8 -1734,-1154.7 -1731.8,-1150.8 
					-1736,-1214.1 -1738.1,-1217.8 				"/>
				<polyline fill="none" stroke="#FFFFFF" stroke-miterlimit="10" points="-1722.6,-1150.8 -1720.7,-1154.7 -1727.1,-1217.8 				
					"/>
				<polyline fill="none" stroke="#FFFFFF" stroke-miterlimit="10" points="-1727.1,-1217.8 -1728.3,-1209.9 -1722.6,-1150.8 				
					"/>
				<polyline fill="none" stroke="#FFFFFF" stroke-miterlimit="10" points="-1722.6,-1150.8 -1624.8,-1150.8 -1622.3,-1154.7 
					-1720.7,-1154.7 -1722.6,-1150.8 				"/>
			</g>
		</g>
	</g>
</g>
</svg>
