<?xml version="1.0" encoding="utf-8"?>
<!-- Generator: Adobe Illustrator 18.0.0, SVG Export Plug-In . SVG Version: 6.00 Build 0)  -->
<!DOCTYPE svg PUBLIC "-//W3C//DTD SVG 1.1//EN" "http://www.w3.org/Graphics/SVG/1.1/DTD/svg11.dtd">
<svg version="1.1" id="Layer_1" xmlns="http://www.w3.org/2000/svg" xmlns:xlink="http://www.w3.org/1999/xlink" x="0px" y="0px"
	 viewBox="0 0 100 100" enable-background="new 0 0 100 100" xml:space="preserve">
<path fill="#FFFFFF" d="M50,0C22.4,0,0,22.4,0,50c0,27.6,22.4,50,50,50s50-22.4,50-50C100,22.4,77.6,0,50,0z M46.9,20.2
	c2.8,5.6,4.9,14.1-1.9,16.8c-1.9-5.2-6.4-20.4-6.4-20.4S44.1,14.7,46.9,20.2z M51.9,80.3c-4.6-3.2-13.8-13-19.3-26.7
	c-3-7.5-3.9-15.6-3.9-24.8c0.2-8.1,3.6-10.4,7.2-11.4l6.4,20.2c0,0-4.5,1.5-2.6,7.2c0,0,1.7,10.2,9.7,19.9c1.1,1.8,2.8,1.8,5.3,0
	c1.7,4.3,9.4,18.6,9.4,18.6S59,85.3,51.9,80.3z M67.4,81.8l-9.8-18.4c5.6-3.2,8.3,0.8,8.3,0.8s2.6,5.2,4.9,9.3
	C73,77.7,67.4,81.8,67.4,81.8z"/>
</svg>
