<?xml version="1.0" encoding="utf-8"?>
<!-- Generator: Adobe Illustrator 18.0.0, SVG Export Plug-In . SVG Version: 6.00 Build 0)  -->
<!DOCTYPE svg PUBLIC "-//W3C//DTD SVG 1.1//EN" "http://www.w3.org/Graphics/SVG/1.1/DTD/svg11.dtd">
<svg version="1.1" id="Layer_1" xmlns="http://www.w3.org/2000/svg" xmlns:xlink="http://www.w3.org/1999/xlink" x="0px" y="0px"
	 viewBox="0 0 200 200" enable-background="new 0 0 200 200" xml:space="preserve">
<g>
	<g>
		<path fill="#666666" d="M100,200C44.9,200,0,155.2,0,100c0-55.1,44.9-100,100-100s100,44.8,100,100C200,155.2,155.1,200,100,200z
			 M100,3.1c-53.5,0-97,43.5-97,97c0,53.5,43.5,97,97,97s97-43.5,97-97C197,46.6,153.5,3.1,100,3.1z"/>
	</g>
	<g>
		<g>
			<g>
				<path fill="#424242" d="M78.3,148.6c0-0.6-5.4-1.9-7.4-5.6c-1.8-3.4-6-19.7-6.1-25.4c0-0.2-1.4-0.4-3-0.7c0,0,0,0,0,0
					c0.8,0.1,0.7,0.2,0,0.3c0,0,0,0.1,0,0.1c-0.7,4.3,3.3,21.9,5.3,25.6c2,3.7,7.4,5.1,7.4,5.6c0,0.6,0.7,5.2-5.2,7.5
					c-0.8,0.3-1.5,0.5-2.2,0.6c1.7,0.3,3.7,0.2,6-0.6C79,153.9,78.3,149.2,78.3,148.6z"/>
			</g>
			<g>
				<g>
					<path fill="#666666" d="M65.2,158.2L65.2,158.2c-4.4,0-7.5-2.4-9.2-3.6c-0.6-0.5-1.8-1.3-6.7-19.1c-2.4-8.6-4.6-17.1-4.6-17.2
						l-0.3-1.2l1.2-0.4c0.3-0.1,7.5-2.2,12-2.2c2,0,3.3,0.4,4,1.3c0.3,0.4,0.7,1.1,0.6,2.1c-0.3,1.7,0.6,6.4,2.2,12.4
						c1.4,5.2,3.1,10.5,4.1,12.2c1.2,2.2,3.9,3.5,5.5,4.3c1.2,0.6,2,1,2,2c0,0,0,0.1,0,0.1c0.2,4-1.9,7-6.1,8.6
						C68.3,157.9,66.7,158.2,65.2,158.2z M57.6,152.5c1.6,1.2,4.2,3.1,7.6,3.1h0c1.2,0,2.4-0.2,3.6-0.7c2.9-1.1,4.4-3,4.4-5.6
						c-0.2-0.1-0.4-0.2-0.6-0.3c-1.8-0.8-5.1-2.4-6.7-5.4c-1-2-2.8-7.2-4.3-12.8c-1-3.8-2.6-10.6-2.2-13.4c0,0,0,0,0,0
						c-0.1-0.1-0.6-0.3-2-0.3c-3.1,0-7.8,1.2-10.1,1.7C51.5,134.3,56.2,150.8,57.6,152.5z"/>
				</g>
			</g>
			<g>
				<path fill="#666666" d="M138.8,88.5c-3.3-25.4-16.1-44.2-28.6-42c-12.5,2.2-20,24.5-16.7,49.8c3.3,25.4,16.1,44.2,28.6,42
					C134.6,136.2,142.1,113.9,138.8,88.5z M123,135.1c-11,1.9-22.4-15.8-25.5-39.6s3.4-44.6,14.4-46.5c11-1.9,22.4,15.8,25.5,39.6
					S134,133.2,123,135.1z"/>
			</g>
			<g>
				<path fill="#666666" d="M114.2,96c-1.2-6.3-4.6-10.8-7.8-10c-3.1,0.8-4.7,6.5-3.5,12.8c1.2,6.3,4.6,10.8,7.8,10
					C113.8,108,115.3,102.3,114.2,96z M110.8,107.9c-2.7,0.7-5.8-3.6-6.9-9.5c-1.1-5.9,0.2-11.3,3-11.9s5.8,3.6,6.9,9.5
					C114.9,101.9,113.6,107.3,110.8,107.9z"/>
			</g>
			<g>
				<path fill="#6F6F6F" d="M104,49.6c0,0-0.1,0.2-0.4,0.7c-0.2,0.4-0.6,1-1.1,1.8c-0.5,0.8-1.1,1.7-1.8,2.8
					c-0.7,1.1-1.5,2.2-2.4,3.5c-0.9,1.3-1.9,2.6-3.1,4c-1.1,1.4-2.3,2.9-3.6,4.4c-1.3,1.5-2.6,3-4.1,4.5c-0.7,0.7-1.4,1.5-2.2,2.2
					c-0.4,0.4-0.7,0.7-1.1,1.1l-1.1,1.1c-1.5,1.5-3.1,2.9-4.7,4.2c-0.8,0.7-1.6,1.3-2.4,2c-0.8,0.6-1.6,1.3-2.4,1.8
					c-0.4,0.3-0.8,0.6-1.2,0.9c-0.4,0.3-0.8,0.6-1.2,0.8c-0.4,0.3-0.8,0.5-1.2,0.8c-0.4,0.3-0.8,0.5-1.1,0.8c-0.8,0.5-1.5,1-2.2,1.4
					c-0.7,0.4-1.5,0.8-2.1,1.2c-0.7,0.4-1.4,0.7-2,1c-0.3,0.2-0.6,0.3-1,0.5c-0.3,0.1-0.6,0.3-0.9,0.4c-0.3,0.1-0.6,0.3-0.9,0.4
					c-0.3,0.1-0.5,0.2-0.8,0.3c-0.5,0.2-1,0.4-1.4,0.5c-0.4,0.2-0.8,0.3-1.2,0.4c-0.3,0.1-0.6,0.2-0.9,0.3c-0.5,0.1-0.7,0.2-0.7,0.2
					s0.2-0.1,0.7-0.4c0.4-0.2,1.1-0.6,1.8-1c0.4-0.2,0.8-0.5,1.3-0.8c0.2-0.1,0.5-0.3,0.7-0.4c0.2-0.2,0.5-0.3,0.8-0.5
					c0.3-0.2,0.5-0.3,0.8-0.5c0.3-0.2,0.6-0.4,0.9-0.6c0.6-0.4,1.2-0.8,1.8-1.3c0.6-0.5,1.3-0.9,2-1.4c0.7-0.5,1.3-1,2.1-1.6
					c0.7-0.5,1.4-1.1,2.1-1.7c0.7-0.6,1.4-1.2,2.2-1.8c0.7-0.6,1.5-1.3,2.2-1.9c0.7-0.7,1.5-1.3,2.3-2c1.5-1.4,3-2.8,4.5-4.2
					l1.1-1.1c0.4-0.4,0.7-0.7,1.1-1.1c0.4-0.4,0.7-0.7,1.1-1.1c0.4-0.4,0.7-0.7,1.1-1.1c0.4-0.4,0.7-0.7,1.1-1.1
					c0.4-0.4,0.7-0.7,1.1-1.1c0.7-0.7,1.4-1.4,2.1-2.1c1.3-1.4,2.6-2.8,3.9-4.1c1.2-1.3,2.4-2.5,3.4-3.7c2.1-2.3,3.9-4.2,5.1-5.6
					C103.3,50.3,104,49.6,104,49.6z"/>
			</g>
			<g>
				<path fill="#6F6F6F" d="M56.7,115c0,0,0.3,0,0.7,0c0.5,0,1.2-0.2,2.1-0.1c0.2,0,0.5-0.1,0.7-0.1c0.3,0,0.5,0,0.8,0
					c0.5,0.1,1.1,0.1,1.8,0.2c0.6,0.1,1.3,0.2,2,0.3c0.4,0.1,0.7,0.1,1.1,0.2c0.4,0.1,0.7,0.1,1.1,0.2c1.5,0.3,3.2,0.7,4.9,1.2
					c0.4,0.1,0.9,0.2,1.3,0.4c0.4,0.1,0.9,0.3,1.3,0.4c0.9,0.3,1.8,0.6,2.7,0.9c1.9,0.6,3.8,1.3,5.7,2c0.5,0.2,1,0.4,1.4,0.6
					c0.5,0.2,1,0.4,1.4,0.6c1,0.4,1.9,0.8,2.9,1.2c1,0.4,1.9,0.8,2.9,1.2c0.9,0.4,1.9,0.8,2.8,1.3c0.5,0.2,0.9,0.4,1.4,0.6
					c0.5,0.2,0.9,0.4,1.4,0.6c0.9,0.4,1.8,0.9,2.7,1.3c1.7,0.9,3.4,1.7,5,2.6c1.6,0.8,3,1.6,4.4,2.4c2.7,1.5,4.9,2.9,6.5,3.9
					c0.8,0.5,1.4,0.9,1.8,1.2c0.4,0.3,0.6,0.4,0.6,0.4s-0.2-0.1-0.7-0.3c-0.5-0.2-1.1-0.4-2-0.8c-0.8-0.3-1.9-0.8-3-1.2
					c-1.2-0.5-2.5-1-3.9-1.6c-1.4-0.6-3-1.2-4.6-1.9c-1.6-0.7-3.3-1.4-5.1-2.2c-1.8-0.8-3.6-1.5-5.5-2.3c-0.9-0.4-1.9-0.8-2.8-1.2
					c-0.9-0.4-1.9-0.8-2.8-1.2c-1.9-0.8-3.8-1.6-5.7-2.4c-0.5-0.2-0.9-0.4-1.4-0.6c-0.5-0.2-0.9-0.4-1.4-0.6
					c-0.9-0.4-1.8-0.7-2.7-1.1c-0.9-0.3-1.8-0.7-2.6-1c-0.9-0.3-1.7-0.7-2.5-1c-1.7-0.6-3.2-1.2-4.7-1.7c-0.7-0.2-1.4-0.5-2.1-0.7
					c-0.7-0.2-1.3-0.4-1.9-0.6c-0.6-0.2-1.2-0.3-1.7-0.5c-0.3-0.1-0.5-0.1-0.8-0.2c-0.2-0.1-0.5-0.1-0.7-0.2
					c-0.2-0.1-0.4-0.1-0.6-0.2c-0.1,0-0.2-0.1-0.3-0.1c-0.1,0-0.2,0-0.3-0.1c-0.3-0.1-0.6,0.1-0.9,0C57,114.8,56.7,115,56.7,115z"/>
			</g>
			<g>
				<g>
					
						<rect x="99.9" y="81.2" transform="matrix(0.135 0.9908 -0.9908 0.135 173.1625 -23.9909)" fill="#666666" width="0.9" height="11.9"/>
				</g>
			</g>
			<g>
				<g>
					
						<rect x="103.9" y="103.9" transform="matrix(0.2306 0.9731 -0.9731 0.2306 187.1386 -17.0688)" fill="#666666" width="0.9" height="11.8"/>
				</g>
			</g>
			<g>
				<path fill="#666666" d="M48.3,122l19.4-4.4c-7.4-1.5-10.1-4.9-11.5-11.4c-1.8-8.2,1.6-15.6,7.5-16.6c0,0,0,0,0.1,0
					c-1-0.3-2-0.4-3-0.3l0,0l-0.1,0c-0.1,0-0.2,0-0.3,0l-20.3,2.3c-0.2,0-0.4,0-0.6,0.1c-6,0.9-9.3,8.3-7.5,16.5
					c1.7,7.9,7.7,13.9,13.4,13.4c0.9,0.2,1.8,0.4,2.7,0.4h0l0.1,0C48.2,122,48.3,122,48.3,122C48.3,122,48.3,122,48.3,122z"/>
			</g>
		</g>
		<g>
			<polygon fill="#666666" points="132.3,61.8 140.2,51.3 141.6,57.7 151.9,41.9 144.4,65.6 138.2,59.1 			"/>
		</g>
		<g>
			<polygon fill="#666666" points="145.5,112.5 156.2,120.2 149.8,121.8 165.8,131.8 141.9,124.7 148.4,118.4 			"/>
		</g>
		<g>
			<path fill="#666666" d="M143.9,83.5c-0.3-0.1,15.3-3,15.3-3l-4.9,7.8l14.3-2.1l-18.1,7.3l1.2-9.5L143.9,83.5z"/>
		</g>
	</g>
</g>
</svg>
