<?xml version="1.0" encoding="utf-8"?>
<!-- Generator: Adobe Illustrator 18.0.0, SVG Export Plug-In . SVG Version: 6.00 Build 0)  -->
<!DOCTYPE svg PUBLIC "-//W3C//DTD SVG 1.1//EN" "http://www.w3.org/Graphics/SVG/1.1/DTD/svg11.dtd">
<svg version="1.1" id="Layer_1" xmlns="http://www.w3.org/2000/svg" xmlns:xlink="http://www.w3.org/1999/xlink" x="0px" y="0px"
	 viewBox="0 0 722.7 272.1" enable-background="new 0 0 722.7 272.1" xml:space="preserve">
<rect x="-1061.5" y="-88.9" fill="#10081A" width="841.9" height="595.3"/>
<g>
	<linearGradient id="SVGID_1_" gradientUnits="userSpaceOnUse" x1="380.3026" y1="46.9388" x2="722.7288" y2="46.9388">
		<stop  offset="5.472640e-002" style="stop-color:#021623"/>
		<stop  offset="0.3234" style="stop-color:#024C84"/>
		<stop  offset="0.55" style="stop-color:#005EA1"/>
		<stop  offset="0.7273" style="stop-color:#00569C"/>
		<stop  offset="0.7983" style="stop-color:#0B4575"/>
		<stop  offset="0.9578" style="stop-color:#051A29"/>
		<stop  offset="1" style="stop-color:#000B14"/>
	</linearGradient>
	<path fill="url(#SVGID_1_)" d="M722.5,26.7c-1.8,0.2-3.5,0.5-5.1,1c-11.2,3.2-18.8,12.5-24.8,21.5c-13.5,20.2-37.4,31.2-47.2,32.6
		c-3.4,0.5-7.1,0.8-10.8,0.9c-36.3,0.8-73.4-18.8-73.8-19l-0.8-0.4l0.5-0.7c0.2-0.2,1.9-2.7,5.3-5.4c4.3-3.5,11.3-7.3,21-7.6
		c2.9-0.1,5.8,0.2,8.8,0.8c1.3,0.3,2.7,0.4,4.3,0.3c11.5-0.3,25.9-8.5,37-14.5c0.1-0.1,0.3-0.1,0.4-0.2c6.4-3.5,11.1-6,13.3-6.1
		c1,0,1.5,0.5,1.6,0.8c0.6,1.2,0,3.4-5.3,10.5c-0.1,0.2-0.3,0.3-0.4,0.5c-1.8,2.4-2.4,4.1-1.8,5.3c0.9,1.9,4.9,3,12.4,3.6
		c0.1,0,0.2,0,0.3,0c4.4-0.1,22.4-5,31.7-26.6c4.7-11,4.5-21.5,4-24l0,0c-1.3,1.3-2.8,2.6-4.3,3.8c-10,7.9-24.7,13.4-43.1,16.9
		c-2.7,0.5-5.5,1-8.4,1.4c-7,1-14.4,1.9-22.3,2.4c-40.2,2.9-103.2-19.9-173.4,3.6c-13.2,4.4-25.3,11.7-35.6,22.1
		c-2.9,2.9-5.6,6.1-8.2,9.5c-7.9,10.6-13.9,22.7-17.7,34.3c28.7-17.2,57-27.5,89.7-28.2c36-0.8,70.5,8.4,101,16.5
		c6.3,1.7,12.2,3.2,18.1,4.7c19.6,5,37.5,7.3,53.2,6.9c27.4-0.6,48.3-9.2,62.1-25.5c10.7-12.6,17.2-27.4,18.3-41.6L722.5,26.7z"/>
	<g>
		<linearGradient id="SVGID_2_" gradientUnits="userSpaceOnUse" x1="604.6638" y1="86.7421" x2="604.6638" y2="300.1866">
			<stop  offset="0" style="stop-color:#7E682A"/>
			<stop  offset="0.2796" style="stop-color:#FFF3CA"/>
			<stop  offset="0.672" style="stop-color:#7E672A"/>
			<stop  offset="0.8226" style="stop-color:#A8873A"/>
			<stop  offset="0.8354" style="stop-color:#9F8137"/>
			<stop  offset="0.9107" style="stop-color:#735F2A"/>
			<stop  offset="0.9679" style="stop-color:#5B4C20"/>
			<stop  offset="1" style="stop-color:#53461D"/>
		</linearGradient>
		<path fill="url(#SVGID_2_)" d="M604.5,226.1c0.1,0.1,0.2,0.1,0.3,0.2C604.7,226.2,604.6,226.2,604.5,226.1L604.5,226.1z"/>
		<linearGradient id="SVGID_3_" gradientUnits="userSpaceOnUse" x1="152.8104" y1="12.5193" x2="152.8104" y2="151.1509">
			<stop  offset="0" style="stop-color:#7E682A"/>
			<stop  offset="0.5035" style="stop-color:#FFF3CA"/>
			<stop  offset="1" style="stop-color:#53461D"/>
		</linearGradient>
		<path fill="url(#SVGID_3_)" d="M142.9,184.1l-0.3,1c-0.5,1.8-1,3.4-1.4,4.8c-0.6,2.1-1,3.7-1.3,4.7c-0.2,1-0.4,2-0.4,3
			c0,3.6,1.9,7,5.3,9.3c2.5,1.8,5.7,2.9,9.3,3.4c-2-0.6-3.9-1.5-5.4-2.6c-3.4-2.4-5.2-5.7-5.3-9.3c0-1,0.1-2,0.4-3
			c0.3-1,0.7-2.6,1.3-4.7c0.4-1.4,0.9-3,1.4-4.8l0.3-1c5.8-20.1,17.6-59.7,18.7-63.3l0.6-1.9l-3.8-0.8l-0.6,1.9
			C160.5,124.5,148.7,164,142.9,184.1z"/>
		<linearGradient id="SVGID_4_" gradientUnits="userSpaceOnUse" x1="182.3591" y1="12.5195" x2="182.3591" y2="151.151">
			<stop  offset="0" style="stop-color:#7E682A"/>
			<stop  offset="0.5035" style="stop-color:#FFF3CA"/>
			<stop  offset="1" style="stop-color:#53461D"/>
		</linearGradient>
		<path fill="url(#SVGID_4_)" d="M218.8,119.1c0,0-3.4-0.8-3.8-0.8l-0.7,2.2c-6.1,20.5-15.8,52.9-20.7,69.3l-2.9,9.7
			c-0.5,1.6-1.4,4.2-2.8,7c-2.8,5.5-8.1,13-17.6,17.2c-0.8,0.3-2.4,1-4.9,1.7c-1.4,0.4-2.8,0.7-4.2,1c-0.8,0.2-1.6,0.3-2.4,0.4
			c-2.3,0.3-4.5,0.5-6.7,0.5h-0.1c-2.2,0-4.3-0.2-6.3-0.5c3,0.9,6.4,1.3,10.1,1.3h0.1c2.1,0,4.4-0.2,6.7-0.5
			c0.8-0.1,1.6-0.3,2.4-0.4c1.4-0.3,2.8-0.6,4.2-1c2.5-0.7,4.1-1.4,4.9-1.7c9.5-4.3,14.8-11.7,17.6-17.2c1.5-2.9,2.3-5.4,2.8-7
			l2.9-9.7c4.9-16.5,14.6-48.9,20.7-69.3L218.8,119.1z"/>
		<linearGradient id="SVGID_5_" gradientUnits="userSpaceOnUse" x1="295.957" y1="12.5195" x2="295.957" y2="151.1516">
			<stop  offset="0" style="stop-color:#7E682A"/>
			<stop  offset="0.5035" style="stop-color:#FFF3CA"/>
			<stop  offset="1" style="stop-color:#53461D"/>
		</linearGradient>
		<path fill="url(#SVGID_5_)" d="M310.7,127.2c0.7-2.4,1.3-4.3,1.7-5.7l0.6-2l-3.8-0.8l-0.6,2c-0.4,1.4-1,3.3-1.7,5.7l-0.3,0.9
			c-2.6,8.6-6.6,21.7-10.5,35.2c-2.6,8.8-5.3,17.8-7.6,25.4l-1.8,5.8c-3.3,10.9-6.1,20.2-6.3,21.5c-0.2,1.4-0.5,2.9-0.7,4.3
			l-0.2,1.2c-0.3,1.8-0.6,3.8-0.7,5c0,0.1,0,0.2,0,0.4l0.2,2.6l3.8,0.8l-0.2-2.6c0-0.1,0-0.2,0-0.4c0-1.2,0.3-3.2,0.7-5l0.2-1.2
			c0.3-1.5,0.5-3,0.7-4.3c0.2-1.3,3-10.7,6.3-21.5l1.8-5.8c2.3-7.6,5-16.5,7.6-25.4c3.9-13.5,7.9-26.6,10.5-35.2L310.7,127.2z"/>
		<linearGradient id="SVGID_6_" gradientUnits="userSpaceOnUse" x1="253.8944" y1="12.5194" x2="253.8944" y2="151.1516">
			<stop  offset="0" style="stop-color:#7E682A"/>
			<stop  offset="0.5035" style="stop-color:#FFF3CA"/>
			<stop  offset="1" style="stop-color:#53461D"/>
		</linearGradient>
		<path fill="url(#SVGID_6_)" d="M243.2,209.8c-1-0.9-2-1.9-2.8-3c-1.7-2.3-2.9-4.9-3.6-7.7c-0.1-0.3-0.1-0.7-0.2-1
			c-0.1-0.7-0.2-1.4-0.2-2.1c-0.1-1.4,0-2.7,0.3-4l0.2-0.9c1-4.2,2.4-8.9,3.8-13.9c0.5-1.9,1.1-3.8,1.6-5.7
			c3.4-12.1,5.7-20.1,10.1-27.3c5-8.3,12.7-10,18.3-10c1.6,0,3.1,0.1,4.6,0.4c-2.6-0.7-5.5-1.2-8.4-1.2c-5.6,0-13.3,1.7-18.3,10
			c-4.4,7.3-6.7,15.2-10.1,27.3c-0.5,1.9-1.1,3.8-1.6,5.7c-1.5,5-2.8,9.7-3.8,13.9l-0.2,0.9c-0.3,1.2-0.4,2.6-0.3,4
			c0,0.7,0.1,1.4,0.2,2.1c0.1,0.3,0.1,0.7,0.2,1c0.6,2.8,1.9,5.4,3.6,7.7c0.9,1.1,1.8,2.2,2.8,3c1,0.9,2.2,1.6,3.3,2.1
			c1.4,0.6,2.8,0.9,4.2,1c-0.1,0-0.2-0.1-0.3-0.1C245.3,211.4,244.2,210.7,243.2,209.8z"/>
		<linearGradient id="SVGID_7_" gradientUnits="userSpaceOnUse" x1="280.9988" y1="12.5194" x2="280.9988" y2="151.151">
			<stop  offset="0" style="stop-color:#7E682A"/>
			<stop  offset="0.5035" style="stop-color:#FFF3CA"/>
			<stop  offset="1" style="stop-color:#53461D"/>
		</linearGradient>
		<path fill="url(#SVGID_7_)" d="M289.5,126.6c-4.2-2.4-10.1-5-17-6.2c7.1,1.8,12.8,5,16.3,7.3C289,127.3,289.2,127,289.5,126.6z"/>
		<linearGradient id="SVGID_8_" gradientUnits="userSpaceOnUse" x1="577.4001" y1="12.5191" x2="577.4001" y2="151.1514">
			<stop  offset="0" style="stop-color:#7E682A"/>
			<stop  offset="0.5035" style="stop-color:#FFF3CA"/>
			<stop  offset="1" style="stop-color:#53461D"/>
		</linearGradient>
		<path fill="url(#SVGID_8_)" d="M564.2,207.3c-3.6-4.4-5.2-10.4-4.1-15.2c1-4.4,2.4-9.3,4-14.6c0.6-1.9,1.1-3.8,1.7-5.8
			c3.4-12.1,5.7-20.1,10.1-27.3c0.8-1.3,1.7-2.6,2.8-3.7c4.9-5.2,11.2-6.3,15.6-6.3c1.6,0,3.1,0.1,4.5,0.4c-2.3-0.6-5.2-1.2-8.4-1.2
			c-4.4,0-10.7,1.1-15.6,6.3c-1,1.1-1.9,2.3-2.8,3.7c-4.4,7.3-6.7,15.3-10.1,27.3c-0.6,1.9-1.1,3.9-1.7,5.8c-1.6,5.3-3,10.2-4,14.6
			c-1.1,4.8,0.5,10.8,4.1,15.2c2.8,3.5,6.3,5.4,9.9,5.5C568.1,211.1,566,209.5,564.2,207.3z"/>
		<linearGradient id="SVGID_9_" gradientUnits="userSpaceOnUse" x1="619.4881" y1="12.5194" x2="619.4881" y2="151.1518">
			<stop  offset="0" style="stop-color:#7E682A"/>
			<stop  offset="0.5035" style="stop-color:#FFF3CA"/>
			<stop  offset="1" style="stop-color:#53461D"/>
		</linearGradient>
		<path fill="url(#SVGID_9_)" d="M632.2,133.7l1.8-5.9c0.8-2.6,1.5-4.8,1.9-6.3l0.6-2l-3.9-0.7l-0.6,1.9c-0.5,1.5-1.1,3.7-1.9,6.3
			l-1.8,5.9c-2.2,7.3-5.5,18.2-8.7,29.5c-3.7,12.9-7.8,26.5-10.8,36.3c-2.5,8.3-4.7,15.3-4.8,16.4c-0.2,1.4-0.5,2.9-0.7,4.3
			c-0.5,2.6-0.9,5.3-0.8,6.6l0.2,2.6l3.8,0.8l-0.2-2.6c-0.1-1.3,0.4-4,0.8-6.6c0.3-1.5,0.5-3,0.7-4.3c0.2-1.1,2.3-8.1,4.8-16.4
			c3-9.9,7.1-23.4,10.8-36.3C626.7,152,630,141,632.2,133.7z"/>
		<linearGradient id="SVGID_10_" gradientUnits="userSpaceOnUse" x1="338.4775" y1="12.5195" x2="338.4775" y2="151.1515">
			<stop  offset="0" style="stop-color:#7E682A"/>
			<stop  offset="0.5035" style="stop-color:#FFF3CA"/>
			<stop  offset="1" style="stop-color:#53461D"/>
		</linearGradient>
		<path fill="url(#SVGID_10_)" d="M346.4,72.8c6.2,6.8,9.1,16.8,8.1,27.4c-0.1,0.9-0.2,1.8-0.3,2.7c0,0.2,0,0.5-0.1,0.8l-0.1,0.3
			c-0.1,0.6-0.2,1.2-0.3,1.8c-0.9,4-11.3,39.1-20.4,70.1l-2.3,7.6c-3.8,13-7.3,24.7-9.4,31.9c-1.3,4.6-2.1,7.1-2.2,7.7
			c-0.7,3-1,5.9-0.9,8.6c0.1,6.5,2.3,12.3,6.4,16.7c0.3,0.4,0.7,0.7,1,1c3.8,3.6,9,6.1,14.1,6.8c-3.8-1.1-7.4-3.2-10.3-5.9
			c-0.4-0.3-0.7-0.7-1-1c-4.1-4.4-6.3-10.2-6.4-16.7c0-2.7,0.3-5.6,0.9-8.6c0.1-0.5,0.8-3.1,2.2-7.7c2.1-7.3,5.5-18.9,9.4-31.9
			l2.3-7.6c9.1-31,19.5-66.2,20.4-70.1c0.1-0.6,0.2-1.2,0.3-1.8l0.1-0.3c0.1-0.4,0.2-0.7,0.1-0.8c0.1-0.9,0.3-1.8,0.3-2.7
			c1.1-10.6-1.9-20.6-8.1-27.4c-4.2-4.6-9.6-7.5-15.4-8.3C339.2,66.7,343.2,69.2,346.4,72.8z"/>
		<linearGradient id="SVGID_11_" gradientUnits="userSpaceOnUse" x1="366.4791" y1="12.5195" x2="366.4791" y2="151.1509">
			<stop  offset="0" style="stop-color:#7E682A"/>
			<stop  offset="0.5035" style="stop-color:#FFF3CA"/>
			<stop  offset="1" style="stop-color:#53461D"/>
		</linearGradient>
		<path fill="url(#SVGID_11_)" d="M394.1,121.6l0.6-1.9l-3.9-0.8l-0.6,1.9c-0.3,1.1-3.9,12.9-8.5,28.1c-15.7,52-20.7,68.5-22.3,73.7
			c-0.7,2.4-1.4,3.9-2.4,4.7c-1.7,1.4-3.6,1.7-8.3,1.7c-1.2,0-2.5,0-4.1,0l-6.1-0.3c0,0-0.2,0.6-0.3,0.8l10.3,0.3c1.6,0,2.9,0,4.1,0
			c4.7,0,6.6-0.3,8.3-1.7c0.9-0.8,1.6-2.2,2.4-4.7c1.6-5.3,6.6-21.7,22.3-73.7C390.2,134.5,393.8,122.7,394.1,121.6z"/>
		<linearGradient id="SVGID_12_" gradientUnits="userSpaceOnUse" x1="510.2278" y1="12.5195" x2="510.2278" y2="151.1518">
			<stop  offset="0" style="stop-color:#7E682A"/>
			<stop  offset="0.5035" style="stop-color:#FFF3CA"/>
			<stop  offset="1" style="stop-color:#53461D"/>
		</linearGradient>
		<path fill="url(#SVGID_12_)" d="M522.4,127c-4.1-3.5-9-5.7-14.7-6.5c4.1,1.1,7.7,3,10.9,5.7c2.4,2,10.3,9.6,10,21.4
			c-0.1,2.1-0.3,4.1-0.8,6.1c-0.4,1.7-0.9,3.5-1.5,5.3c-0.7,2.4-1.5,5.1-2.2,8.1c-0.7,2.9-1.8,6.5-2.7,9.6
			c-0.9,2.8-8.7,28.4-8.7,28.4l-0.1,0.2c-1.3,3.7-2.5,7.3-4.2,10.3c-1.4,2.5-2.9,4.6-4.6,6.5c-0.5,0.6-1,1.1-1.6,1.6
			c-0.3,0.3-1.8,1.6-1.8,1.6c-0.4,0.3-0.9,0.6-1.3,0.9c-2.8,1.7-6,2.4-9.5,2.2l-1.6-0.1l3.6,0.9c0,0,4,0.1,5.1-0.1
			c2-0.2,3.8-0.8,5.6-1.7c0.7-0.4,1.4-0.8,2-1.3l0.9-0.7c0.3-0.3,0.6-0.6,1-0.9c2.3-2.2,4.3-4.8,6.1-8.1c1.7-3,2.9-6.6,4.2-10.3
			l0.1-0.2c0,0,7.8-25.5,8.7-28.4c0.9-3.1,2-6.7,2.7-9.6c0.7-3,1.5-5.7,2.2-8.1c0.5-1.9,1-3.6,1.5-5.3c0.5-2,0.8-4,0.8-6.1
			C532.7,136.6,524.8,129.1,522.4,127z"/>
		<linearGradient id="SVGID_13_" gradientUnits="userSpaceOnUse" x1="461.2759" y1="12.5193" x2="461.2759" y2="151.1513">
			<stop  offset="0" style="stop-color:#7E682A"/>
			<stop  offset="0.5035" style="stop-color:#FFF3CA"/>
			<stop  offset="1" style="stop-color:#53461D"/>
		</linearGradient>
		<path fill="url(#SVGID_13_)" d="M468.1,131.6c0.6-0.6,1.2-1.3,1.9-1.9c-0.8-1-1.7-1.9-2.7-2.7c-4.1-3.5-9-5.7-14.7-6.5
			c4.1,1.1,7.7,3,10.9,5.7C465.2,127.7,466.8,129.5,468.1,131.6z"/>
		<linearGradient id="SVGID_14_" gradientUnits="userSpaceOnUse" x1="466.3501" y1="12.5197" x2="466.3501" y2="151.1517">
			<stop  offset="0" style="stop-color:#7E682A"/>
			<stop  offset="0.5035" style="stop-color:#FFF3CA"/>
			<stop  offset="1" style="stop-color:#53461D"/>
		</linearGradient>
		<path fill="url(#SVGID_14_)" d="M489.9,136.2c-4.5,0.4-7.7,3.4-10.1,6.3c-1.7,2-2.7,5.5-3.7,9.2l-2.1,7.2
			c-4.8,16.3-13.6,46.6-16.7,54.4c-3.8,9.8-9.4,11.4-15.8,13.2l-1.5,0.4c-0.3,0.1-1.2,0.3-2.2,0.5c-1,0.2-2.1,0.5-2.9,0.7l-2.2,0.5
			l3.8,0.8l2.2-0.5c0.8-0.2,1.9-0.4,2.9-0.7c1-0.2,1.8-0.4,2.2-0.5l1.5-0.4c6.4-1.8,12-3.4,15.8-13.2c3.1-7.8,11.9-38.1,16.7-54.4
			l2.1-7.2c1.1-3.8,2.1-7.3,3.7-9.2c2.5-2.9,5.6-5.9,10.1-6.3c2.1-0.2,4.2-0.2,6.2,0.1c0,0,0,0,0.1,0c-1.2-0.4-2.5-0.7-3.9-0.8
			C494.1,136.1,492,136,489.9,136.2z"/>
		<linearGradient id="SVGID_15_" gradientUnits="userSpaceOnUse" x1="412.1961" y1="12.5194" x2="412.1961" y2="151.1512">
			<stop  offset="0" style="stop-color:#7E682A"/>
			<stop  offset="0.5035" style="stop-color:#FFF3CA"/>
			<stop  offset="1" style="stop-color:#53461D"/>
		</linearGradient>
		<path fill="url(#SVGID_15_)" d="M434.1,136.2c-4.5,0.4-7.7,3.4-10.1,6.3c-1.7,2-2.7,5.5-3.8,9.3l-0.5,1.7
			c-0.8,2.7-1.8,5.9-2.8,9.5l-0.1,0.2c-0.7,2.4-1.5,4.9-2.3,7.5c-1,3.4-2,6.8-3,10.3c-3,10.6-6.1,20.8-8.2,27.6l-0.1,0.2
			c-0.6,2.1-1.2,3.8-1.5,5c-2.9,9.9-9.4,11.6-15.6,13.2c-1.4,0.4-2.9,0.8-4.4,1.2l-2.4,0.8l3.8,0.8l2.3-0.8c1.5-0.5,3-0.9,4.4-1.3
			c6.2-1.6,12.6-3.3,15.6-13.2c0.3-1.2,0.9-2.9,1.5-5l0.1-0.2c2.1-6.8,5.2-17.1,8.2-27.6c1-3.5,2-7,3-10.3c0.8-2.6,1.5-5.1,2.3-7.5
			l0.1-0.2c1.1-3.6,2.1-6.8,2.8-9.5l0.5-1.7c1.1-3.8,2.1-7.3,3.8-9.3c2.5-2.9,5.6-5.9,10.1-6.3c2-0.2,5-0.1,6.9,0.1c0,0,0.1,0,0.1,0
			c-1.2-0.4-2.6-0.7-3.9-0.8C439.1,136.1,436.1,136,434.1,136.2z"/>
		<linearGradient id="SVGID_16_" gradientUnits="userSpaceOnUse" x1="666.3525" y1="12.5193" x2="666.3525" y2="151.1511">
			<stop  offset="0" style="stop-color:#7E682A"/>
			<stop  offset="0.5035" style="stop-color:#FFF3CA"/>
			<stop  offset="1" style="stop-color:#53461D"/>
		</linearGradient>
		<path fill="url(#SVGID_16_)" d="M710.1,127.8c-0.3-0.3-0.6-0.6-0.9-0.8c-4.1-3.5-9-5.7-14.7-6.5c4.1,1.1,7.7,3,10.9,5.7
			c0.3,0.3,0.6,0.5,0.9,0.8l1.1,1.1l-1.3,0.9c-4.8,3.2-11.7,7.3-17.8,8.4l-0.3,0l-0.3-0.1c-0.4-0.1-0.8-0.2-1.2-0.3l-0.3-0.1
			c-1.1-0.3-4-0.8-6.3-0.9c-1-0.1-1.8,0-3.3,0.1c-4.5,0.4-7.7,3.4-10.1,6.3c-1.7,2-3.3,5.6-4.9,11c-3.5,12-10.1,34.2-14.5,48.9
			l-3.3,11.1c-3,10.1-9.3,11.9-16,13.7c-1.3,0.4-2.7,0.7-4,1.2l-2.3,0.8l3.8,0.8l2.3-0.8c1.3-0.4,2.7-0.8,4-1.2
			c6.7-1.8,13-3.6,16-13.7l3.3-11.1c4.4-14.7,11-36.8,14.5-48.9c1.6-5.4,3.2-9,4.9-11c2.5-2.9,5.6-5.9,10.1-6.3
			c1.5-0.1,2.4-0.2,3.3-0.1c2.3,0.1,5.2,0.6,6.3,0.9l0.3,0.1c0.4,0.1,0.8,0.2,1.2,0.3l0.3,0.1l0.3,0c6.1-1.1,13-5.2,17.8-8.4
			l1.3-0.9L710.1,127.8z"/>
		<linearGradient id="SVGID_17_" gradientUnits="userSpaceOnUse" x1="113.1134" y1="12.5195" x2="113.1134" y2="151.1516">
			<stop  offset="0" style="stop-color:#7E682A"/>
			<stop  offset="0.5035" style="stop-color:#FFF3CA"/>
			<stop  offset="1" style="stop-color:#53461D"/>
		</linearGradient>
		<path fill="url(#SVGID_17_)" d="M122.5,83.1c5.5,8,4.9,16.8,3.5,22.7l-0.7,2.9l2.9,2.7c0,0,2.4-8.7,2.5-10.9
			c0.3-5.1-0.6-11-4.4-16.6c-5.5-8.1-15.9-13.6-30.8-16.6C108.4,70.5,117.4,75.8,122.5,83.1z"/>
		<linearGradient id="SVGID_18_" gradientUnits="userSpaceOnUse" x1="126.8728" y1="12.5194" x2="126.8728" y2="151.1514">
			<stop  offset="0" style="stop-color:#7E682A"/>
			<stop  offset="0.5035" style="stop-color:#FFF3CA"/>
			<stop  offset="1" style="stop-color:#53461D"/>
		</linearGradient>
		<path fill="url(#SVGID_18_)" d="M117.2,105.8c6.1,9.3,2.9,21.7,1.2,28.4l-0.1,0.3c-2.4,9.2-19.8,66.9-20,67.3
			c-1.4,3.9-0.4,5.6,0.4,7c13.2,22.2,27.9,36.2,46.2,44.1c2.6,1.1,6.5,2.3,11.2,3.1c-3-0.7-5.5-1.5-7.4-2.3
			c-18.4-7.9-33.1-21.9-46.2-44.1c-0.8-1.4-1.8-3.1-0.4-7c0.1-0.4,17.6-58.1,20-67.3l0.1-0.3c1.7-6.7,4.9-19.1-1.2-28.4
			c-3.3-5-9.6-10.8-21.6-12.9C109,96.3,114.3,101.4,117.2,105.8z"/>
		<linearGradient id="SVGID_19_" gradientUnits="userSpaceOnUse" x1="32.1633" y1="12.5196" x2="32.1633" y2="151.1514">
			<stop  offset="0" style="stop-color:#7E682A"/>
			<stop  offset="0.5035" style="stop-color:#FFF3CA"/>
			<stop  offset="1" style="stop-color:#53461D"/>
		</linearGradient>
		<path fill="url(#SVGID_19_)" d="M22.9,173.9c1.4-5.4,3.2-11.5,5.4-19.1c-1.1-0.9-2.2-1.7-3.3-2.5c-2.5,8.4-4.4,15-5.9,20.8
			c-1.3,5.1-3.5,17.6,4.6,24.7c6.7,5.8,14.9,9.7,23,11c-6.8-1.8-13.5-5.3-19.1-10.2C19.3,191.6,21.5,179,22.9,173.9z"/>
		<linearGradient id="SVGID_20_" gradientUnits="userSpaceOnUse" x1="60.3271" y1="12.5194" x2="60.3271" y2="151.1517">
			<stop  offset="0" style="stop-color:#7E682A"/>
			<stop  offset="0.5035" style="stop-color:#FFF3CA"/>
			<stop  offset="1" style="stop-color:#53461D"/>
		</linearGradient>
		<path fill="url(#SVGID_20_)" d="M44.8,100.4c-6.2,9.8-11.6,23.3-16,40.1c0.9,0.4,1.8,0.8,2.7,1.3c2.6,1.6,4.7,2.9,6.7,4.1
			c15.9,10.8,33.7,30.5,45.3,45.8c0.2-0.8,0.5-1.7,0.9-3c-11.6-14.6-27.7-32.1-42.4-42c-2-1.2-4.2-2.5-6.7-4.1
			c-1-0.5-1.9-0.9-2.7-1.3c4.4-16.7,9.8-30.2,16-40.1c9.1-14.3,23-17.3,33.1-17.3c3.3,0,6.7,0.3,10.1,0.9c-4.7-1.2-9.4-1.8-14-1.8
			C67.8,83.1,53.9,86.1,44.8,100.4z"/>
		<g>
			<linearGradient id="SVGID_21_" gradientUnits="userSpaceOnUse" x1="150.9697" y1="309.0255" x2="185.9538" y2="10.5685">
				<stop  offset="0" style="stop-color:#7E682A"/>
				<stop  offset="0.5035" style="stop-color:#FFF3CA"/>
				<stop  offset="1" style="stop-color:#53461D"/>
			</linearGradient>
			<path fill="url(#SVGID_21_)" d="M212.8,118.9c-0.5,0.1-1.1,0.3-1.7,0.4c-5.5,1.4-13.8,3.4-17.9,13.9c-3.1,7.9-12,38.4-16.8,54.8
				l-2,6.9c-0.7,2.4-1.3,4.6-2.1,6.5c-0.5,1.2-1.1,2.1-1.6,2.8c-2.5,2.9-5.6,5.9-10.1,6.3c-2.1,0.2-4.2,0.2-6.2-0.1
				c-3.6-0.5-6.9-1.7-9.4-3.4c-3.4-2.4-5.2-5.7-5.3-9.3c0-1,0.1-2,0.4-3c0.3-1,0.7-2.6,1.3-4.7c0.4-1.4,0.9-3,1.4-4.8l0.3-1
				c5.8-20.1,17.6-59.7,18.7-63.3l0.6-1.9l-1.9,0.3c-4.8,0.6-8.5,1.6-11.7,4.3c-0.3,0.3-0.7,0.6-1,0.9c-2.3,2.2-4.3,4.9-6.1,8.1
				c-1.7,3-2.8,6.3-4.1,10.1l-0.1,0.3c-1.1,3.7-6.8,22.7-11,37.7c-1,3.7-2,7.1-2.8,10c-0.4,1.6-1.7,7.3-0.4,14.1
				c0.1,0.3,0.1,0.7,0.2,1c0.2,0.7,0.3,1.4,0.6,2.1c0.1,0.4,0.2,0.7,0.4,1.1c1.5,4.4,4.1,8.3,7.6,11.5c5.1,4.7,11.8,7,20.5,7h0.1
				c2.1,0,4.4-0.2,6.7-0.5c0.8-0.1,1.6-0.3,2.4-0.4c1.4-0.3,2.8-0.6,4.2-1c2.5-0.7,4.1-1.4,4.9-1.7c9.5-4.3,14.8-11.7,17.6-17.2
				c1.5-2.9,2.3-5.4,2.8-7l2.9-9.7c4.9-16.5,14.6-48.9,20.7-69.3l0.7-2.2L212.8,118.9z"/>
			<linearGradient id="SVGID_22_" gradientUnits="userSpaceOnUse" x1="242.8188" y1="319.7917" x2="277.8029" y2="21.3346">
				<stop  offset="0" style="stop-color:#7E682A"/>
				<stop  offset="0.5035" style="stop-color:#FFF3CA"/>
				<stop  offset="1" style="stop-color:#53461D"/>
			</linearGradient>
			<path fill="url(#SVGID_22_)" d="M306.9,126.4c0.7-2.4,1.3-4.3,1.7-5.7l0.6-2l-2,0.4c-7.6,1.4-15.6,3.5-18.3,8.6
				c-4.7-3.1-13.6-7.8-24.3-8.6c-0.9-0.1-1.7-0.1-2.6-0.1c-7.6,0-26.1,2.7-33.9,27.8c-2.6,8.8-5.5,18.4-7.8,26l-2.1,6.9
				c-1.1,3.8-2.1,7.1-2.7,10.2c-0.2,1.1-0.4,2.1-0.5,3.1c-0.4,3.2-0.2,6.3,0.5,9.5c0.1,0.3,0.2,0.7,0.2,1.1
				c1.7,7.3,4.4,12.7,8.4,16.4c4.8,4.5,10.8,7.1,17.8,7.7c2.1,0.2,4.3,0.2,6.6,0c0.8-0.1,1.6-0.2,2.4-0.3c0.4-0.1,0.8-0.1,1.2-0.2
				c4.9-0.8,8.3-2.2,9.3-2.7c3-1.3,5.8-3.1,8.2-5.2c1.9,3.3,4.2,5.8,7.5,8l2.1,1.5l-0.2-2.6c0-0.1,0-0.2,0-0.4c0-1.2,0.3-3.2,0.7-5
				l0.2-1.2c0.3-1.5,0.5-3,0.7-4.3c0.2-1.3,3-10.7,6.3-21.5l1.8-5.8c2.3-7.6,5-16.5,7.6-25.4c3.9-13.5,7.9-26.6,10.5-35.2
				L306.9,126.4z M285.1,139.9c-3.3,11.3-11.9,39.7-14.5,48.3l-0.7,2.1c0,0-0.1,0.2-0.2,0.6c-0.2,0.5-0.4,1.4-0.8,2.4
				c-0.1,0.3-0.2,0.5-0.3,0.8c-1,2.5-2.2,4.6-3.5,6.3c-0.2,0.3-0.4,0.6-0.7,0.8c-1.5,1.7-2.7,3-4,4.2c-2.8,2.5-5.8,4.4-9.3,5.7
				c-2.8,1.1-5.8,1-8.5-0.2c-1.1-0.5-2.3-1.2-3.3-2.1c-1-0.9-2-1.9-2.8-3c-1.7-2.3-2.9-4.9-3.6-7.7c-0.1-0.3-0.1-0.7-0.2-1
				c-0.1-0.7-0.2-1.4-0.2-2.1c-0.1-1.4,0-2.7,0.3-4l0.2-0.9c1-4.2,2.4-8.9,3.8-13.9c0.5-1.9,1.1-3.8,1.6-5.7
				c3.4-12.1,5.7-20.1,10.1-27.3c5-8.3,12.7-10,18.3-10c6.6,0,12.9,2.4,16,4.6C283.4,138.4,284.4,139.2,285.1,139.9z"/>
			<linearGradient id="SVGID_23_" gradientUnits="userSpaceOnUse" x1="561.9641" y1="357.2004" x2="596.9481" y2="58.7438">
				<stop  offset="0" style="stop-color:#7E682A"/>
				<stop  offset="0.5035" style="stop-color:#FFF3CA"/>
				<stop  offset="1" style="stop-color:#53461D"/>
			</linearGradient>
			<path fill="url(#SVGID_23_)" d="M630.2,127c0.8-2.6,1.5-4.8,1.9-6.3l0.6-2l-2,0.4c-7.6,1.4-15.6,3.5-18.3,8.6
				c-4.7-3.1-13.6-7.8-24.3-8.6c-0.9-0.1-1.7-0.1-2.6-0.1c-14.3,0-26,8.3-32.1,22.8c-0.7,1.6-1.3,3.3-1.8,5
				c-2.5,8.6-5.3,17.9-7.6,25.4l-2.3,7.6c-2.7,8.9-4.4,14.7-2.7,22.6c1.1,5,3.1,12.3,8.7,17.5c5.5,5.2,12.5,7.8,20.9,7.8
				c8.4,0,15.1-2.7,16.3-3.3c3-1.3,5.8-3.1,8.2-5.2c1.9,3.3,4.2,5.8,7.5,8l2.1,1.5l-0.2-2.6c-0.1-1.3,0.4-4,0.8-6.6
				c0.3-1.5,0.5-3,0.7-4.3c0.2-1.1,2.3-8.1,4.8-16.4c3-9.9,7.1-23.4,10.8-36.3c3.2-11.3,6.5-22.3,8.7-29.5L630.2,127z M560.4,206.5
				c-3.6-4.4-5.2-10.4-4.1-15.2c1-4.4,2.4-9.3,4-14.6c0.6-1.9,1.1-3.8,1.7-5.8c3.4-12.1,5.7-20.1,10.1-27.3c0.8-1.3,1.7-2.6,2.8-3.7
				c4.9-5.2,11.2-6.3,15.6-6.3c5.4,0,9.9,1.5,12.1,2.5c1.6,0.7,2.9,1.4,3.9,2.1c0.5,0.3,1.5,1.1,2.2,1.9
				c-3.3,11.5-12.3,41.2-15,50.1l-0.1,0.3c0,0.1-1.8,6.8-5.5,11c-3.2,3.7-7,7.4-13.3,9.9C569.8,213.2,564.3,211.4,560.4,206.5z"/>
			<linearGradient id="SVGID_24_" gradientUnits="userSpaceOnUse" x1="309.1598" y1="327.5679" x2="344.1438" y2="29.1116">
				<stop  offset="0" style="stop-color:#7E682A"/>
				<stop  offset="0.5035" style="stop-color:#FFF3CA"/>
				<stop  offset="1" style="stop-color:#53461D"/>
			</linearGradient>
			<path fill="url(#SVGID_24_)" d="M342.6,256.4c-5.9,0-12.3-2.7-16.8-6.9c-0.4-0.3-0.7-0.7-1-1c-4.1-4.4-6.3-10.2-6.4-16.7
				c0-2.7,0.3-5.6,0.9-8.6c0.1-0.5,0.8-3.1,2.2-7.7c2.1-7.3,5.5-18.9,9.4-31.9l2.3-7.6c9.1-31,19.5-66.2,20.4-70.1
				c0.1-0.6,0.2-1.2,0.3-1.8l0.1-0.3c0.1-0.4,0.2-0.7,0.1-0.8c0.1-0.9,0.3-1.8,0.3-2.7c1.1-10.6-1.9-20.6-8.1-27.4
				c-4.9-5.5-11.5-8.5-18.4-8.5c-2.9,0-5.8,0.5-8.7,1.6c-0.9,0.3-5.4,2.6-8,5.1l-3,2.9l4.1-0.7c1-0.2,2.1-0.3,3.2-0.3
				c6.6,0,13.2,3.2,17.2,8.2c3.2,4.1,6.5,11.6,3.5,23.9c-0.5,2.1-4.6,15.5-9.7,32.5c-4.5,14.9-9.6,31.9-14.1,47.1l-4.6,15.6
				c-3.4,11.7-5.3,18.6-5.8,21.3c-0.5,2.7-0.8,5.3-0.8,8c-0.1,8.3,2.2,15.9,6.7,22.2c5.6,7.8,13.7,12.3,22.3,12.3
				c4.4,0,8.7-1.2,12.7-3.5c0.2-0.1,2-1.4,2.6-2.1l2.5-2.5l-3.6,0.5C343.9,256.4,343.3,256.4,342.6,256.4z"/>
			<linearGradient id="SVGID_25_" gradientUnits="userSpaceOnUse" x1="346.1346" y1="331.9019" x2="381.1187" y2="33.4446">
				<stop  offset="0" style="stop-color:#7E682A"/>
				<stop  offset="0.5035" style="stop-color:#FFF3CA"/>
				<stop  offset="1" style="stop-color:#53461D"/>
			</linearGradient>
			<path fill="url(#SVGID_25_)" d="M388.6,119.2c-3.9,0.5-7.2,1-12.2,3.8c-4.5,2.6-6.4,6.3-7.2,9c-4.7,15.8-25.9,85.8-26,86.1
				c-1.3,3.6-2.1,8.7-4.6,10.6l6.1,0.3c1.6,0,2.9,0,4.1,0c4.7,0,6.6-0.3,8.3-1.7c0.9-0.8,1.6-2.2,2.4-4.7
				c1.6-5.3,6.6-21.7,22.3-73.7c4.6-15.2,8.2-27,8.5-28.1l0.6-1.9L388.6,119.2z"/>
			<linearGradient id="SVGID_26_" gradientUnits="userSpaceOnUse" x1="436.0052" y1="342.4364" x2="470.9893" y2="43.9791">
				<stop  offset="0" style="stop-color:#7E682A"/>
				<stop  offset="0.5035" style="stop-color:#FFF3CA"/>
				<stop  offset="1" style="stop-color:#53461D"/>
			</linearGradient>
			<path fill="url(#SVGID_26_)" d="M518.6,126.2c-5.5-4.6-12.4-7-20.5-7c-9.6,0-17.3,3.3-18.1,3.7c-4.4,2-8.4,4.9-11.9,8.6
				c-1.3-2.1-2.9-3.9-4.6-5.4c-5.5-4.6-12.4-7-20.5-7c-9.6,0-17.3,3.3-18.1,3.7c-15.1,6.8-20.1,21.5-21,24.4
				c-0.7,2.5-3.8,12.6-7.6,25.4l-1.5,4.9c-4.8,16.1-10.6,35.3-14.7,49.1l-0.7,2.3l2.3-0.8c1.5-0.5,3-0.9,4.4-1.3
				c6.2-1.6,12.6-3.3,15.6-13.2c0.3-1.2,0.9-2.9,1.5-5l0.1-0.2c2.1-6.8,5.2-17.1,8.2-27.6c1-3.5,2-7,3-10.3c0.8-2.6,1.5-5.1,2.3-7.5
				l0.1-0.2c1.1-3.6,2.1-6.8,2.8-9.5l0.5-1.7c1.1-3.8,2.1-7.3,3.8-9.3c2.5-2.9,5.6-5.9,10.1-6.3c2-0.2,5-0.1,6.9,0.1
				c5.6,0.7,10.3,3.2,12.7,6.8c1.8,2.6,2.3,5.7,1.5,9c-0.5,2.1-10.7,36.6-11.9,40.6l-1,3.3c-2.3,7.8-7.8,26.4-9.1,30.7l-0.6,2.1
				l2.2-0.5c0.8-0.2,1.9-0.4,2.9-0.7c1-0.2,1.8-0.4,2.2-0.5l1.5-0.4c6.4-1.8,12-3.4,15.8-13.2c3.1-7.8,11.9-38.1,16.7-54.4l2.1-7.2
				c1.1-3.8,2.1-7.3,3.7-9.2c2.5-2.9,5.6-5.9,10.1-6.3c2.1-0.2,4.2-0.2,6.2,0.1c9.4,1.2,15.4,7,14.6,14.2c-0.1,0.5-0.2,1.1-0.3,1.6
				c-2.4,9.4-20.4,69.7-21.9,74.6l-0.5,1.5l1.6,0.1c3.5,0.2,6.7-0.5,9.5-2.2c0.4-0.3,0.9-0.6,1.3-0.9c0,0,1.5-1.3,1.8-1.6
				c0.5-0.5,1.1-1.1,1.6-1.6c1.7-1.8,3.2-4,4.6-6.5c1.7-3,2.9-6.6,4.2-10.3l0.1-0.2c0,0,7.8-25.5,8.7-28.4c0.9-3.1,2-6.7,2.7-9.6
				c0.7-3,1.5-5.7,2.2-8.1c0.5-1.9,1-3.6,1.5-5.3c0.5-2,0.8-4,0.8-6.1C528.9,135.8,521,128.2,518.6,126.2z"/>
			<linearGradient id="SVGID_27_" gradientUnits="userSpaceOnUse" x1="642.3959" y1="366.6287" x2="677.3799" y2="68.1719">
				<stop  offset="0" style="stop-color:#7E682A"/>
				<stop  offset="0.5035" style="stop-color:#FFF3CA"/>
				<stop  offset="1" style="stop-color:#53461D"/>
			</linearGradient>
			<path fill="url(#SVGID_27_)" d="M706.2,127c-0.3-0.3-0.6-0.6-0.9-0.8c-5.5-4.6-12.4-7-20.5-7c-9.6,0-17.3,3.3-18.1,3.7
				c-4.3,1.9-8.2,4.7-11.5,8.3c-6.3,6.7-8.8,14.1-9.4,16.2c-1.9,6.4-15.6,53-23.5,79.4l-0.7,2.3l2.3-0.8c1.3-0.4,2.7-0.8,4-1.2
				c6.7-1.8,13-3.6,16-13.7l3.3-11.1c4.4-14.7,11-36.8,14.5-48.9c1.6-5.4,3.2-9,4.9-11c2.5-2.9,5.6-5.9,10.1-6.3
				c1.5-0.1,2.4-0.2,3.3-0.1c2.3,0.1,5.2,0.6,6.3,0.9l0.3,0.1c0.4,0.1,0.8,0.2,1.2,0.3l0.3,0.1l0.3,0c6.1-1.1,13-5.2,17.8-8.4
				l1.3-0.9L706.2,127z"/>
			<linearGradient id="SVGID_28_" gradientUnits="userSpaceOnUse" x1="86.6021" y1="301.4807" x2="121.5863" y2="3.0229">
				<stop  offset="0" style="stop-color:#7E682A"/>
				<stop  offset="0.5035" style="stop-color:#FFF3CA"/>
				<stop  offset="1" style="stop-color:#53461D"/>
			</linearGradient>
			<path fill="url(#SVGID_28_)" d="M172.7,257.6c-11.5,0-22.5-2.4-27.8-4.7c-18.4-7.9-33.1-21.9-46.2-44.1c-0.8-1.4-1.8-3.1-0.4-7
				c0.1-0.4,17.6-58.1,20-67.3l0.1-0.3c1.7-6.7,4.9-19.1-1.2-28.4c-4.1-6.2-12.7-13.6-31-13.6c-2.9,0-6.1,0.2-9.3,0.6l-0.6,0.1
				l0.1,2.4l0.6,0c5.1,0.4,19.7,3.4,25.9,12.1c2.6,3.7,3.3,7.9,2,12.7c-1.1,4-2.6,9-4.2,14.4l-1.9,6.4
				c-9.7,32.5-13.7,45.9-15.1,50.8c-11.6-15.3-29.4-35-45.3-45.8c-2-1.2-4.2-2.5-6.7-4.1c-1-0.5-1.9-0.9-2.7-1.3
				c4.4-16.7,9.8-30.2,16-40.1c9.1-14.3,23-17.3,33.1-17.3c4.7,0,9.5,0.6,14.3,1.9l1,0.3c2,0.5,4.7,1.2,7.4,2.4
				c9.6,3.4,18.2,10.4,23,18.6l1.6,2.7l0.7-3.1c1.4-5.9,1.9-14.6-3.5-22.7c-6.2-9.1-18.5-15-36.5-17.6c-3.7-0.5-7.4-0.8-10.8-0.8
				c-25.3,0-43.5,13.9-54,41.2c-2,5.2-5.1,15.3-8.1,25.3l-1.6,5.4c-1.6,5.2-3.2,10.6-4.7,15.5c-5.7,18.5-7.6,29.9-6.3,37.1
				c1.5,7.8,5,18.8,13.6,26.7c8.6,7.9,19.6,11.9,32.7,11.9c13.3,0,23.7-4.2,25.7-5c1.3-0.6,3.4-1.6,5.1-2.4
				c5.7,7.6,23.3,28.2,25.7,30.8c4.5,4.9,21.4,20.9,49.1,20.9c2.9,0,5.9-0.2,8.8-0.5c15.1-1.9,24-9.8,27.8-13.2l3.7-3.3l-4.7,1
				C183.2,257.1,178.1,257.6,172.7,257.6z M52.5,209.3c-9.8,0-20.6-4.3-28.9-11.5c-8.2-7-5.9-19.6-4.6-24.7
				c1.5-5.8,3.4-12.4,5.9-20.8c14.8,10,28.7,33,37.9,48.3c1.2,2,2.3,3.8,3.4,5.5C62,208.2,57.4,209.3,52.5,209.3z"/>
		</g>
	</g>
	<g>
		<linearGradient id="SVGID_29_" gradientUnits="userSpaceOnUse" x1="398.0059" y1="201.0285" x2="398.0059" y2="296.9423">
			<stop  offset="0" style="stop-color:#7E682A"/>
			<stop  offset="0.5035" style="stop-color:#FFF3CA"/>
			<stop  offset="1" style="stop-color:#53461D"/>
		</linearGradient>
		<path fill="url(#SVGID_29_)" d="M395.1,260.5l-1,5.4H391l2.9-16.7h6.2c3.4,0,4.9,1.3,4.9,3.6c0,0.3,0,0.8-0.1,1.2l-0.4,2.1
			c-0.5,2.8-1.6,4.4-5.9,4.4H395.1z M401.8,254.2c0-0.3,0.1-0.5,0.1-0.7c0-1-0.5-1.5-1.9-1.5h-3.4l-1,5.8h3.4c1.9,0,2.4-0.6,2.6-2
			L401.8,254.2z"/>
		<linearGradient id="SVGID_30_" gradientUnits="userSpaceOnUse" x1="427.0048" y1="201.0285" x2="427.0048" y2="296.9423">
			<stop  offset="0" style="stop-color:#7E682A"/>
			<stop  offset="0.5035" style="stop-color:#FFF3CA"/>
			<stop  offset="1" style="stop-color:#53461D"/>
		</linearGradient>
		<path fill="url(#SVGID_30_)" d="M423.3,249.3h10.2l-0.5,2.7H426l-0.7,4h6.6l-0.5,2.7h-6.6l-0.8,4.5h7.1l-0.5,2.7h-10.2
			L423.3,249.3z"/>
		<linearGradient id="SVGID_31_" gradientUnits="userSpaceOnUse" x1="454.9394" y1="201.0285" x2="454.9394" y2="296.9422">
			<stop  offset="0" style="stop-color:#7E682A"/>
			<stop  offset="0.5035" style="stop-color:#FFF3CA"/>
			<stop  offset="1" style="stop-color:#53461D"/>
		</linearGradient>
		<path fill="url(#SVGID_31_)" d="M448.5,265.2l0.7-2.4c1.6,0.5,3,0.8,4.5,0.8c2.4,0,2.8-0.5,3.1-2.2c0.1-0.4,0.1-0.8,0.1-1.1
			c0-0.9-0.6-1.1-2.8-1.7c-2.9-0.7-3.8-1.9-3.8-3.7c0-0.5,0.1-1.1,0.2-1.7c0.6-3.5,1.8-4.4,6.1-4.4c1.5,0,3.1,0.2,4.7,0.7l-0.5,2.6
			c-1.6-0.4-3-0.6-4.4-0.6c-2.2,0-2.6,0.3-2.9,1.9c-0.1,0.4-0.1,0.8-0.1,1.1c0,0.8,0.6,1.1,2.7,1.7c3,0.8,3.9,1.7,3.9,3.5
			c0,0.5-0.1,1-0.2,1.6c-0.6,3.4-1.6,4.8-6.4,4.8C452.1,266.2,449.9,265.9,448.5,265.2z"/>
		<linearGradient id="SVGID_32_" gradientUnits="userSpaceOnUse" x1="483.7875" y1="201.0285" x2="483.7875" y2="296.9422">
			<stop  offset="0" style="stop-color:#7E682A"/>
			<stop  offset="0.5035" style="stop-color:#FFF3CA"/>
			<stop  offset="1" style="stop-color:#53461D"/>
		</linearGradient>
		<path fill="url(#SVGID_32_)" d="M477.5,262.2c0-0.4,0-0.8,0.1-1.1l1.3-7.2c0.6-3.6,2.6-4.9,6.7-4.9c1.6,0,3,0.3,4.5,0.7l-0.7,2.7
			c-1.3-0.3-3-0.5-4.2-0.5c-2.1,0-3,0.5-3.4,2.6l-1.1,6.2c-0.1,0.3-0.1,0.6-0.1,0.9c0,1.3,0.7,1.8,2.5,1.8c1.2,0,2.8-0.1,4.2-0.4
			l0.1,2.7c-1.4,0.4-3.1,0.6-4.8,0.6C479.1,266.2,477.5,264.5,477.5,262.2z"/>
		<linearGradient id="SVGID_33_" gradientUnits="userSpaceOnUse" x1="511.4839" y1="201.0285" x2="511.4839" y2="296.9423">
			<stop  offset="0" style="stop-color:#7E682A"/>
			<stop  offset="0.5035" style="stop-color:#FFF3CA"/>
			<stop  offset="1" style="stop-color:#53461D"/>
		</linearGradient>
		<path fill="url(#SVGID_33_)" d="M515.3,262.4h-6.2l-1.7,3.6H504l8.2-16.7h4.2l2.5,16.7h-3.2L515.3,262.4z M510.3,259.8h4.7l-0.9-8
			L510.3,259.8z"/>
		<linearGradient id="SVGID_34_" gradientUnits="userSpaceOnUse" x1="543.3373" y1="201.0285" x2="543.3373" y2="296.9423">
			<stop  offset="0" style="stop-color:#7E682A"/>
			<stop  offset="0.5035" style="stop-color:#FFF3CA"/>
			<stop  offset="1" style="stop-color:#53461D"/>
		</linearGradient>
		<path fill="url(#SVGID_34_)" d="M536.4,266l3-16.7h6.1c3.5,0,4.8,1.9,4.8,4c0,0.4,0,0.7-0.1,1.1l-1.3,7.2c-0.5,2.6-1.6,4.4-6,4.4
			H536.4z M547.1,254.4c0-0.3,0.1-0.6,0.1-0.8c0-1.1-0.6-1.7-2.4-1.7h-2.8l-2,11.2h3c2.2,0,2.7-0.8,3-2.5L547.1,254.4z"/>
		<linearGradient id="SVGID_35_" gradientUnits="userSpaceOnUse" x1="573.9008" y1="201.0285" x2="573.9008" y2="296.9422">
			<stop  offset="0" style="stop-color:#7E682A"/>
			<stop  offset="0.5035" style="stop-color:#FFF3CA"/>
			<stop  offset="1" style="stop-color:#53461D"/>
		</linearGradient>
		<path fill="url(#SVGID_35_)" d="M566.9,262.1c0-0.4,0-0.7,0.1-1.1l1.2-6.9c0.6-3.3,2.4-5,7-5c3.8,0,5.6,2,5.6,4.4
			c0,0.3,0,0.6-0.1,0.9l-1.2,6.8c-0.6,3.4-2.4,5.1-7.2,5.1C568.6,266.2,566.9,264.5,566.9,262.1z M577.7,254.3
			c0-0.2,0.1-0.4,0.1-0.6c0-1.3-0.7-2-2.8-2c-2.2,0-3.3,0.9-3.6,2.6l-1.2,6.5c0,0.3-0.1,0.6-0.1,0.8c0,1.2,0.7,1.8,2.8,1.8
			c2.3,0,3.3-0.9,3.6-2.6L577.7,254.3z"/>
		<linearGradient id="SVGID_36_" gradientUnits="userSpaceOnUse" x1="603.2621" y1="201.0285" x2="603.2621" y2="296.9422">
			<stop  offset="0" style="stop-color:#7E682A"/>
			<stop  offset="0.5035" style="stop-color:#FFF3CA"/>
			<stop  offset="1" style="stop-color:#53461D"/>
		</linearGradient>
		<path fill="url(#SVGID_36_)" d="M596.8,265.2l0.7-2.4c1.6,0.5,3,0.8,4.5,0.8c2.4,0,2.8-0.5,3.1-2.2c0.1-0.4,0.1-0.8,0.1-1.1
			c0-0.9-0.6-1.1-2.8-1.7c-2.9-0.7-3.8-1.9-3.8-3.7c0-0.5,0.1-1.1,0.2-1.7c0.6-3.5,1.8-4.4,6.1-4.4c1.5,0,3.1,0.2,4.7,0.7l-0.5,2.6
			c-1.6-0.4-3-0.6-4.4-0.6c-2.2,0-2.6,0.3-2.9,1.9c-0.1,0.4-0.1,0.8-0.1,1.1c0,0.8,0.6,1.1,2.7,1.7c3,0.8,3.9,1.7,3.9,3.5
			c0,0.5-0.1,1-0.2,1.6c-0.6,3.4-1.6,4.8-6.4,4.8C600.4,266.2,598.2,265.9,596.8,265.2z"/>
	</g>
</g>
</svg>
