<?xml version="1.0" encoding="utf-8"?>
<!-- Generator: Adobe Illustrator 18.0.0, SVG Export Plug-In . SVG Version: 6.00 Build 0)  -->
<!DOCTYPE svg PUBLIC "-//W3C//DTD SVG 1.1//EN" "http://www.w3.org/Graphics/SVG/1.1/DTD/svg11.dtd">
<svg version="1.1" id="Layer_1" xmlns="http://www.w3.org/2000/svg" xmlns:xlink="http://www.w3.org/1999/xlink" x="0px" y="0px"
	 viewBox="0 0 359.4 112.5" enable-background="new 0 0 359.4 112.5" xml:space="preserve">
<g>
	<path fill-rule="evenodd" clip-rule="evenodd" fill="#24A3DC" d="M257.4,52.1c-5.8-0.1-12-0.2-18.3-0.6c-6.7-0.4-13.4-0.9-20.1-1.5
		c-8-0.8-16-1.6-24-2.7c-7.3-1-14.6-1.8-21.9-2.8c-8.4-1.1-16.7-2.2-25.1-3.2c-7.1-0.9-14.2-1.5-21.3-2.3c-6.7-0.7-13.3-1.1-20-1.5
		C97.4,37,88.2,37,79,37.2c-7.2,0.2-14.5,0.7-21.6,1.7C46,40.5,34.8,43,23.9,47.1c-5.5,2.1-10.9,4.6-16.1,7.3
		c-0.7,0.4-1.5,0.7-2.3,0.9c-2.4,0.6-3.9-0.2-4.7-2.5c-0.7-2-0.9-4.1-0.9-6.1c0-3.1,0.1-6.2,0-9.4c-0.1-3.8,1.6-6.4,4.9-7.9
		c6.4-3,12.7-6.2,19.4-8.8c8.5-3.3,17.2-5.9,26.1-7.9c8.2-1.7,16.5-2.9,24.9-3.5c4.1-0.3,8.2-0.4,12.3-0.5c6.1-0.2,12.2,0,18.3,0.3
		c6.4,0.4,12.8,0.9,19.3,1.6c6,0.7,11.9,1.4,17.8,2.2c7.4,1.1,14.8,2.2,22.2,3.3c7.5,1.1,15,2.2,22.4,3.2c5.4,0.8,10.8,1.4,16.2,2
		c8,0.9,16.1,1.6,24.1,2c10.5,0.6,21,0.6,31.4,0.1c6.9-0.3,13.8-1,20.7-2c9.7-1.4,19.2-3.3,28.7-5.8c13.2-3.5,26-8.2,38.4-13.7
		c1.2-0.6,2.5-1.1,3.7-1.7c2.6-1.2,4.9-0.6,6.5,1.8c1.4,2,1.8,4.3,1.9,6.6c0.1,3.6,0.1,7.2,0,10.7c-0.1,2.9-1.9,5-4,6.8
		c-3.2,2.8-6.9,4.7-10.6,6.7c-9.5,5.1-19.4,9-29.8,11.9c-6.5,1.8-13.1,3.2-19.8,4.2c-9.7,1.5-19.4,2.3-29.2,2.6
		C263.3,52,260.6,52.1,257.4,52.1z"/>
	<path opacity="0.9" fill-rule="evenodd" clip-rule="evenodd" fill="#31307F" d="M195.5,94.9c0-0.5,0-0.9,0-1.4c0-7.2,0-14.5,0-21.7
		c0-0.8,0-1.6,0.1-2.4c0.3-2.2,1.6-3.5,3.7-3.5c2.2,0,3.6,1.2,3.9,3.4c0.1,0.6,0.1,1.2,0.1,1.7c0,10.7,0,21.5,0,32.2
		c0,0.4,0,0.8,0,1.1c-0.3,4.2-4.2,6-7.7,3.6c-1.2-0.8-2.1-2-2.9-3.3c-3.7-5.7-7.4-11.4-11.1-17c-1.6-2.5-3.3-5-4.9-7.5
		c-0.4,0.5-0.2,0.9-0.2,1.3c0,7.4,0,14.7,0,22.1c0,0.8,0,1.6-0.2,2.4c-0.5,1.9-1.9,3-3.8,3c-1.9,0-3.3-1.1-3.7-3
		c-0.1-0.6-0.2-1.2-0.2-1.9c0-10.8,0-21.6,0-32.5c0-3.9,2.3-6.1,5.7-5.7c1.7,0.2,2.7,1.3,3.6,2.6c2.7,4.1,5.3,8.1,8,12.2
		c3,4.5,5.9,9,8.9,13.5c0.1,0.2,0.3,0.4,0.4,0.6C195.4,95,195.4,94.9,195.5,94.9z"/>
	<path opacity="0.9" fill-rule="evenodd" clip-rule="evenodd" fill="#31307F" d="M58.3,71.5c0,0.4,0,0.9,0,1.3c0,7.3,0,14.7,0,22
		c0,0.8,0,1.6-0.2,2.4c-0.5,1.9-1.9,2.9-3.8,2.9c-1.8,0-3.2-1.1-3.6-3c-0.1-0.6-0.2-1.2-0.2-1.9c0-10.8,0-21.6,0-32.3
		c0-0.7,0.1-1.5,0.2-2.2c0.4-2,2.1-3.1,4-3.4c2.7-0.4,4.2,1,5.5,3c5.3,8.2,10.7,16.4,16.1,24.5c0.3,0.4,0.5,0.9,1.1,1.3
		c0-0.5,0.1-1,0.1-1.4c0-7.2,0-14.5,0-21.7c0-1.2,0-2.3,0.4-3.5c0.5-1.6,1.7-2.5,3.5-2.5c1.8,0,3,0.8,3.6,2.4
		c0.2,0.7,0.3,1.4,0.3,2.1c0,11.2,0,22.3,0,33.5c0,2-0.4,3.9-2.5,4.8c-2.1,0.9-4.6,0.3-6.2-1.4c-2-2.2-3.5-4.9-5.1-7.4
		C67.2,84.7,63.1,78.3,59,72c-0.1-0.2-0.3-0.4-0.4-0.6C58.4,71.5,58.4,71.5,58.3,71.5z"/>
	<path opacity="0.9" fill-rule="evenodd" clip-rule="evenodd" fill="#31307F" d="M276.1,93c5,3.5,8.1,8.4,10.4,13.8
		c1.1,2.5,0.7,4-1,5.1c-1.9,1.2-4.3,0.8-5.9-0.9c-1.1-1.2-1.9-2.8-2.7-4.2c-1.7-2.7-3.4-5.5-5.1-8.3c-2.4-3.9-6-4.8-10.2-4.4
		c-0.8,0.1-0.6,0.6-0.6,1.1c0,4,0,8.1,0,12.1c0,0.8-0.1,1.5-0.2,2.2c-0.5,1.9-2,3.1-4,3.1c-2,0-3.6-1.3-4-3.3
		c-0.2-0.9-0.2-1.7-0.2-2.6c0-10.2,0-20.4,0-30.6c0-0.2,0-0.4,0-0.6c0.1-3.9,1.5-5.4,5.4-5.3c5.9,0,11.8-0.2,17.7,0.2
		c7.8,0.6,12.6,7.5,10.3,15c-1.1,3.8-3.9,5.7-7.4,7C277.8,92.6,277,92.7,276.1,93z M267.5,76.4c-2.3,0-4,0-5.6,0c-0.7,0-1,0.1-1,0.9
		c0,3.3,0,6.6,0,9.9c0,0.7,0.2,0.9,0.9,0.8c2.3,0,4.7,0,7,0c1.7-0.1,3.5-0.1,5.2-0.7c2.7-0.8,4.1-2.7,3.9-5.5
		c-0.2-2.6-1.9-4.6-4.5-5.1C271.2,76.4,269,76.5,267.5,76.4z"/>
	<path opacity="0.9" fill-rule="evenodd" clip-rule="evenodd" fill="#31307F" d="M207.5,90.3c0-3.3,0.5-6.6,1.7-9.7
		c2.3-5.7,6.3-9.4,12.2-11c4.8-1.2,9.6-1.1,14.3,0.4c6.2,2.1,10,6.5,11.6,12.7c1.5,5.5,1.4,11-0.4,16.5c-2.2,6.5-6.6,10.6-13.2,12.1
		c-4.4,1-8.9,0.9-13.2-0.5c-7.4-2.4-11.2-7.9-12.5-15.2C207.6,93.9,207.5,92.1,207.5,90.3z M239.7,90.4c0-3.2-0.5-5.8-1.6-8.3
		c-3.5-7.7-14.3-8.9-19.2-2.1c-3.8,5.2-3.8,15.6,0,20.7c4.8,6.5,14.6,6,18.7-1C239.2,96.9,239.7,93.7,239.7,90.4z"/>
	<path opacity="0.9" fill-rule="evenodd" clip-rule="evenodd" fill="#31307F" d="M5.8,88.1c0-3.5,0.5-7,1.9-10.2
		c3-7,8.6-10.4,16.1-11.1c2.9-0.2,5.7-0.1,8.5,0.6c7,1.8,11.4,6.3,13.3,13.2c1.4,5.1,1.3,10.2,0,15.3c-2.2,8-8.5,13.2-16.8,13.8
		c-4.5,0.3-9-0.1-13.1-2.3c-5.8-3.2-8.5-8.4-9.5-14.7C5.8,91.2,5.8,89.7,5.8,88.1z M14.3,87.8c0,3.2,0.4,5.8,1.5,8.4
		c1.8,4.2,4.9,6.8,9.6,7c4.8,0.3,8.6-1.7,10.7-6.1c2.7-5.7,2.7-11.6,0.1-17.4c-2-4.4-5.8-6.3-10.6-6.1c-4.8,0.2-8,2.6-9.9,7
		C14.7,83,14.3,85.5,14.3,87.8z"/>
	<path opacity="0.9" fill-rule="evenodd" clip-rule="evenodd" fill="#31307F" d="M89.5,76.3c0-5.2,0-10.4,0-15.6
		c0-3.6,1.4-5.1,5.1-5.1c4.7,0,9.3-0.1,14,0.1c9.4,0.3,14.1,6.7,15.6,13.1c1.5,6.7,1.5,13.3-1.7,19.6c-2.6,5.3-7.1,8.1-13,8.6
		c-5.1,0.4-10.3,0.2-15.5,0.2c-3.2,0-4.5-1.5-4.5-5C89.4,87,89.5,81.6,89.5,76.3z M97.8,76.4c0,4.3,0,8.6,0,12.8
		c0,1.2,0.3,1.4,1.4,1.3c2.2-0.1,4.4,0,6.6,0c5.1,0,8.2-2.3,9.7-7.2c1.3-4.5,1.4-9,0.2-13.6c-1.1-4.4-4-6.7-8.4-7.3
		c-2.8-0.3-5.6-0.1-8.3-0.2c-0.9,0-1.1,0.2-1.1,1.1C97.8,67.7,97.8,72.1,97.8,76.4z"/>
	<path opacity="0.9" fill-rule="evenodd" clip-rule="evenodd" fill="#31307F" d="M164.1,78.3c-0.1,3.7,0.2,8.2-0.3,12.7
		c-0.8,7.7-6.2,12.1-13.2,12.8c-3.4,0.4-6.7,0.3-10.1-0.5c-6.5-1.4-10.1-5.2-11.1-11.8c-0.3-1.7-0.4-3.4-0.4-5.1
		c0-6.7,0-13.5,0-20.2c0-0.6,0-1.3,0.1-1.9c0.3-2,1.8-3.3,3.7-3.4c2.3-0.1,3.8,1,4.3,3.1c0.2,0.7,0.2,1.4,0.2,2.1
		c0,7.2,0,14.3,0,21.5c0,1.1,0.2,2.2,0.4,3.3c0.9,3.9,3.3,6,7.3,6.2c1.1,0.1,2.3,0.1,3.4-0.1c4.2-0.6,6.3-2.9,6.8-7.4
		c0.1-1.1,0.2-2.2,0.2-3.4c0-6.5,0-13.1,0-19.6c0-0.7,0-1.3,0.1-2c0.2-2.4,1.7-3.9,4-3.9c2.4,0,4,1.3,4.2,3.8
		c0.1,0.5,0.1,1.1,0.1,1.6C164.1,70.1,164.1,73.8,164.1,78.3z"/>
	<path opacity="0.9" fill-rule="evenodd" clip-rule="evenodd" fill="#31307F" d="M327.3,78.5c0-5,0-10,0-15c0-0.7,0-1.3,0.1-2
		c0.2-2.1,1.5-3.4,3.6-3.7c0.3,0,0.7-0.1,1-0.1c7.7,0,15.3,0,23,0c2.4,0,3.8,1.3,3.7,3.4c-0.1,1.4-0.9,2.5-2.3,2.9
		c-0.6,0.2-1.3,0.2-2,0.2c-5.8,0-11.6,0-17.4,0c-1.1,0-1.4,0.3-1.3,1.4c0.1,2.6,0.1,5.2,0,7.7c0,1,0.3,1.2,1.2,1.2
		c5.5,0,11,0,16.5,0c1.9,0,3.1,0.7,3.5,2c0.7,2.2-0.6,4.1-3,4.3c-1.5,0.1-3,0-4.5,0c-4.1,0-8.2,0-12.4,0c-1,0-1.4,0.2-1.3,1.3
		c0.1,3.1,0.1,6.2,0,9.2c0,1.1,0.2,1.4,1.4,1.4c5.9-0.1,11.8,0,17.7,0c0.6,0,1.3,0,1.9,0.1c1.7,0.3,2.7,1.5,2.7,3.2
		c0,1.7-1,2.9-2.7,3.2c-0.5,0.1-1.1,0.1-1.6,0.1c-7.5,0-14.9,0-22.4,0c-0.3,0-0.7,0-1,0c-2.8-0.2-4.2-1.5-4.3-4.3
		c-0.1-2.6-0.1-5.2-0.1-7.9C327.3,84.3,327.3,81.4,327.3,78.5z"/>
	<path opacity="0.9" fill-rule="evenodd" clip-rule="evenodd" fill="#31307F" d="M301.1,91c0-4.9,0-9.8,0-14.7
		c0-0.9-0.2-1.2-1.2-1.2c-2.8,0.1-5.7,0.1-8.5,0c-2.9-0.1-4.5-2.2-3.6-4.7c0.4-1.1,1.2-1.7,2.3-2c0.7-0.2,1.5-0.2,2.2-0.2
		c8.6,0,17.2,0,25.9,0c0.7,0,1.3,0,2,0.2c1.8,0.4,2.8,1.6,2.8,3.3c0,1.7-1,3-2.8,3.4c-1.5,0.3-3.1,0.1-4.6,0.2c-1.7,0-3.3,0.1-5,0
		c-1,0-1.2,0.3-1.2,1.2c0,9.6,0,19.2,0,28.7c0,0.7-0.1,1.4-0.2,2.1c-0.4,2.1-1.8,3.3-3.9,3.3c-2.1,0.1-3.6-1.1-4.2-3.2
		c-0.2-0.9-0.2-1.7-0.2-2.6C301.1,100.1,301.1,95.5,301.1,91z"/>
</g>
</svg>
